<svg xmlns="http://www.w3.org/2000/svg" viewBox="0 0 218.78 65.82"><defs><style>.cls-1{fill:#006938;}.cls-2{fill:#026937;}.cls-3{fill:#fff;}</style></defs><title>Asset 3</title><g id="Layer_2" data-name="Layer 2"><g id="Layer_1-2" data-name="Layer 1"><path class="cls-1" d="M32.91,65.82A32.91,32.91,0,1,1,65.82,32.91,32.95,32.95,0,0,1,32.91,65.82"/><path class="cls-2" d="M73.76,39.23v4h6.83c0,.14,0,2.4-1.78,2.4H72.93s-2.47,0-2.47-1.53V31.18H80.58s0,2.42-1.78,2.42h-5v3.22H75c1.89,0,2.79,0,2.79,0,0,1.37-.82,2.45-2.72,2.45Z"/><path class="cls-2" d="M82.59,38.36C82.59,36,84,34.91,87,34.91c2.6,0,3.93.75,3.93,2.06a2.73,2.73,0,0,1-.4,1.52c-.3-1.29-1.64-1.33-3-1.33-1,0-1.79.38-1.79,1,0,1.57,6.21-.48,6.21,4.35,0,2.1-1.59,3.35-4.76,3.35-2.75,0-4.4-.93-4.4-2.28a3.41,3.41,0,0,1,.35-1.5c.45,1.76,3,1.54,4,1.54.61,0,1.63-.22,1.63-1.21,0-1.73-6.21.36-6.21-4"/><path class="cls-2" d="M94.44,32.08s3.21-.22,3.21,1.55v2.11h3.57s0,2.42-1.78,2.42H97.66v3.39c0,1.23.27,1.89,1.66,1.89.94,0,1.77.18,2.24-1.1a3.24,3.24,0,0,1,.31,1.67c0,.37-.27,1.36-1,1.52a8.19,8.19,0,0,1-2,.17,12.1,12.1,0,0,1-2.84-.2c-1.47-.47-1.55-1.67-1.55-3.38Z"/><path class="cls-2" d="M104.46,44.71V34.85a3.8,3.8,0,0,0,1.68.48c.88,0,1.85-.42,3.06-.42,1.36,0,2.74.42,2.74,2a6.75,6.75,0,0,1-.15,1.84c-.24-1.86-2.68-1.59-4.12-1.25v8.06h-1.52c-.83,0-1.69-.05-1.69-.84"/><path class="cls-2" d="M116.64,39.37a4.27,4.27,0,0,0,1.09.16c.69,0,1.34-.24,1.34-1.09a1,1,0,0,0-1.17-1.19c-1,0-1.26.6-1.26,1.69Zm-3.21,2.74V38.64c0-2.32,1.64-3.73,4.61-3.73s4.23,1.41,4.23,3.53c0,1.75-.86,3.37-4.05,3.37a3.57,3.57,0,0,1-1.57-.32v.32c0,1.11.75,1.61,1.91,1.61,2,0,2.91-.41,3.12-1.54a3.77,3.77,0,0,1,.41,2c0,1.45-1.2,1.91-3.63,1.91-3.27,0-5-1.39-5-3.73"/><path class="cls-2" d="M125,29.13c.21,0,3.21,0,3.21,1.53V42.25c0,1.09-.14,2.87,1.17,3.31l-2.11,0c-1.31,0-2.27.11-2.27-1.67Z"/><path class="cls-2" d="M131.28,29.13c.21,0,3.21,0,3.21,1.53V42.25c0,1.09-.14,2.87,1.17,3.31l-2.11,0c-1.31,0-2.27.11-2.27-1.67Z"/><path class="cls-2" d="M169.18,29.13c.21,0,3.21,0,3.21,1.53V42.25c0,1.09-.14,2.87,1.17,3.31l-2.11,0c-1.31,0-2.27.11-2.27-1.67Z"/><path class="cls-2" d="M159.56,39.53V43.2h1.51c1.57,0,2.24-.48,2.24-1.77s-.63-1.9-2.08-1.9Zm0-5.93v3.53h1.66c1.4,0,1.89-.72,1.89-2,0-1.13-.67-1.51-2-1.51Zm-3.29-2.42h4.8c3.1,0,5.33.93,5.33,3.83v.4a3.28,3.28,0,0,1-1.53,2.9,3.29,3.29,0,0,1,1.72,3v.44c0,2.76-2.26,3.87-5.53,3.87h-2.35s-2.45,0-2.45-1.53Z"/><path class="cls-2" d="M193.57,38.72c0-.93-.36-1.43-1.45-1.43a8.09,8.09,0,0,0-1.47.18v8.08H188.9c-.85,0-1.47.13-1.47-.59V34.6a3.47,3.47,0,0,0,2.1.72c.94,0,1.84-.42,2.85-.42,2.14,0,4.4.75,4.4,3.51v7.13h-1.6c-.92,0-1.61.15-1.61-.6Z"/><path class="cls-2" d="M215.62,40.68c-.52.83-2.7.52-2.7,1.79,0,.93.65,1.13,1.3,1.13a5.48,5.48,0,0,0,1.4-.22Zm-4.92-2.58c0-.6,0-.68,0-1.29,0-1.91,2.24-1.91,3.56-1.91,3.57,0,4.52,1.25,4.52,3.55v7.38a3.3,3.3,0,0,0-1.64-.36c-1,0-2.08.05-3.21.05-2.14,0-4.21-.45-4.21-3,0-3.63,5.81-3.22,5.85-4.29,0-.92-.38-1.21-1.32-1.38s-3.12.42-3.55,1.18"/><path class="cls-2" d="M181.25,40.68c-.52.83-2.7.52-2.7,1.79,0,.93.65,1.13,1.3,1.13a5.48,5.48,0,0,0,1.4-.22Zm-4.92-2.58c0-.6,0-.68,0-1.29,0-1.91,2.24-1.91,3.56-1.91,3.57,0,4.52,1.25,4.52,3.55v7.38a3.3,3.3,0,0,0-1.64-.36c-1,0-2.08.05-3.21.05-2.14,0-4.21-.45-4.21-3,0-3.63,5.81-3.22,5.85-4.29,0-.92-.38-1.21-1.32-1.38s-3.12.42-3.55,1.18"/><path class="cls-2" d="M143.18,40.68c-.52.83-2.7.52-2.7,1.79,0,.93.65,1.13,1.3,1.13a5.48,5.48,0,0,0,1.4-.22Zm-4.92-2.58c0-.6,0-.68,0-1.29,0-1.91,2.24-1.91,3.56-1.91,3.57,0,4.52,1.25,4.52,3.55v7.38a3.3,3.3,0,0,0-1.64-.36c-1,0-2.08.05-3.21.05-2.14,0-4.21-.45-4.21-3,0-3.63,5.81-3.22,5.85-4.29,0-.92-.38-1.21-1.32-1.38s-3.12.42-3.55,1.18"/><path class="cls-2" d="M202.36,39.26V41.2c0,1.59.83,2.09,2,2.09h2.09c1.28,0,1.51,2.27,1.51,2.27h-4c-2.34,0-4.39-1-4.39-3.66V38.57c0-2.71,2.05-3.66,4.39-3.66h4s-.27,2.29-1.63,2.29h-2c-1.2,0-2,.48-2,2.06"/><path class="cls-2" d="M75.38,20.26l-.27-.11v.29c0,1.39.45,2,1.54,2h1.06c0,1.28-.64,1.53-1.75,1.53s-1.78-.54-1.78-1.74V19.47c0-1.19.55-1.72,1.78-1.72,1.73,0,2.73.46,3.16,1.44l.14.32.2-.29A2.55,2.55,0,0,0,80,17.82c0-1.48-2-2.14-4.06-2.14-2.83,0-4.46,1.31-4.46,3.6v3.1c0,2.29,1.62,3.6,4.46,3.6s4.43-1.23,4.43-3.47V20.39H76.88a5.23,5.23,0,0,1-1.49-.13"/><path class="cls-2" d="M89.6,17.85h.83c.91,0,1.2.22,1.2.9s-.3,1.1-1.09,1.1H89.6Zm4.58,6.32a8.21,8.21,0,0,0-1.94-2.55,2.54,2.54,0,0,0,2-2.68v-.4c0-1.79-1.29-2.7-3.83-2.7H87v9.44c0,.69.3.68.62.68h2V22a5.8,5.8,0,0,1,1.78,2.25c.12.22.24.44.35.61A2.26,2.26,0,0,0,93.67,26h1.66l-.4-.56c-.28-.4-.52-.83-.76-1.25"/><path class="cls-2" d="M106.44,15.71h-.19v6.74c0,.93-.64,1.48-1.72,1.48s-1.75-.55-1.75-1.48V16.92c0-1.18-2.19-1.21-2.44-1.21h-.19v6.94c0,2.31,2.2,3.34,4.38,3.34s4.35-1,4.35-3.34V16.92c0-1.18-2.19-1.21-2.44-1.21"/><path class="cls-2" d="M118.59,20.91h-.44V17.84h.44c1.09,0,1.72.25,1.72,1.5s-.55,1.56-1.72,1.56m0-5.07h-3.08v9.44c0,.69.33.68.71.68h1.93v-3h.44c2.89,0,4.35-1.16,4.35-3.44v-.24c0-3-2.48-3.39-4.35-3.39"/><path class="cls-2" d="M131.31,19.34c0-1.12.26-1.65,1.73-1.65s1.73.53,1.73,1.65v3c0,1.1-.27,1.66-1.73,1.66s-1.73-.56-1.73-1.66Zm1.75-3.65c-3.62,0-4.38,1.89-4.38,3.48V22.5c0,1.59.76,3.48,4.38,3.48,2.81,0,4.35-1.24,4.35-3.48V19.16c0-2.25-1.55-3.48-4.35-3.48"/><polygon class="cls-3" points="32.89 4.68 39.21 24.17 59.71 24.16 43.12 36.2 49.48 55.69 32.89 43.63 16.31 55.69 22.67 36.2 6.07 24.16 26.57 24.17 32.89 4.68"/></g></g></svg>