<?xml version="1.0" encoding="utf-8"?>
<!-- Generator: Adobe Illustrator 26.5.0, SVG Export Plug-In . SVG Version: 6.00 Build 0)  -->
<svg version="1.1" id="MastarCard" xmlns="http://www.w3.org/2000/svg" xmlns:xlink="http://www.w3.org/1999/xlink" x="0px" y="0px"
	 viewBox="0 0 713.4 554.9" style="enable-background:new 0 0 713.4 554.9;" xml:space="preserve">
<style type="text/css">
	.st0{fill:#FFFFFF;}
</style>
<g>
	<path class="st0" d="M129.8,551.7V515c0-13.8-8.8-23.1-23-23.3c-7.5-0.1-15.2,2.2-20.6,10.4c-4-6.5-10.4-10.4-19.4-10.4
		c-6.2,0-12.4,1.8-17.1,8.7v-7.2H36.9v58.5h12.9v-32.4c0-10.2,5.6-15.5,14.3-15.5c8.5,0,12.7,5.5,12.7,15.4v32.6h12.9v-32.5
		c0-10.2,5.9-15.5,14.3-15.5c8.7,0,12.9,5.5,12.9,15.4v32.6H129.8z M320.1,493.2h-20.8v-17.8h-12.9v17.8h-11.9v11.6h11.9v26.7
		c0,13.6,5.3,21.7,20.3,21.7c5.5,0,11.9-1.7,15.9-4.5l-3.7-10.9c-3.8,2.2-8,3.3-11.3,3.3c-6.4,0-8.5-3.9-8.5-9.8v-26.5h20.8V493.2z
		 M428.7,491.7c-7.3,0-12.1,3.4-15.4,8.6v-7.1h-12.6v58.5h12.7v-32.8c0-9.7,4.2-15.1,12.5-15.1c2.6,0,5.3,0.4,8,1.5l3.9-12
		C434.9,492.2,431.2,491.7,428.7,491.7L428.7,491.7z M264.5,497.9c-6.1-4-14.6-6.1-23.9-6.1c-14.8,0-24.4,7.1-24.4,18.7
		c0,9.5,7.1,15.4,20.2,17.3l6,0.9c7,1,10.3,2.8,10.3,6.1c0,4.5-4.7,7.1-13.3,7.1c-8.8,0-15.2-2.8-19.5-6.1l-6,9.9
		c7,5.1,15.8,7.6,25.3,7.6c16.9,0,26.7-8,26.7-19.1c0-10.3-7.7-15.7-20.5-17.5l-6-0.9c-5.5-0.7-9.9-1.8-9.9-5.8
		c0-4.3,4.2-6.9,11.1-6.9c7.5,0,14.7,2.8,18.2,5L264.5,497.9z M605.6,491.7c-7.3,0-12.1,3.4-15.4,8.6v-7.1h-12.6v58.5h12.7v-32.8
		c0-9.7,4.2-15.1,12.5-15.1c2.6,0,5.3,0.4,8,1.5l3.9-12C611.9,492.2,608.2,491.7,605.6,491.7L605.6,491.7z M441.5,522.5
		c0,17.8,12.4,30.7,31.2,30.7c8.8,0,14.7-2,21.1-7l-6.1-10.3c-4.8,3.4-9.8,5.3-15.3,5.3c-10.2-0.1-17.6-7.5-17.6-18.7
		c0-11.3,7.5-18.6,17.6-18.7c5.5,0,10.5,1.8,15.3,5.3l6.1-10.3c-6.4-5-12.2-7-21.1-7C453.9,491.7,441.5,504.7,441.5,522.5
		L441.5,522.5z M560.8,522.5v-29.3h-12.7v7.1c-4-5.3-10.2-8.6-18.5-8.6c-16.4,0-29.3,12.9-29.3,30.7c0,17.9,12.9,30.7,29.3,30.7
		c8.3,0,14.5-3.3,18.5-8.6v7.1h12.7V522.5z M513.4,522.5c0-10.3,6.7-18.7,17.8-18.7c10.5,0,17.6,8.1,17.6,18.7
		c0,10.7-7.1,18.7-17.6,18.7C520.1,541.2,513.4,532.8,513.4,522.5L513.4,522.5z M359.7,491.7c-17.1,0-29.1,12.5-29.1,30.7
		c0,18.6,12.5,30.7,30,30.7c8.8,0,16.9-2.2,24-8.2l-6.2-9.4c-4.9,3.9-11.1,6.1-17,6.1c-8.2,0-15.7-3.8-17.5-14.3h43.5
		c0.1-1.6,0.2-3.2,0.2-4.9C387.4,504.2,376.1,491.7,359.7,491.7L359.7,491.7z M359.5,503.1c8.2,0,13.5,5.1,14.8,14.2h-30.4
		C345.3,508.9,350.4,503.1,359.5,503.1L359.5,503.1z M679,522.5v-52.8h-12.7v30.6c-4-5.3-10.2-8.6-18.5-8.6
		c-16.4,0-29.3,12.9-29.3,30.7c0,17.9,12.9,30.7,29.3,30.7c8.3,0,14.5-3.3,18.5-8.6v7.1H679V522.5z M631.6,522.5
		c0-10.3,6.7-18.7,17.8-18.7c10.5,0,17.6,8.1,17.6,18.7c0,10.7-7.1,18.7-17.6,18.7C638.3,541.2,631.6,532.8,631.6,522.5L631.6,522.5
		z M201.5,522.5v-29.3h-12.7v7.1c-4-5.3-10.2-8.6-18.5-8.6c-16.4,0-29.3,12.9-29.3,30.7c0,17.9,12.9,30.7,29.3,30.7
		c8.3,0,14.5-3.3,18.5-8.6v7.1h12.7V522.5z M154.1,522.5c0-10.3,6.7-18.7,17.8-18.7c10.5,0,17.6,8.1,17.6,18.7
		c0,10.7-7.1,18.7-17.6,18.7C160.9,541.2,154.1,532.8,154.1,522.5z M700.2,543.2c0.8,0,1.6,0.2,2.3,0.5c0.7,0.3,1.3,0.7,1.9,1.2
		s1,1.2,1.3,1.8c0.3,0.7,0.5,1.5,0.5,2.3s-0.2,1.5-0.5,2.2c-0.3,0.7-0.7,1.3-1.3,1.8c-0.5,0.5-1.2,0.9-1.9,1.2
		c-0.7,0.3-1.5,0.5-2.3,0.5c-0.8,0-1.6-0.2-2.3-0.5c-0.7-0.3-1.4-0.7-1.9-1.2c-0.5-0.5-1-1.1-1.3-1.8c-0.3-0.7-0.5-1.5-0.5-2.2
		c0-0.8,0.2-1.5,0.5-2.3s0.7-1.3,1.3-1.8c0.5-0.5,1.2-0.9,1.9-1.2C698.6,543.4,699.4,543.2,700.2,543.2z M700.2,553.6
		c0.6,0,1.2-0.1,1.8-0.4s1-0.6,1.4-1c0.4-0.4,0.7-0.9,1-1.4s0.3-1.1,0.3-1.8s-0.1-1.2-0.3-1.8c-0.2-0.5-0.6-1-1-1.4
		c-0.4-0.4-0.9-0.7-1.4-1c-0.5-0.2-1.1-0.3-1.8-0.3c-0.6,0-1.2,0.1-1.8,0.3s-1,0.5-1.4,1c-0.4,0.4-0.7,0.9-1,1.4
		c-0.2,0.5-0.3,1.1-0.3,1.8s0.1,1.2,0.3,1.8c0.2,0.5,0.5,1,1,1.4s0.9,0.7,1.4,1C699,553.5,699.6,553.6,700.2,553.6z M700.5,546.3
		c0.7,0,1.2,0.2,1.6,0.5s0.6,0.7,0.6,1.3c0,0.5-0.2,0.8-0.4,1.1c-0.3,0.3-0.7,0.5-1.3,0.5l1.8,2h-1.4l-1.6-2h-0.5v2H698v-5.4
		L700.5,546.3L700.5,546.3z M699.2,547.4v1.4h1.3c0.3,0,0.6-0.1,0.7-0.2c0.2-0.1,0.3-0.3,0.3-0.5c0-0.2-0.1-0.4-0.3-0.5
		s-0.4-0.2-0.7-0.2L699.2,547.4L699.2,547.4z M692.3,357v-7.1h2.9v-1.5h-7.3v1.5h2.9v7.1H692.3z M706.5,357v-8.6h-2.2l-2.6,5.9
		l-2.6-5.9h-2.2v8.6h1.6v-6.5l2.4,5.6h1.6l2.4-5.6v6.5H706.5z M337.1,399.6c1.7,1.5,3.5,3,5.3,4.4c-34.9,23.3-76.9,36.8-122,36.8
		C98.7,440.9,0,342.2,0,220.4S98.7,0,220.4,0c45.1,0,87.1,13.6,122,36.8c-1.8,1.5-3.6,2.9-5.3,4.4c-51.9,45.2-81.7,110.5-81.7,179.2
		C255.4,289.1,285.2,354.5,337.1,399.6z M492.9,0c-45.1,0-87.1,13.6-122,36.8c1.8,1.5,3.6,2.9,5.3,4.4
		c51.9,45.2,81.7,110.5,81.7,179.2c0,68.7-29.8,134-81.7,179.2c-1.7,1.5-3.5,3-5.3,4.4c34.9,23.3,76.9,36.8,122,36.8
		c121.8,0,220.4-98.7,220.4-220.4C713.4,98.7,614.7,0,492.9,0z M356.7,47.2c-2.8,2.2-5.6,4.5-8.3,6.9
		c-46.5,40.4-75.9,99.9-75.9,166.3c0,66.4,29.4,125.9,75.9,166.3c2.7,2.4,5.5,4.7,8.3,6.9c2.8-2.2,5.6-4.5,8.3-6.9
		c46.5-40.4,75.9-99.9,75.9-166.3c0-66.4-29.4-125.9-75.9-166.3C362.3,51.8,359.5,49.4,356.7,47.2"/>
</g>
</svg>
