<?xml version="1.0" encoding="utf-8"?>
<!-- Generator: Adobe Illustrator 26.5.0, SVG Export Plug-In . SVG Version: 6.00 Build 0)  -->
<svg version="1.1" id="PayPal" xmlns="http://www.w3.org/2000/svg" xmlns:xlink="http://www.w3.org/1999/xlink" x="0px" y="0px"
	 viewBox="0 0 992.5 249" style="enable-background:new 0 0 992.5 249;" xml:space="preserve">
<style type="text/css">
	.st0{fill:#FFFFFF;}
	.st1{opacity:0.68;fill:#FFFFFF;enable-background:new    ;}
	.st2{opacity:0.7;fill:#FFFFFF;enable-background:new    ;}
</style>
<g>
	<g>
		<path class="st0" d="M762.8,59.1h-54.9c-3.8,0-7,2.7-7.5,6.4l-22.2,140.9c-0.4,2.8,1.7,5.3,4.5,5.3h28.2c2.6,0,4.9-1.9,5.3-4.5
			l6.3-39.9c0.6-3.7,3.8-6.4,7.5-6.4h17.4c36.2,0,57.1-17.5,62.5-52.2c2.5-15.2,0.1-27.1-7-35.5C795,64,781.2,59.1,762.8,59.1z
			 M769.1,110.6c-3,19.7-18.1,19.7-32.6,19.7h-8.3l5.8-36.8c0.3-2.2,2.3-3.9,4.5-3.9h3.8c9.9,0,19.3,0,24.1,5.6
			C769.4,98.7,770.2,103.7,769.1,110.6z"/>
		<path class="st0" d="M371,59.1h-54.9c-3.8,0-7,2.7-7.5,6.4l-22.2,140.9c-0.4,2.8,1.7,5.3,4.5,5.3h26.2c3.8,0,7-2.7,7.5-6.4l6-38
			c0.6-3.7,3.8-6.4,7.5-6.4h17.4c36.2,0,57.1-17.5,62.5-52.2c2.5-15.2,0.1-27.1-7-35.5C403.2,64,389.4,59.1,371,59.1z M377.4,110.6
			c-3,19.7-18.1,19.7-32.6,19.7h-8.3l5.8-36.8c0.3-2.2,2.3-3.9,4.5-3.9h3.8c9.9,0,19.3,0,24.1,5.6
			C377.6,98.7,378.4,103.7,377.4,110.6z"/>
		<path class="st0" d="M535.2,110h-26.3c-2.2,0-4.2,1.6-4.5,3.9l-1.2,7.4l-1.8-2.7c-5.7-8.3-18.4-11-31.1-11
			c-29.1,0-53.9,22-58.7,52.9c-2.5,15.4,1.1,30.1,9.8,40.4c8,9.4,19.5,13.4,33.1,13.4c23.4,0,36.4-15,36.4-15l-1.2,7.3
			c-0.4,2.8,1.7,5.3,4.5,5.3H518c3.8,0,7-2.7,7.5-6.4l14.2-90C540.2,112.5,538,110,535.2,110z M498.5,161.2
			c-2.5,15-14.5,25.1-29.7,25.1c-7.6,0-13.7-2.5-17.7-7.1c-3.9-4.6-5.4-11.2-4.1-18.5c2.4-14.9,14.5-25.3,29.5-25.3
			c7.5,0,13.5,2.5,17.5,7.2C498.1,147.3,499.7,153.9,498.5,161.2z"/>
		<path class="st0" d="M927,110h-26.3c-2.2,0-4.2,1.6-4.5,3.9l-1.2,7.4l-1.8-2.7c-5.7-8.3-18.4-11-31.1-11
			c-29.1,0-53.9,22-58.7,52.9c-2.5,15.4,1.1,30.1,9.8,40.4c8,9.4,19.5,13.4,33.1,13.4c23.4,0,36.4-15,36.4-15l-1.2,7.3
			c-0.4,2.8,1.7,5.3,4.5,5.3h23.7c3.8,0,6.9-2.7,7.5-6.4l14.2-90C931.9,112.5,929.8,110,927,110z M890.3,161.2
			c-2.5,15-14.5,25.1-29.7,25.1c-7.6,0-13.7-2.5-17.7-7.1c-3.9-4.6-5.4-11.2-4.1-18.5c2.4-14.9,14.5-25.3,29.5-25.3
			c7.5,0,13.5,2.5,17.5,7.2C889.9,147.3,891.5,153.9,890.3,161.2z"/>
		<path class="st0" d="M675.3,110h-26.4c-2.5,0-4.9,1.3-6.3,3.4L606.1,167l-15.5-51.6c-1-3.2-3.9-5.4-7.3-5.4h-26
			c-3.1,0-5.3,3.1-4.3,6.1l29.1,85.5l-27.4,38.6c-2.2,3,0,7.2,3.7,7.2h26.4c2.5,0,4.8-1.2,6.3-3.3L679,117.2
			C681.2,114.1,679,110,675.3,110z"/>
		<path class="st0" d="M958,63l-22.5,143.4c-0.4,2.8,1.7,5.3,4.5,5.3h22.7c3.8,0,6.9-2.7,7.5-6.4l22.2-140.9
			c0.4-2.8-1.7-5.3-4.5-5.3h-25.4C960.2,59.1,958.3,60.8,958,63z"/>
	</g>
	<g>
		<path class="st1" d="M190.2,63.3c3-19.4,0-32.5-10.5-44.5C168.2,5.6,147.3,0,120.7,0H43.3c-5.4,0-10.1,4-10.9,9.4L0.1,213.7
			c-0.6,4,2.5,7.7,6.6,7.7h47.8l-3.3,20.9c-0.6,3.5,2.2,6.7,5.7,6.7h40.3c4.8,0,8.8-3.5,9.6-8.2l0.4-2l7.6-48.1l0.5-2.7
			c0.7-4.7,4.8-8.2,9.6-8.2h6c39,0,69.6-15.9,78.5-61.7c3.7-19.2,1.8-35.1-8.1-46.4C198.2,68.4,194.5,65.6,190.2,63.3L190.2,63.3"/>
		<path class="st2" d="M190.2,63.3c3-19.4,0-32.5-10.5-44.5C168.2,5.6,147.3,0,120.7,0H43.3c-5.4,0-10.1,4-10.9,9.4L0.1,213.7
			c-0.6,4,2.5,7.7,6.6,7.7h47.8l12-76.1l-0.4,2.4c0.9-5.4,5.4-9.4,10.9-9.4h22.7c44.6,0,79.5-18.1,89.7-70.5
			C189.7,66.2,190,64.8,190.2,63.3"/>
		<path class="st0" d="M79.3,63.5c0.5-3.2,2.6-5.9,5.4-7.2c1.3-0.6,2.7-1,4.2-1h60.7c7.2,0,13.9,0.5,20,1.5c1.8,0.3,3.5,0.6,5.1,1
			c1.7,0.4,3.3,0.8,4.8,1.2c0.8,0.2,1.5,0.5,2.3,0.7c3,1,5.8,2.2,8.4,3.5c3-19.4,0-32.5-10.5-44.5C168.2,5.6,147.3,0,120.7,0H43.3
			c-5.4,0-10.1,4-10.9,9.4L0.1,213.7c-0.6,4,2.5,7.7,6.6,7.7h47.8l12-76.1L79.3,63.5z"/>
	</g>
</g>
</svg>
