<?xml version="1.0" encoding="utf-8"?>
<!-- Generator: Adobe Illustrator 27.0.0, SVG Export Plug-In . SVG Version: 6.00 Build 0)  -->
<svg version="1.1" id="Coopel_Pay_Blanco" xmlns="http://www.w3.org/2000/svg" xmlns:xlink="http://www.w3.org/1999/xlink" x="0px"
	 y="0px" viewBox="0 0 927 361" style="enable-background:new 0 0 927 361;" xml:space="preserve">
<style type="text/css">
	.st0{fill:#FFFFFF;}
	.st1{fill:#195FA7;}
</style>
<g>
	<g>
		<g>
			<g>
				<g>
					<polygon class="st0" points="911.9,175.3 911.8,175.4 855.1,274.3 927,187.9 					"/>
				</g>
				<g>
					<path class="st0" d="M665.3,21.3l198.5,113.9L712.2,9c-16.5-13.8-41.1-11.5-54.9,5l-2.4,2.9C658.6,18,662,19.4,665.3,21.3z"/>
				</g>
				<g>
					<path class="st0" d="M599.3,58.2c0.8,0,1.5,0,2.2,0c-0.4,0-0.8-0.1-1.2-0.1C600,58.2,599.7,58.2,599.3,58.2z"/>
					<path class="st0" d="M617.8,50.4L836.1,132L659.9,30.8c-18.7-10.7-42.5-4.3-53.2,14.4l-1.3,2.3C609.6,48,613.8,48.9,617.8,50.4
						z"/>
					<polygon class="st0" points="902.3,170 886.6,160.9 886.1,162.3 847.6,265.3 					"/>
				</g>
				<g>
					<path class="st0" d="M563.3,98.8c0.8,0,1.7,0,2.5,0.1c-0.7,0-1.3-0.1-2-0.1C563.6,98.8,563.4,98.8,563.3,98.8z"/>
					<path class="st0" d="M563.8,87.8c3,0,5.9,0.3,8.9,0.8l223.9,40.2L614,60.6c-20.2-7.5-42.6,2.7-50.1,22.9l-1.6,4.4
						C562.8,87.9,563.3,87.8,563.8,87.8z"/>
					<polygon class="st0" points="856.5,151.2 836.1,264.9 875.9,158.5 					"/>
				</g>
				<g>
					<polygon class="st0" points="825.7,145.2 825.7,146.6 825.7,261.2 845.8,148.8 					"/>
					<path class="st0" d="M535.5,135.7h237.3L570.7,99.4c-21.2-3.8-41.4,10.3-45.2,31.4l-1.1,6.1C528,136.2,531.7,135.7,535.5,135.7
						z"/>
				</g>
			</g>
		</g>
	</g>
	<g>
		<g>
			<g>
				<path class="st0" d="M535.4,146.2c-21.5,0-38.9,17.4-38.9,38.9V361h279.3c21.5,0,38.9-17.4,38.9-38.9V146.2H535.4z"/>
				<path class="st0" d="M535.4,146.2c-21.5,0-38.9,17.4-38.9,38.9V361h279.3c21.5,0,38.9-17.4,38.9-38.9V146.2H535.4z"/>
			</g>
		</g>
		<g>
			<path class="st0" d="M135.2,224.8c-21.3,0-39,15.4-39,37.7c0,22.4,17.7,37.7,39,37.7s39-15.4,39-37.7
				C174.2,240.1,156.6,224.8,135.2,224.8z M135.4,284.8c-0.1,0-0.1,0-0.2,0c-0.1,0-0.1,0-0.2,0c-13,0-22-10-22-22.2
				c0-12.2,9-22.2,22-22.2c0.1,0,0.1,0,0.2,0c0.1,0,0.1,0,0.2,0c13,0,22,10,22,22.2C157.4,274.7,148.5,284.8,135.4,284.8z"/>
			<path class="st0" d="M79.7,271.5c-6.4,7.7-16.1,12.6-27,12.6c-19.4,0-35.1-15.7-35.1-35.1c0-19.4,15.7-35.1,35.1-35.1
				c10.7,0,20.3,4.8,26.7,12.4l12.2-10.7c-9.6-10.9-23.7-17.9-39.5-17.9C23.4,197.7,0,220.6,0,249s23.4,51.3,52.2,51.3
				c15.9,0,30.2-7,39.7-18.1L79.7,271.5z"/>
			<g>
				<path class="st0" d="M304.1,224.7c-21.3,0-39.1,15.5-39.1,37.8c0,22.3,0,68.5,0,68.5h16.8v-37.1c6.3,4.1,14,6.4,22.2,6.4
					c21.3,0,39-15.4,39.1-37.8C343.1,240.1,325.4,224.7,304.1,224.7z M304.3,284.7c-0.1,0-0.1,0-0.2,0s-0.1,0-0.2,0
					c-13,0-22-10.1-22-22.3c0-12.2,9-22.3,22-22.3c0.1,0,0.1,0,0.2,0s0.1,0,0.2,0c13,0,22,10.1,22,22.3
					C326.3,274.7,317.3,284.7,304.3,284.7z"/>
				<path class="st0" d="M219.6,224.7c-21.4,0-39.1,15.5-39.1,37.8c0,22.3,0,68.5,0,68.5h16.8v-37.1c6.3,4.1,14,6.4,22.2,6.4
					c21.3,0,39-15.4,39.1-37.8C258.7,240.1,241,224.7,219.6,224.7z M219.8,284.7c-0.1,0-0.1,0-0.2,0s-0.1,0-0.2,0
					c-13,0-22-10.1-22-22.3c0-12.2,9-22.3,22-22.3c0.1,0,0.1,0,0.2,0s0.1,0,0.2,0c13,0,22,10.1,22,22.3
					C241.8,274.7,232.9,284.7,219.8,284.7z"/>
				<path class="st0" d="M383.5,224.7c-19.8,0-36.2,15.4-36.2,37.8c0,22.4,16.4,37.8,36.2,37.8c11.9,0,24.5-3.7,31.1-13l-9.9-9.9
					c-4.3,5-10.9,8.1-19.1,8.1c-13,0-21.7-7.6-21.7-18.5h55.6c0.2-1.5,0.2-2.9,0.2-4.5C419.7,240.1,405.6,224.7,383.5,224.7z
					 M364.2,255c0-6.7,8.7-15.9,20.3-15.9c7.7,0,17.8,5.8,17.8,15.9H364.2z"/>
				<path class="st0" d="M442.9,262.5v-63.7H426v63.7l0,0c0,22.2,17.3,37.5,38.4,37.8v-15.5C451.6,284.5,442.9,274.5,442.9,262.5z"
					/>
			</g>
		</g>
		<g>
			<g>
				<path class="st1" d="M557.3,252.7h-14v-37.2h14c9.7,0,19.5,6.4,19.5,18.6C576.8,246.3,567,252.7,557.3,252.7 M557.3,198.3h-14
					v-0.1h-17.3v102h17.3v-30.4h14c20.9,0,36.7-15.4,36.7-35.8C594,213.7,578.2,198.3,557.3,198.3"/>
				<path class="st1" d="M640.1,284.7c-0.1,0-0.1,0-0.2,0c-0.1,0-0.1,0-0.2,0c-13.1,0-22.1-10.1-22.1-22.3c0-12.2,9-22.3,22.1-22.3
					c0.1,0,0.1,0,0.2,0c0.1,0,0.1,0,0.2,0c13.1,0,22.1,10.1,22.1,22.3C662.2,274.6,653.2,284.7,640.1,284.7 M639.9,224.5
					c-21.4,0-39.1,15.4-39.1,37.9c0,22.5,17.8,37.9,39.1,37.9c8.2,0,15.9-2.3,22.3-6.4v5.2h16.9v-36.7
					C679.1,240.1,661.3,224.5,639.9,224.5"/>
				<path class="st1" d="M745.4,224.5v39.8c0,9.8-8,17.7-17.7,17.7c-9.8,0-17.7-8-17.7-17.7v-39.8h-17v39.8
					c0,19.2,15.6,34.8,34.8,34.8c6.8,0,13-2,18.4-5.3c-2.9,9.8-12,16.9-22.7,16.9c-8.6,0-16.2-4.7-20.2-11.6h-17
					c5.1,15.8,19.9,27.3,37.3,27.3c21.5,0,39.1-17.6,39.1-39.1v-62.7H745.4z"/>
			</g>
			<g>
				<g>
					<path class="st1" d="M784.2,293.4c0,3.9-3.1,7-7.1,7c-4,0-7.1-3.1-7.1-7c0-3.8,3.2-6.9,7.1-6.9
						C781.1,286.5,784.2,289.5,784.2,293.4z M771.8,293.4c0,3.1,2.3,5.5,5.4,5.5c3,0,5.3-2.4,5.3-5.5c0-3.1-2.2-5.6-5.3-5.6
						C774.1,287.9,771.8,290.3,771.8,293.4z M776,297h-1.6v-6.9c0.6-0.1,1.5-0.2,2.7-0.2c1.3,0,1.9,0.2,2.4,0.5
						c0.4,0.3,0.7,0.8,0.7,1.5c0,0.8-0.6,1.4-1.4,1.6v0.1c0.7,0.2,1.1,0.8,1.3,1.7c0.2,1,0.3,1.5,0.5,1.7h-1.7
						c-0.2-0.3-0.3-0.9-0.6-1.7c-0.1-0.8-0.5-1.1-1.4-1.1H776V297L776,297z M776.1,293.1h0.8c0.9,0,1.6-0.3,1.6-1c0-0.6-0.5-1-1.5-1
						c-0.4,0-0.7,0-0.9,0.1L776.1,293.1L776.1,293.1z"/>
				</g>
			</g>
		</g>
	</g>
</g>
</svg>
