<?xml version="1.0" encoding="utf-8"?>
<!-- Generator: Adobe Illustrator 26.5.0, SVG Export Plug-In . SVG Version: 6.00 Build 0)  -->
<svg version="1.1" id="Capa_13" xmlns="http://www.w3.org/2000/svg" xmlns:xlink="http://www.w3.org/1999/xlink" x="0px" y="0px"
	 viewBox="0 0 1028 332" style="enable-background:new 0 0 1028 332;" xml:space="preserve">
<style type="text/css">
	.st0{fill:#FFFFFF;}
</style>
<g id="g182-8-4" transform="matrix(0.35277777,0,0,-0.35277777,81.584519,26.518975)">
	<path id="path184-3-9" class="st0" d="M1211.7,58.3l-194.7-910H781.5l194.7,910H1211.7z M2202.3-529.2l124,341.6l71.3-341.6H2202.3
		z M2465.2-851.7h217.6l-189.9,910h-201.1c-45.2,0-83.4-26.2-100.2-66.6l-353.3-843.4h247.1l49.2,135.8h302.1L2465.2-851.7z
		 M1850.4-554.7c1.1,240.5-332.1,253.7-329.8,360.8c0.8,32.9,31.8,67.6,99.8,76.5c33.8,4.3,126.7,7.7,232.2-40.7l41.2,193.1
		c-56.5,20.4-129.6,40.3-220.2,40.3c-232.6,0-396.5-123.7-397.8-301c-1.5-130.9,116.9-204.1,206.2-247.7
		c91.6-44.5,122.3-73.1,122.1-113.1c-0.7-61-73.3-87.9-140.9-88.8c-118.4-2-187.2,31.8-241.9,57.2l-42.7-199.4
		c55-25.3,156.5-47,261.9-48.3C1687.9-866,1849.7-743.7,1850.4-554.7 M875.3,58.3l-381.5-910h-249L57.1-125.4
		c-11.5,44.8-21.4,61-56,80c-56.5,30.8-150,59.5-232.3,77.5l5.7,26.2H175c51.1,0,97-33.8,108.6-92.8l99.2-526.7L627.7,58.4
		L875.3,58.3"/>
</g>
</svg>
