<?xml version="1.0" encoding="utf-8"?>
<!-- Generator: Adobe Illustrator 26.5.0, SVG Export Plug-In . SVG Version: 6.00 Build 0)  -->
<svg version="1.1" id="PayNet" xmlns="http://www.w3.org/2000/svg" xmlns:xlink="http://www.w3.org/1999/xlink" x="0px" y="0px"
	 viewBox="0 0 932.2 265.6" style="enable-background:new 0 0 932.2 265.6;" xml:space="preserve">
<style type="text/css">
	.st0{fill:#FFFFFF;}
	.st1{fill:url(#SVGID_1_);}
	.st2{fill:url(#SVGID_00000050661554091877648700000010745634990804183461_);}
	.st3{fill:url(#SVGID_00000116919756312784173060000005260216245507802810_);}
</style>
<g>
	<path class="st0" d="M915.5,243.7l8.8-18.3h7.9l-18.4,38.2c-2.6,0-5.6,0.7-8.4,1.7h-0.3l6.3-13.1l-11.6-26.7h7.7L915.5,243.7z"/>
	<path class="st0" d="M655.6,257c-0.7,1.2-1.4,2.3-2.1,3.3c-0.7,1-1.5,1.8-2.3,2.4c-0.8,0.7-1.8,1.2-2.9,1.5
		c-1.1,0.3-2.3,0.5-3.8,0.5c-1.5,0-2.9-0.2-4-0.5l1.2-6.1c0.7,0.3,1.5,0.4,2.3,0.4c1.2,0,2-0.3,2.7-0.8c0.6-0.5,1.2-1.3,1.8-2.3
		l1.2-1.9l-5.7-23.1h8.6l2.5,15.2h0.1l8.1-15.2h8.3L655.6,257L655.6,257z"/>
	<path class="st0" d="M808.5,225.4v3.1c1.8-1.4,3.4-2.4,4.8-2.9c1.4-0.5,2.9-0.8,4.4-0.8c3.1,0,5.7,1,7.9,3c1.8,1.7,2.7,4.2,2.7,7.6
		v19.2h-7.9v-12.6c0-3.5-0.2-5.7-0.5-6.9c-0.3-1.1-0.9-2-1.7-2.6c-0.8-0.6-1.8-0.9-3-0.9c-1.6,0-2.9,0.5-4,1.5
		c-1.1,1-1.9,2.3-2.3,4.1c-0.2,0.9-0.3,2.9-0.3,5.9v11.6h-7.9v-29.1L808.5,225.4L808.5,225.4z"/>
	<path class="st0" d="M890.3,225.4v3.3c-1.4-1.3-2.9-2.3-4.5-3c-1.6-0.7-3.4-1-5.2-1c-4,0-7.5,1.4-10.3,4.3c-2.8,2.9-4.2,6.5-4.2,11
		c0,4.3,1.5,7.9,4.4,10.8s6.4,4.4,10.4,4.4c1.8,0,3.4-0.3,5-0.9c1.5-0.6,3.1-1.6,4.6-2.9v3.2h7.9v-29.1l0,0H890.3z M888.2,246
		c-1.6,1.6-3.6,2.4-6,2.4c-2.3,0-4.3-0.8-5.9-2.4c-1.6-1.6-2.4-3.6-2.4-6.1c0-2.5,0.8-4.5,2.4-6c1.6-1.6,3.6-2.4,5.9-2.4
		c2.4,0,4.5,0.8,6.1,2.3c1.6,1.5,2.4,3.5,2.4,6C890.6,242.4,889.8,244.5,888.2,246z"/>
	<path class="st0" d="M759.7,229c-2.8-2.9-6.2-4.3-10.3-4.3c-1.9,0-3.6,0.3-5.2,1s-3.1,1.6-4.5,3v-3.3h-7.9v40.2
		c2.5-1.5,5.2-2.5,7.9-2.7v-11.7c1.5,1.4,3,2.4,4.6,3c1.5,0.6,3.2,0.9,5,0.9c4,0,7.4-1.5,10.4-4.4s4.4-6.5,4.4-10.8
		C764,235.5,762.5,231.9,759.7,229z M753.7,246c-1.6,1.6-3.6,2.4-5.9,2.4c-2.4,0-4.4-0.8-6-2.4c-1.6-1.6-2.4-3.6-2.4-6.1
		c0-2.5,0.8-4.5,2.4-6c1.6-1.5,3.6-2.3,6-2.3c2.4,0,4.4,0.8,6,2.4c1.6,1.6,2.4,3.6,2.4,6C756.1,242.4,755.3,244.4,753.7,246z"/>
	<path class="st0" d="M860,229c-2.8-2.9-6.2-4.3-10.3-4.3c-1.9,0-3.6,0.3-5.2,1s-3.1,1.6-4.5,3v-3.3h-7.9v40.2
		c2.5-1.5,5.2-2.5,7.9-2.6v-11.7c1.5,1.4,3,2.4,4.6,3c1.5,0.6,3.2,0.9,5,0.9c4,0,7.4-1.5,10.4-4.4s4.4-6.5,4.4-10.8
		C864.3,235.5,862.9,231.9,860,229z M854,246c-1.6,1.6-3.6,2.4-5.9,2.4c-2.4,0-4.4-0.8-6-2.4c-1.6-1.6-2.4-3.6-2.4-6.1
		c0-2.5,0.8-4.5,2.4-6c1.6-1.5,3.6-2.3,6-2.3c2.4,0,4.4,0.8,6,2.4s2.4,3.6,2.4,6C856.4,242.4,855.6,244.4,854,246z"/>
	<path class="st0" d="M639.4,235.7c-0.5-1.2-1.1-2.3-2-3.2s-1.9-1.6-3.2-2.1c-1.3-0.5-2.7-0.8-4.2-0.8s-3,0.3-4.5,1
		c-1.4,0.6-2.5,1.5-3.4,2.6h-0.1l2.9-15h-7.9l-6.5,35.2h7.3l0.6-3.3h0.1c0.8,1.2,1.9,2.2,3.3,2.8s3.1,1,4.8,1c2,0,3.8-0.4,5.4-1.1
		c1.6-0.8,3.1-1.8,4.3-3.1s2.2-2.8,2.8-4.6c0.7-1.8,1-3.6,1-5.6C640.1,238.3,639.9,236.9,639.4,235.7z M631.8,243.6
		c-0.3,0.9-0.8,1.7-1.4,2.4c-0.6,0.7-1.3,1.2-2.1,1.6c-0.8,0.4-1.8,0.6-2.8,0.6c-1.6,0-2.9-0.5-3.8-1.4c-0.9-0.9-1.4-2.1-1.4-3.5
		c0-1,0.2-1.9,0.5-2.8s0.8-1.7,1.5-2.4c0.6-0.7,1.3-1.2,2.2-1.6c0.8-0.4,1.8-0.6,2.8-0.6c1.7,0,2.9,0.5,3.8,1.4
		c0.8,1,1.3,2.1,1.3,3.5C632.3,241.7,632.1,242.7,631.8,243.6z"/>
	<path class="st0" d="M703.9,209.3c-13.7,0-24.8,10.5-24.8,23.5s11.1,23.5,24.8,23.5s24.8-10.5,24.8-23.5S717.6,209.3,703.9,209.3z
		 M719.6,232.4c0,8-6.9,14.5-15.3,14.5c-8.5,0-15.3-6.5-15.3-14.5c0-8,6.8-14.5,15.3-14.5h15.4L719.6,232.4L719.6,232.4z"/>
	<path class="st0" d="M798.2,240.8c0-4.8-1.5-8.7-4.6-11.7c-3.1-2.9-7-4.4-11.9-4.4c-4.6,0-8.4,1.5-11.5,4.4c-3,2.9-4.6,6.6-4.6,11
		c0,4.3,1.5,7.9,4.6,10.8c3.1,2.9,7,4.3,11.9,4.3c3.1,0,5.8-0.5,8.1-1.5c2.3-1,4.2-2.6,5.9-4.7l-6.6-2.8c-2.1,1.9-4.7,2.9-7.6,2.9
		c-2.5,0-4.5-0.6-6.1-1.8c-1.6-1.2-2.6-2.9-2.9-5h25.3L798.2,240.8z M773.2,236.4c0.9-1.8,1.8-3.1,2.9-3.8c1.7-1.1,3.6-1.7,5.8-1.7
		c2,0,3.8,0.5,5.3,1.5c1.5,1,2.6,2.3,3.1,4H773.2z"/>
	<path class="st0" d="M225.4,225.1l0-170.3h34.1c0,0,0,7.9,0,10.6c12.9-11.2,33.1-13.9,49.3-10.4c10.9,2.4,20.7,8.5,27,17.4
		c9.2,13,10.8,29.6,10.8,44.4c0,15.5-2.5,31.6-11.6,44.2c-7,9.7-18.2,16.2-30.5,18.8c-5.5,1.1-11.2,1.6-16.9,1.6
		c-9.2,0-18.5-1.4-26.8-5.1l-0.2-0.1l0,37.3h0v0.4C250.2,214.5,235.2,218.6,225.4,225.1L225.4,225.1z M499.1,223.7l26.2-58.3
		L476.9,54.8h37.3l28.9,70.1l27.5-70.1H605l-1.4,3.6c-6.2,15.8-12.6,32.1-19,48.5l-5.9,15.1c-6.1,15.7-40.2,94.7-40.2,94.7
		c-10.4-0.1-27,3.1-38.3,6.9L499.1,223.7L499.1,223.7z M767.5,127.3c1.1,8.9,4.1,18.2,13.7,23.3c6.9,3.7,15.1,4.4,22.9,4.4
		c12.8,0,25.5-2.8,37.3-7.6l2.8-1.1c0,0,0,16.2,0,23.2c-16.8,10.5-38.2,13.3-57.8,11.4c-13.4-1.3-26.8-5.4-36.9-14.4
		c-9.4-8.3-14.8-20.4-16.9-32.2c-1.5-8.6-1.7-17.2-0.9-26.1c1.5-16.9,8.6-33.6,23.8-44c13.8-9.4,32-11.8,48.6-9.7
		c13.9,1.8,27.3,8.1,35,19.8c7.8,11.8,9.6,26.5,9.6,40v12.9L767.5,127.3L767.5,127.3z M901.9,81.5c0,20.3-0.1,40.6,0,60.9
		c0,3.5,0.5,7.3,3.6,9.5c3.2,2.3,7.7,2.4,11.4,2.4c4.5,0,9-0.5,13.2-1.8l2.2-0.6l0,23.2c-12.4,6.2-27.6,6.9-40.7,4.2
		c-10.2-2.2-19.3-8.2-22.7-19c-1.3-4.2-1.8-8.7-1.8-13.1l0-65.7h-16.9l0-26.8h16.9l0-27.2h34.8l0,27.2H931l0,26.8L901.9,81.5
		L901.9,81.5z M471,179.4h-29.6l-2.5-9.5c-0.3,0.3-0.7,0.6-1,0.8c-10,7.7-23.5,10.4-36,9.9c-10.4-0.4-20.8-3.6-29-9.8
		c-13-9.9-18.8-26.7-19.7-42.6c-1.1-17.8,0.3-36.2,11-51.2c6.2-8.8,15.8-15.3,26.7-18.3c6.3-1.8,13-2.5,19.5-2.4
		c9,0,18.1,1.5,26.2,5.3v-6.8H471L471,179.4z M645.8,179.3h-35.3l0-124.5h34.1c0,0,0,8.3,0,11.1c0.2-0.1,0.3-0.2,0.5-0.3
		c15.5-10.2,35.2-14.4,53.3-11c8.4,1.6,16.5,5.8,21,13.2c3.7,6.2,4.8,13.7,4.8,20.7l0,90.7h-35.6c0-27.4,0.1-56.4,0-83.8
		c0-4-0.3-8.3-3.9-11.1c-2.6-2-6.1-2.6-9.3-2.9c-10-0.9-20.1,1.7-29.5,5.3L645.8,179.3L645.8,179.3z M283.7,81.3
		c-8,0-16.2,1.5-22.9,5.5l0,63.8c7.4,4.6,17.1,5.9,26.1,5.1c7.6-0.7,15-4,18.9-11.3c4.8-8.8,4.6-19.2,4.6-28.9
		c0-7.2-0.5-14.4-3.2-21.2c-1.8-4.5-5-8.5-9.7-10.7C293.2,81.7,288.4,81.3,283.7,81.3z M415.4,81.7c-7.5,0-15.1,1.8-19.9,7.5
		c-5,5.9-6.3,13.7-6.8,21c-0.7,10.5-0.8,21.2,2.7,30.3c1.7,4.3,4.4,8.4,8.6,10.9c5.8,3.5,13.5,4.1,20.2,3.3
		c5.8-0.7,11.5-2.8,16.2-6.2l0.2-0.1l0-62.4c-3.8-2.4-8.5-3.2-13.2-3.8C420.7,81.8,418,81.7,415.4,81.7L415.4,81.7z M791.5,78.5
		c-8.5,0.1-16.7,4.5-20.6,12.8c-2,4.1-3,8.6-3.4,13.1h46.2c-0.1-6.8-1-14-5.2-19.3c-2.2-2.8-5.5-4.8-9-5.7
		C796.9,78.7,794.2,78.5,791.5,78.5z"/>
	
		<linearGradient id="SVGID_1_" gradientUnits="userSpaceOnUse" x1="467.6597" y1="751.2341" x2="468.3195" y2="751.2341" gradientTransform="matrix(126.9255 112.3576 112.3576 -126.9255 -143689.5938 42812.6797)">
		<stop  offset="0" style="stop-color:#000000"/>
		<stop  offset="0.4998" style="stop-color:#FFFFFF"/>
		<stop  offset="0.9977" style="stop-color:#FFFFFF"/>
	</linearGradient>
	<path class="st1" d="M154.1,79.5c-1.3,1.3-3.4,1.5-4.8,0.4C133.3,68,116.1,61.8,101,62.6c-14.7,0.8-18.1,9.3-17.6,12L79,75.4
		l-0.1-8.7l0.5-0.2C74.5,39.3,105,12.8,105,12.8c47.8-5.6,74.7,20,84.1,31.3C189.1,44.1,162.2,71.3,154.1,79.5L154.1,79.5z"/>
	
		<radialGradient id="SVGID_00000139994217607271075090000017893589340800945289_" cx="506.2896" cy="751.9763" r="0.6594" gradientTransform="matrix(-33.3685 -7.1213 -20.4463 132.7605 32369.8379 -96095.8906)" gradientUnits="userSpaceOnUse">
		<stop  offset="3.494033e-03" style="stop-color:#000000"/>
		<stop  offset="0.9988" style="stop-color:#FFFFFF"/>
	</radialGradient>
	<path style="fill:url(#SVGID_00000139994217607271075090000017893589340800945289_);" d="M27.3,102.1c-2.1-10-2.4-20.8-0.4-30.9
		c6.4-31.8,32.8-54,66.2-60c0.2,0,2.4-4.3,4.1-8.2c0.5-1.1,1.6-1.9,2.8-2c8.8-0.8,17.7-1.6,26.9-0.2c0.4,0.1,0.7,0.3,0.9,0.6
		c0.2,0.3,0.2,0.7,0.1,1.1c-1.4,3.5-3.2,7.8-3.2,7.8c5,0.6,10.1,1.5,15.2,2.9c7.8,2,15.5,5.3,22.2,9c-4-1.9-5.8-2.6-8.8-3.2
		c-34.7-7.2-66.3,9.4-70.4,37c-1.4,9.2,0.6,18.9,5,27.5c4.4-1.3,8.2-2.4,11-3.3c0.7-0.2,1.5,0,2.1,0.4c0.6,0.4,1,1.1,1,1.9
		c1.1,31.5-4.3,64.6-13.4,93.1c-26.2-17.5-51.9-41.1-72-66.7c-0.5-0.6-0.6-1.3-0.4-2c0.2-0.7,0.7-1.2,1.3-1.5
		C20.1,104.4,23.5,103.3,27.3,102.1z"/>
	
		<linearGradient id="SVGID_00000067206438865115275890000009238053721211911058_" gradientUnits="userSpaceOnUse" x1="481.0298" y1="756.4995" x2="481.6891" y2="756.4995" gradientTransform="matrix(-99.7073 -109.8812 -109.8812 99.7073 131193.7344 -22319.5918)">
		<stop  offset="1.962940e-04" style="stop-color:#000000"/>
		<stop  offset="0.4959" style="stop-color:#FFFFFF"/>
		<stop  offset="1" style="stop-color:#FFFFFF"/>
	</linearGradient>
	<path style="fill:url(#SVGID_00000067206438865115275890000009238053721211911058_);" d="M35,176.3c1.3-1.3,3.4-1.5,4.9-0.4
		C55.7,187.8,73,194,88,193.2c14.7-0.8,18.1-9.3,17.6-12l4.4-0.8l0.1,8.7l-0.5,0.2c4.9,27.1-25.6,53.7-25.6,53.7
		C36.3,248.7,9.4,223,0,211.7C0,211.7,26.8,184.5,35,176.3L35,176.3z"/>
	<path class="st0" d="M161.7,153.7c2.1,10,2.4,20.8,0.4,30.9c-6.4,31.8-32.8,54-66.2,60c-0.2,0-2.4,4.3-4.1,8.2
		c-0.5,1.1-1.6,1.9-2.8,2c-8.8,0.8-17.7,1.6-26.9,0.2c-0.4-0.1-0.7-0.3-0.9-0.6s-0.2-0.7-0.1-1c1.4-3.5,3.2-7.8,3.2-7.8
		c-5-0.6-10.1-1.5-15.2-2.9c-7.8-2-15.5-5.3-22.2-9c4,1.9,5.8,2.6,8.8,3.2c34.7,7.2,66.2-9.4,70.4-37c1.4-9.2-0.6-18.9-5-27.5
		c-4.4,1.3-8.2,2.5-11,3.3c-0.7,0.2-1.5,0-2.1-0.4c-0.6-0.5-1-1.1-1-1.9c-1.1-31.5,4.2-64.6,13.3-93.1c26.2,17.5,51.9,41.1,72,66.7
		c0.5,0.6,0.6,1.3,0.5,2c-0.2,0.7-0.7,1.2-1.3,1.5C168.9,151.4,165.6,152.5,161.7,153.7L161.7,153.7z"/>
</g>
</svg>
