<?xml version="1.0" encoding="utf-8"?>
<!-- Generator: Adobe Illustrator 26.5.0, SVG Export Plug-In . SVG Version: 6.00 Build 0)  -->
<svg version="1.1" id="Capa_18" xmlns="http://www.w3.org/2000/svg" xmlns:xlink="http://www.w3.org/1999/xlink" x="0px" y="0px"
	 viewBox="0 0 1366 768" style="enable-background:new 0 0 1366 768;" xml:space="preserve">
<style type="text/css">
	.st0{fill:#CA6103;}
	.st1{fill:#0086C9;}
	.st2{fill:#B90076;}
	.st3{fill:#005299;}
	.st4{fill:#AC0E17;}
	.st5{fill:#6D9E39;}
	.st6{fill:#F7E000;}
</style>
<g>
	<g>
		<rect x="174.78" y="306.29" class="st0" width="164.06" height="164.06"/>
		<rect x="338.42" y="306.29" class="st1" width="164.06" height="164.06"/>
		<rect x="831.95" y="306.29" class="st2" width="164.06" height="164.06"/>
		<rect x="995.58" y="306.29" class="st3" width="164.06" height="164.06"/>
		<rect x="502.47" y="306.29" class="st4" width="165.42" height="164.06"/>
		<rect x="667.89" y="306.29" class="st5" width="164.06" height="164.06"/>
	</g>
	<g>
		<path class="st6" d="M585.12,304.82c-46.11,0-83.49,37.38-83.49,83.49s37.38,83.49,83.49,83.49s83.49-37.38,83.49-83.49
			S631.23,304.82,585.12,304.82z M585.12,429.81c-22.92,0-41.48-18.58-41.48-41.5c0-22.92,18.56-41.5,41.48-41.5
			s41.5,18.58,41.5,41.5C626.61,411.24,608.04,429.81,585.12,429.81z"/>
		<path class="st6" d="M1077.51,304.82c-46.11,0-83.49,37.38-83.49,83.49s37.38,83.49,83.49,83.49s83.49-37.38,83.49-83.49
			S1123.62,304.82,1077.51,304.82z M1077.51,429.81c-22.92,0-41.5-18.58-41.5-41.5c0-22.92,18.58-41.5,41.5-41.5
			s41.5,18.58,41.5,41.5C1119.01,411.24,1100.43,429.81,1077.51,429.81z"/>
		<rect x="174.78" y="306.29" class="st6" width="53.34" height="165.19"/>
		<rect x="393.78" y="306.29" class="st6" width="53.34" height="165.19"/>
		<polygon class="st6" points="228.73,388.88 228.12,388.88 228.42,388.44 		"/>
		<polygon class="st6" points="281.76,388.44 339.26,470.58 285.92,470.58 228.73,388.88 228.42,388.44 228.73,387.99 
			285.92,306.29 339.26,306.29 		"/>
		<polygon class="st6" points="228.73,387.99 228.42,388.44 228.12,387.99 		"/>
		<rect x="831.16" y="306.29" class="st6" width="53.34" height="165.19"/>
		<polygon class="st6" points="885.1,388.88 884.49,388.88 884.79,388.44 		"/>
		<polygon class="st6" points="938.14,388.44 995.63,470.58 942.29,470.58 885.1,388.88 884.79,388.44 885.1,387.99 942.29,306.29 
			995.63,306.29 		"/>
		<polygon class="st6" points="885.1,387.99 884.79,388.44 884.49,387.99 		"/>
		<path class="st6" d="M812.1,327.02l-21.8,31.49c0,0-17.56-15.44-35.42-16.95c-17.86-1.51-23.92,1.77-25.73,6.03
			s-3.33,12.13,17.26,16.37c20.59,4.24,63.88,12.11,68.42,41.17c4.54,29.06-5.82,57.94-43.33,65.45h-43.33
			c0,0-35.66-9.74-47.16-24.28l21.8-32.7c0,0,15.14,17.26,40.87,20.28s29.37-5.15,30.88-9.08s0.3-12.72-14.84-14.83
			c-15.14-2.12-48.74-6.66-62.37-23.31c-13.62-16.65-13.62-42.69-0.61-60.85c13.02-18.17,35.12-19.52,35.12-19.52h37.54
			C769.41,306.29,778.79,305.22,812.1,327.02z"/>
		<g>
			<path class="st6" d="M1146.12,449.6c-4.15,0-7.53,3.36-7.53,7.51c0,4.15,3.38,7.53,7.53,7.53c4.15,0,7.51-3.38,7.51-7.53
				C1153.63,452.96,1150.27,449.6,1146.12,449.6z M1146.12,463.03c-3.26,0-5.92-2.65-5.92-5.92c0-3.25,2.65-5.9,5.92-5.9
				c3.27,0,5.9,2.65,5.9,5.9C1152.03,460.37,1149.39,463.03,1146.12,463.03z"/>
			<path class="st6" d="M1147.92,457.77c0.87-0.35,1.43-1.03,1.43-2.09c0-1.72-1.4-2.25-3.12-2.25h-2.91v7.24h1.83v-2.61h1.01
				l1.53,2.61h2.04L1147.92,457.77z M1145.16,454.73h0.93c0.97,0,1.48,0.23,1.48,0.95c0,0.71-0.51,1.08-1.48,1.08h-0.93V454.73z"/>
		</g>
	</g>
</g>
</svg>
