<?xml version="1.0" encoding="utf-8"?>
<!-- Generator: Adobe Illustrator 26.5.0, SVG Export Plug-In . SVG Version: 6.00 Build 0)  -->
<svg version="1.1" id="Aurrera" xmlns="http://www.w3.org/2000/svg" xmlns:xlink="http://www.w3.org/1999/xlink" x="0px" y="0px"
	 viewBox="0 0 1366 768" style="enable-background:new 0 0 1366 768;" xml:space="preserve">
<style type="text/css">
	.st0{clip-path:url(#SVGID_00000104670305033985323050000007752928400064463026_);}
	.st1{fill:#2EA836;}
	.st2{fill:#F7DB0B;}
	.st3{fill:#C10E1A;}
	.st4{fill:#BA161C;stroke:#E42313;stroke-width:0.5213;}
	.st5{fill:#FFDF00;}
	.st6{fill:#E42313;}
	.st7{fill:#E42313;stroke:#E42313;stroke-width:0.5213;}
	.st8{fill:#FFFFFF;}
	.st9{opacity:0.5;fill:none;stroke:#222221;stroke-width:0.2606;}
	.st10{fill:#F8F9FA;}
</style>
<g>
	<g>
		<g>
			<defs>
				<path id="SVGID_1_" d="M1098.94,484.4c0,19.06-15.46,34.52-34.52,34.52H302.04c-19.06,0-34.52-15.46-34.52-34.52V278.71
					c0-19.06,15.46-34.52,34.52-34.52h762.38c19.06,0,34.52,15.46,34.52,34.52V484.4z"/>
			</defs>
			<clipPath id="SVGID_00000064338866100338502250000012462363615458797984_">
				<use xlink:href="#SVGID_1_"  style="overflow:visible;"/>
			</clipPath>
			<g style="clip-path:url(#SVGID_00000064338866100338502250000012462363615458797984_);">
				<rect x="271.93" y="236.85" class="st1" width="822.77" height="282.03"/>
				<path class="st2" d="M1009.33,352.97l52.67,62.02c0,0,7.12,5.9,7.12-4.88v-19.48c0-7.36,0.68-14.79,0.02-22.14
					c-0.73-8.03-5.27-16.1-9.71-22.7c-4.59-6.84-10.87-15.3-17.97-19.67c0,0-6.31-3.86-15.26,6.72
					C1017.27,343.42,1009.33,352.97,1009.33,352.97"/>
				<path class="st3" d="M953.81,412.55c1.57-1.87,3.14-3.74,4.71-5.61c4.09-4.87,8.19-9.72,12.27-14.59
					c5.39-6.36,10.75-12.73,16.13-19.08c5.73-6.76,11.5-13.51,17.24-20.26c6.13-7.19,12.33-14.33,18.55-21.44
					c4.14-4.73,9.77-12.79,17.18-9.2c3.35,1.62,10.2,9.53,11.31,9.69c0-0.4-7.35-8.66-8.86-10.42c-2.96-3.43-18.1-21.05-22.71-26.41
					c-0.93-1.09-1.87-2.17-2.79-3.26c0,0-8.24-10.07-18.3,0c-10.07,10.07-33.96,40.23-33.96,40.23s-17.68,23.62-18.91,31.35
					c-1.07,6.8-0.57,14.04-0.51,20.88c0.06,7.39,0.26,14.79,0.41,22.17C945.69,411.61,948.88,418.31,953.81,412.55"/>
				<path class="st4" d="M438.02,493.26c-57.61,0.69-129.92-5.16-166.21-25.63v38.66l822.82-0.3l0.09-12.75
					C1073.81,493.21,506.34,492.44,438.02,493.26z"/>
				<path class="st5" d="M538.71,467.53c0,0-176.98,3.48-266.9-154.3l0.12,141.11c21.15,15.68,79.5,26.17,165.77,26.27
					c69.34,0.08,651.07-0.21,656.98-0.2l0.07-12.88H538.71z"/>
				<path class="st5" d="M1009.33,352.97l52.67,62.02c0,0,7.12,5.9,7.12-4.88v-19.48c0-7.36,0.68-14.79,0.02-22.14
					c-0.73-8.03-5.27-16.1-9.71-22.7c-4.59-6.84-10.87-15.3-17.97-19.67c0,0-6.31-3.86-15.26,6.72
					C1017.27,343.42,1009.33,352.97,1009.33,352.97"/>
				<path class="st6" d="M953.81,412.55c1.57-1.87,3.14-3.74,4.71-5.61c4.09-4.87,8.19-9.72,12.27-14.59
					c5.39-6.36,10.75-12.73,16.13-19.08c5.73-6.76,11.5-13.51,17.24-20.26c6.13-7.19,12.33-14.33,18.55-21.44
					c4.14-4.73,9.77-12.79,17.18-9.2c3.35,1.62,10.2,9.53,11.31,9.69c0-0.4-7.35-8.66-8.86-10.42c-2.96-3.43-18.1-21.05-22.71-26.41
					c-0.93-1.09-1.87-2.17-2.79-3.26c0,0-8.24-10.07-18.3,0c-10.07,10.07-33.96,40.23-33.96,40.23s-17.68,23.62-18.91,31.35
					c-1.07,6.8-0.57,14.04-0.51,20.88c0.06,7.39,0.26,14.79,0.41,22.17C945.69,411.61,948.88,418.31,953.81,412.55"/>
				<path class="st7" d="M438.02,493.26c-57.61,0.69-129.92-5.16-166.21-25.63v38.66l822.82-0.3l0.09-12.75
					C1073.81,493.21,506.34,492.44,438.02,493.26z"/>
				<path class="st5" d="M538.71,467.53c0,0-176.98,3.48-266.9-154.3l0.12,141.11c21.15,15.68,79.5,26.17,165.77,26.27
					c69.34,0.08,651.07-0.21,656.98-0.2l0.07-12.88H538.71z"/>
				<g>
					<path class="st8" d="M660.39,328.21h16.99l20.05,61.8l-15.21,0l-3.87-13.2l-19.53-0.01l-4.1,13.2L640.65,390L660.39,328.21z
						 M668.89,340.96l-0.16,0l-6.71,24.17l13.04,0L668.89,340.96z"/>
					<path class="st8" d="M741.39,390.01h-12.21v-8.51h-0.16c-2.69,6.64-8.04,9.57-14.15,9.57c-10.59,0-14.84-8.86-14.84-18.42
						v-28.78l13.42,0v22.31c0,8.68,2.53,11.6,6.18,11.61c5.51,0,8.35-4.52,8.35-14.43v-19.48h13.41V390.01z"/>
					<path class="st8" d="M775.3,356.63c-1.5-0.52-2.98-0.52-4.54-0.53c-6.27,0-9.76,5.4-9.77,14.43l0,19.47l-13.42,0.01v-46.13
						h12.22v8.49h0.15c2.31-5.84,5.67-9.55,11.47-9.55c1.57,0.01,3.21,0.27,4.55,0.53L775.3,356.63z"/>
					<path class="st8" d="M806.22,356.63c-1.49-0.53-2.98-0.53-4.55-0.52c-6.26,0-9.76,5.4-9.76,14.43V390H778.5v-46.12h12.22v8.49
						h0.15c2.3-5.84,5.66-9.55,11.48-9.55c1.56,0,3.2,0.27,4.55,0.53L806.22,356.63z"/>
					<path class="st8" d="M819.79,371.59c0.75,6.38,4.84,8.85,11.41,8.85c3.65,0,7.82-0.98,11.83-3.55v11.24
						c-4.31,2.04-9.23,2.93-14.22,2.93c-12.81,0-22.58-8.95-22.58-24.17c0-15.22,8.72-24.08,20.79-24.08
						c14.39-0.01,19.62,12.12,19.6,25.85l0.01,2.92H819.79z M834.54,362.56c0-5.31-2.08-9.64-7.45-9.65c-4.85,0-7.16,4.34-7.45,9.65
						H834.54z"/>
					<path class="st8" d="M879.18,356.64c-1.49-0.53-2.98-0.53-4.55-0.53c-6.26,0-9.76,5.4-9.76,14.42v19.48L851.46,390v-46.13
						h12.22v8.5h0.15c2.3-5.84,5.67-9.56,11.47-9.55c1.58-0.01,3.21,0.26,4.56,0.53L879.18,356.64z"/>
					<path class="st8" d="M907.8,390c-0.07-2.48-0.3-4.87-0.3-7.26l-0.16,0c-3.05,5.76-6.76,8.33-12.29,8.33
						c-7.66,0-14.53-4.53-14.52-14.52c0-14.08,12.89-15.76,20.05-15.76c2.15,0,4.52,0.27,6.25,0.62c-0.07-6.3-4.02-7.98-8.87-7.96
						c-4.32-0.01-8.65,0.97-12.36,3.45l-0.23-10.81c4.77-2.3,9.76-3.27,15.5-3.27c9.91,0,18.48,5.04,18.48,19.12v17.18
						c0,3.63,0.16,7.25,0.76,10.88H907.8z M898.56,380.45c5.06,0,8.27-5.48,8.27-10.89c-1.73-0.09-3.65-0.27-5.66-0.27
						c-4.55,0-8.12,1.68-8.12,6.12C893.03,378.58,895.43,380.45,898.56,380.45"/>
					<path class="st8" d="M413.24,390.37l0-63.3l0-0.87l13.24,0c4.36,0,8.67,0.87,11.95,3.39c3.29,2.52,5.41,6.71,5.4,12.89
						c0.06,7.09-2.52,12.07-7.68,14.27c5.57,2.19,9.28,7.47,9.24,14.96c0.02,6.99-2.41,11.79-6.32,14.7
						c-3.89,2.9-9.09,3.97-14.6,3.97H413.24z M424.62,383.26c3.37,0,6.91-0.56,9.5-2.22c2.59-1.68,4.36-4.33,4.38-9.06
						c-0.02-5.35-1.84-7.98-4.49-9.52c-2.68-1.55-6.44-1.86-10.2-1.85l-3.67-0.01v22.67L424.62,383.26z M425.14,353.47
						c2.64,0.01,5.64-0.42,7.88-1.93c2.24-1.52,3.89-4.05,3.91-8.81c-0.02-4.3-1.58-6.48-3.61-7.79c-2.05-1.3-4.73-1.62-6.85-1.62
						h-6.21v20.15L425.14,353.47z"/>
					<path class="st8" d="M468.44,341.94c6.43-0.02,11.2,3.05,14.21,7.67c3.02,4.62,4.4,10.73,4.41,17.07
						c-0.01,6.34-1.39,12.47-4.41,17.08c-3,4.61-7.76,7.68-14.17,7.68h-0.04c-6.43,0.01-11.2-3.05-14.21-7.68
						c-3.02-4.61-4.4-10.73-4.4-17.08c0-6.34,1.38-12.45,4.4-17.08C457.24,345,462.01,341.93,468.44,341.94z M468.44,384.87
						c3.78-0.01,6.6-1.9,8.63-5.15c2.01-3.25,3.09-7.87,3.09-13.03c0-5.15-1.08-9.77-3.09-13.01c-2.03-3.25-4.85-5.14-8.63-5.15
						c-3.77,0.01-6.6,1.9-8.62,5.15c-2.01,3.25-3.09,7.86-3.09,13.01c0,5.16,1.08,9.78,3.09,13.03
						C461.84,382.97,464.66,384.86,468.44,384.87z"/>
					<path class="st8" d="M506.59,391.45c-5.52,0.01-9.78-2.81-12.49-7.3c-2.73-4.49-4.04-10.59-4.04-17.46
						c0-7.02,1.12-13.13,3.76-17.58c2.62-4.46,6.92-7.19,12.77-7.17c4,0,7.03,1.77,9.08,3.8c0.82,0.81,1.5,1.65,2.04,2.46v-26.64
						h6.44v67.94v0.89l-6.44-0.01v-4.85c-2.6,4.01-6.34,5.94-10.98,5.94H506.59 M507.33,384.86c3.75-0.01,6.25-2.34,7.97-5.9
						c1.68-3.55,2.41-8.22,2.41-12.27c0-4.05-0.73-8.72-2.41-12.26c-1.72-3.55-4.22-5.89-7.97-5.9c-4.1,0.02-6.54,2.23-8.18,5.7
						c-1.61,3.45-2.19,8.12-2.19,12.47c0,4.35,0.58,9.02,2.19,12.48C500.8,382.64,503.23,384.84,507.33,384.86z"/>
					<path class="st8" d="M533.1,384.24c-2.89-4.49-4.06-10.61-4.06-17.55c0-7.1,1.63-13.23,4.55-17.65
						c2.91-4.41,7.22-7.1,12.35-7.09c5.65-0.02,9.8,2.81,12.34,7.14c2.56,4.33,3.66,10.13,3.66,16.37v3.72h-26
						c0.12,4.35,1.16,8.22,3.02,10.99c1.99,2.95,4.79,4.69,8.6,4.7c3.15,0.03,8.15-1.68,10.13-3.22l1.4-1.06v7.48v0.54l-0.49,0.24
						c-3.43,1.69-7.77,2.61-11.42,2.61c0,0-0.05,0-0.07,0.01C540.63,391.45,535.96,388.72,533.1,384.24 M555.03,362.6
						c-0.09-3.57-0.77-7.05-2.11-9.61c-1.48-2.78-3.56-4.45-6.7-4.46c-3.09-0.01-5.61,1.83-7.45,4.69
						c-1.68,2.62-2.68,6.05-2.84,9.38L555.03,362.6z"/>
					<path class="st8" d="M580.43,409.69c-5.18,0-9.83-1.75-11.78-2.47l-0.62-0.22l0.52-7.73l1.24,0.77
						c2.77,1.69,6.81,3.09,10.72,3.08c5.78-0.05,8.56-2.36,10.28-6.35c1.36-3.23,1.81-7.63,1.93-12.58
						c-2.68,4.44-6.57,6.24-10.79,6.19c-6.4,0.03-10.76-3.42-13.33-8.06c-2.6-4.63-3.57-10.45-3.58-15.61
						c0.01-7.03,1.12-13.14,3.76-17.58c2.62-4.47,6.92-7.2,12.78-7.17c4.43-0.07,7.95,0.72,11.12,4.6v-3.53l6.44-0.01l0,42.73
						c0,6.46-1.2,12.38-4.16,16.78c-2.95,4.4-7.74,7.17-14.45,7.16C580.5,409.69,580.46,409.69,580.43,409.69 M582,383.79
						c3.88-0.01,6.43-2.13,8.18-5.41c1.74-3.26,2.5-7.65,2.5-11.68c0-5.44-0.68-10.08-2.31-13.25c-1.67-3.16-4.06-4.89-8.06-4.93
						c-4.11,0.03-6.55,2.24-8.19,5.7c-1.61,3.46-2.2,8.13-2.18,12.48c-0.01,4.37,0.73,8.75,2.38,11.94
						C575.98,381.82,578.37,383.78,582,383.79z"/>
					<path class="st8" d="M606.28,386.15c-1.92-2.92-2.35-6.28-2.35-8.46c-0.05-7.91,3.64-12.38,8.53-14.54
						c4.85-2.19,10.8-2.34,15.74-2.35h0.01v-1.43c0.01-3.82-0.58-6.58-1.79-8.29c-1.2-1.69-2.98-2.55-5.98-2.57
						c-3.79,0.01-7.28,1.01-10.64,3.58l-1.41,1.08v-7.73l0.43-0.25c3.09-1.8,8.03-3.23,11.62-3.25c4.84-0.02,8.52,1.34,10.89,4.37
						c2.35,3.01,3.33,7.46,3.34,13.49v20.11c-0.01,3.68,0,6.4,0.36,9.47l0.12,0.98l-6.48,0.01v-4.97
						c-2.73,3.94-7.23,6.04-11.35,6.05h-0.09C611.65,391.45,608.17,389.07,606.28,386.15 M616.16,369.05
						c-3.21,1.45-5.29,3.75-5.34,8.45c0.01,2.84,0.83,4.6,2.05,5.72c1.22,1.11,2.96,1.65,4.98,1.65c5.18-0.05,7.56-2.57,8.95-5.85
						c1.35-3.29,1.43-7.3,1.43-9.74v-1.89h-0.46c-0.04,0-0.08,0-0.12,0C623.64,367.39,619.33,367.66,616.16,369.05"/>
				</g>
				<g>
					<polygon class="st8" points="494.72,421.89 499.08,421.89 499.08,437.56 506.78,437.56 506.78,441.24 494.72,441.24 					"/>
					<path class="st8" d="M521.02,437.85c0,1.32,0.06,2.61,0.23,3.39h-3.93l-0.26-1.41h-0.09c-0.92,1.12-2.36,1.72-4.02,1.72
						c-2.84,0-4.54-2.07-4.54-4.31c0-3.65,3.28-5.37,8.24-5.37v-0.17c0-0.75-0.4-1.81-2.56-1.81c-1.43,0-2.96,0.49-3.88,1.03
						l-0.8-2.78c0.97-0.54,2.9-1.26,5.46-1.26c4.68,0,6.14,2.76,6.14,6.06V437.85z M516.8,434.61c-2.3,0-4.08,0.54-4.08,2.21
						c0,1.12,0.74,1.67,1.72,1.67c1.06,0,1.98-0.72,2.27-1.61c0.06-0.23,0.09-0.49,0.09-0.74V434.61z"/>
					<path class="st8" d="M540.83,440.89c-0.78,0.37-2.24,0.66-3.9,0.66c-4.54,0-7.44-2.79-7.44-7.2c0-4.1,2.81-7.47,8.04-7.47
						c1.15,0,2.41,0.2,3.33,0.55l-0.69,3.24c-0.52-0.23-1.29-0.43-2.44-0.43c-2.3,0-3.79,1.64-3.76,3.93c0,2.59,1.72,3.96,3.84,3.96
						c1.03,0,1.84-0.17,2.5-0.46L540.83,440.89z"/>
					<path class="st8" d="M555.04,437.85c0,1.32,0.05,2.61,0.23,3.39h-3.93l-0.26-1.41h-0.08c-0.92,1.12-2.35,1.72-4.02,1.72
						c-2.84,0-4.54-2.07-4.54-4.31c0-3.65,3.28-5.37,8.24-5.37v-0.17c0-0.75-0.4-1.81-2.55-1.81c-1.44,0-2.96,0.49-3.88,1.03
						l-0.8-2.78c0.98-0.54,2.9-1.26,5.45-1.26c4.68,0,6.15,2.76,6.15,6.06V437.85z M550.82,434.61c-2.3,0-4.07,0.54-4.07,2.21
						c0,1.12,0.74,1.67,1.72,1.67c1.07,0,1.98-0.72,2.27-1.61c0.06-0.23,0.09-0.49,0.09-0.74V434.61z"/>
					<path class="st8" d="M558.51,431.68c0-1.75-0.06-3.22-0.11-4.48h3.7l0.18,1.92h0.08c0.6-0.92,1.86-2.24,4.25-2.24
						c1.84,0,3.24,0.95,3.84,2.41h0.06c0.55-0.75,1.15-1.32,1.84-1.72c0.78-0.43,1.64-0.69,2.67-0.69c2.7,0,4.74,1.89,4.74,6.09
						v8.27h-4.25v-7.6c0-2.04-0.66-3.22-2.06-3.22c-1.04,0-1.72,0.69-2.04,1.52c-0.08,0.32-0.14,0.75-0.14,1.09v8.21h-4.25v-7.87
						c0-1.75-0.63-2.95-2.04-2.95c-1.12,0-1.77,0.86-2.04,1.55c-0.14,0.34-0.18,0.75-0.18,1.12v8.15h-4.25V431.68z"/>
					<path class="st8" d="M583.21,431.91c0-1.84-0.05-3.39-0.11-4.71h3.79l0.2,1.95h0.06c1.03-1.47,2.64-2.27,4.68-2.27
						c3.07,0,5.83,2.67,5.83,7.15c0,5.11-3.25,7.52-6.37,7.52c-1.69,0-3.02-0.69-3.65-1.61h-0.06v6.98h-4.37V431.91z M587.57,435.21
						c0,0.34,0.03,0.63,0.09,0.92c0.29,1.18,1.29,2.06,2.55,2.06c1.9,0,3.01-1.58,3.01-3.96c0-2.24-1-3.93-2.96-3.93
						c-1.23,0-2.32,0.92-2.61,2.21c-0.06,0.23-0.09,0.52-0.09,0.78V435.21z"/>
					<path class="st8" d="M603.82,435.58c0.14,1.84,1.92,2.7,3.96,2.7c1.49,0,2.7-0.2,3.88-0.6l0.57,2.96
						c-1.43,0.6-3.19,0.89-5.08,0.89c-4.77,0-7.49-2.75-7.49-7.17c0-3.56,2.24-7.49,7.09-7.49c4.53,0,6.26,3.53,6.26,7
						c0,0.75-0.09,1.41-0.15,1.76L603.82,435.58z M608.96,432.6c0-1.03-0.46-2.84-2.44-2.84c-1.87,0-2.61,1.7-2.73,2.84H608.96z"/>
					<path class="st8" d="M622.08,441.55c-4.11,0-7.26-2.7-7.26-7.24c0-4.53,2.98-7.44,7.52-7.44c4.28,0,7.15,2.96,7.15,7.21
						c0,5.11-3.64,7.47-7.38,7.47H622.08z M622.17,438.42c1.73,0,2.79-1.69,2.79-4.22c0-2.06-0.81-4.19-2.79-4.19
						c-2.07,0-2.87,2.13-2.87,4.22c0,2.38,1.01,4.19,2.85,4.19H622.17z"/>
					<path class="st8" d="M632.19,431.68c0-1.75-0.06-3.22-0.11-4.48h3.79l0.2,1.95h0.09c0.58-0.92,1.98-2.27,4.34-2.27
						c2.87,0,5.02,1.93,5.02,6.06v8.29h-4.36v-7.78c0-1.81-0.63-3.04-2.21-3.04c-1.21,0-1.93,0.83-2.24,1.64
						c-0.12,0.29-0.15,0.69-0.15,1.09v8.1h-4.36V431.68z"/>
					<path class="st8" d="M660.7,437.85c0,1.32,0.06,2.61,0.23,3.39H657l-0.26-1.41h-0.08c-0.92,1.12-2.36,1.72-4.02,1.72
						c-2.84,0-4.54-2.07-4.54-4.31c0-3.65,3.27-5.37,8.24-5.37v-0.17c0-0.75-0.41-1.81-2.56-1.81c-1.44,0-2.95,0.49-3.87,1.03
						l-0.81-2.78c0.97-0.54,2.9-1.26,5.46-1.26c4.67,0,6.14,2.76,6.14,6.06V437.85z M656.48,434.61c-2.3,0-4.08,0.54-4.08,2.21
						c0,1.12,0.75,1.67,1.72,1.67c1.07,0,1.98-0.72,2.27-1.61c0.06-0.23,0.08-0.49,0.08-0.74V434.61z"/>
					<path class="st8" d="M683.59,420.85v16.2c0,1.61,0.06,3.24,0.11,4.19h-3.87l-0.17-2.04h-0.08c-0.86,1.55-2.59,2.36-4.4,2.36
						c-3.33,0-6-2.84-6-7.21c-0.03-4.71,2.93-7.47,6.29-7.47c1.75,0,3.07,0.63,3.7,1.58h0.06v-7.61H683.59z M679.22,433.17
						c0-0.25,0-0.55-0.06-0.8c-0.26-1.18-1.2-2.13-2.55-2.13c-2.01,0-3.01,1.78-3.01,3.99c0,2.35,1.17,3.85,2.98,3.85
						c1.26,0,2.29-0.86,2.56-2.09c0.05-0.29,0.08-0.63,0.08-0.98V433.17z"/>
					<path class="st8" d="M690.46,435.58c0.14,1.84,1.92,2.7,3.96,2.7c1.49,0,2.7-0.2,3.88-0.6l0.57,2.96
						c-1.44,0.6-3.19,0.89-5.08,0.89c-4.77,0-7.49-2.75-7.49-7.17c0-3.56,2.24-7.49,7.09-7.49c4.54,0,6.26,3.53,6.26,7
						c0,0.75-0.09,1.41-0.14,1.76L690.46,435.58z M695.59,432.6c0-1.03-0.46-2.84-2.44-2.84c-1.87,0-2.61,1.7-2.72,2.84H695.59z"/>
				</g>
				<g>
					<rect x="711.66" y="420.85" class="st8" width="4.37" height="20.39"/>
					<path class="st8" d="M725.99,441.55c-4.11,0-7.26-2.7-7.26-7.23c0-4.53,2.98-7.43,7.51-7.43c4.28,0,7.15,2.96,7.15,7.2
						c0,5.11-3.65,7.46-7.38,7.46H725.99z M726.07,438.43c1.72,0,2.78-1.69,2.78-4.22c0-2.06-0.8-4.19-2.78-4.19
						c-2.07,0-2.87,2.13-2.87,4.22c0,2.38,1.01,4.19,2.84,4.19H726.07z"/>
					<path class="st8" d="M736.07,437.45c0.8,0.48,2.47,1.03,3.76,1.03c1.32,0,1.86-0.43,1.86-1.15c0-0.75-0.43-1.09-2.03-1.64
						c-2.93-0.95-4.05-2.56-4.02-4.2c0-2.64,2.25-4.62,5.72-4.62c1.64,0,3.07,0.4,3.93,0.83l-0.75,2.99
						c-0.63-0.32-1.87-0.78-3.04-0.78c-1.06,0-1.66,0.43-1.66,1.12c0,0.69,0.54,1.03,2.27,1.64c2.67,0.89,3.76,2.27,3.78,4.3
						c0,2.64-2.04,4.57-6.05,4.57c-1.84,0-3.47-0.43-4.54-1.01L736.07,437.45z"/>
					<path class="st8" d="M754.36,431.91c0-1.84-0.06-3.39-0.12-4.71h3.79l0.2,1.95h0.06c1.04-1.47,2.65-2.27,4.68-2.27
						c3.07,0,5.82,2.67,5.82,7.15c0,5.11-3.24,7.52-6.37,7.52c-1.7,0-3.02-0.69-3.65-1.61h-0.06v6.98h-4.36V431.91z M758.72,435.21
						c0,0.34,0.03,0.63,0.08,0.92c0.3,1.17,1.3,2.06,2.56,2.06c1.89,0,3.01-1.58,3.01-3.96c0-2.24-1.01-3.93-2.96-3.93
						c-1.23,0-2.32,0.92-2.62,2.21c-0.06,0.23-0.08,0.52-0.08,0.78V435.21z"/>
					<path class="st8" d="M771.56,431.82c0-2.07-0.03-3.42-0.11-4.62h3.73l0.17,2.61h0.11c0.72-2.06,2.41-2.93,3.8-2.93
						c0.4,0,0.6,0.03,0.91,0.08v4.11c-0.37-0.05-0.72-0.11-1.21-0.11c-1.6,0-2.69,0.83-2.98,2.21c-0.06,0.29-0.09,0.61-0.09,0.98
						v7.09h-4.36L771.56,431.82z"/>
					<path class="st8" d="M785.6,435.58c0.14,1.84,1.92,2.7,3.96,2.7c1.5,0,2.7-0.2,3.88-0.6l0.57,2.96
						c-1.44,0.6-3.19,0.89-5.09,0.89c-4.77,0-7.49-2.75-7.49-7.18c0-3.56,2.24-7.49,7.09-7.49c4.53,0,6.25,3.53,6.25,7
						c0,0.75-0.08,1.41-0.14,1.76L785.6,435.58z M790.74,432.6c0-1.03-0.45-2.84-2.44-2.84c-1.87,0-2.61,1.7-2.73,2.84H790.74z"/>
					<path class="st8" d="M807.94,440.9c-0.78,0.37-2.24,0.66-3.9,0.66c-4.54,0-7.44-2.78-7.44-7.2c0-4.11,2.81-7.47,8.04-7.47
						c1.15,0,2.42,0.2,3.33,0.55l-0.68,3.24c-0.52-0.23-1.3-0.43-2.45-0.43c-2.3,0-3.78,1.64-3.76,3.93c0,2.59,1.72,3.96,3.84,3.96
						c1.04,0,1.84-0.17,2.5-0.46L807.94,440.9z"/>
					<path class="st8" d="M812.51,425.36c-1.46,0-2.41-1.03-2.41-2.32c0-1.32,0.97-2.33,2.47-2.33c1.49,0,2.41,1.01,2.43,2.33
						c0,1.29-0.95,2.32-2.47,2.32H812.51z M810.36,427.2h4.36v14.04h-4.36V427.2z"/>
					<path class="st8" d="M824.69,441.55c-4.11,0-7.27-2.7-7.27-7.23c0-4.53,2.99-7.43,7.52-7.43c4.28,0,7.15,2.96,7.15,7.2
						c0,5.11-3.64,7.46-7.38,7.46H824.69z M824.77,438.43c1.72,0,2.79-1.69,2.79-4.22c0-2.06-0.81-4.19-2.79-4.19
						c-2.07,0-2.87,2.13-2.87,4.22c0,2.38,1.01,4.19,2.84,4.19H824.77z"/>
					<path class="st8" d="M834.76,437.45c0.81,0.48,2.48,1.03,3.76,1.03c1.32,0,1.87-0.43,1.87-1.15c0-0.75-0.43-1.09-2.04-1.64
						c-2.93-0.95-4.05-2.56-4.01-4.2c0-2.64,2.24-4.62,5.71-4.62c1.63,0,3.08,0.4,3.93,0.83l-0.74,2.99
						c-0.63-0.32-1.87-0.78-3.04-0.78c-1.06,0-1.67,0.43-1.67,1.12c0,0.69,0.55,1.03,2.27,1.64c2.67,0.89,3.77,2.27,3.8,4.3
						c0,2.64-2.04,4.57-6.06,4.57c-1.84,0-3.47-0.43-4.54-1.01L834.76,437.45z"/>
					<path class="st8" d="M853.05,420.86h4.36v8.01h0.06c0.83-1.21,2.3-1.98,4.25-1.98c3.35,0,5.8,2.78,5.77,7.09
						c0,5.05-3.19,7.58-6.4,7.58c-1.64,0-3.25-0.6-4.23-2.27h-0.06l-0.17,1.95h-3.71c0.06-0.92,0.12-2.61,0.12-4.19V420.86z
						 M857.42,435.27c0,0.29,0.03,0.55,0.08,0.77c0.29,1.15,1.3,2.07,2.56,2.07c1.87,0,3.02-1.44,3.02-3.96
						c0-2.18-0.98-3.9-3.02-3.9c-1.17,0-2.26,0.89-2.56,2.15c-0.05,0.25-0.08,0.52-0.08,0.8V435.27z"/>
					<path class="st8" d="M881.91,437.85c0,1.32,0.06,2.61,0.23,3.39h-3.93l-0.26-1.41h-0.08c-0.92,1.12-2.35,1.72-4.02,1.72
						c-2.84,0-4.53-2.07-4.53-4.31c0-3.65,3.27-5.37,8.24-5.37v-0.17c0-0.75-0.41-1.81-2.56-1.81c-1.43,0-2.96,0.49-3.88,1.03
						l-0.8-2.78c0.98-0.54,2.9-1.26,5.45-1.26c4.68,0,6.15,2.76,6.15,6.06V437.85z M877.69,434.61c-2.3,0-4.08,0.55-4.08,2.21
						c0,1.12,0.75,1.67,1.72,1.67c1.06,0,1.98-0.72,2.27-1.61c0.06-0.23,0.09-0.49,0.09-0.74V434.61z"/>
					<path class="st8" d="M882.51,443.97c1.13-0.09,2.05-0.35,2.6-0.92c0.63-0.66,0.86-1.78,0.86-4.56V427.2h4.36v12.34
						c0,3.04-0.66,4.91-1.98,6.12c-1.29,1.18-3.33,1.72-5.4,1.72L882.51,443.97z M888.09,425.36c-1.46,0-2.42-1.03-2.42-2.32
						c0-1.32,0.98-2.33,2.47-2.33c1.49,0,2.41,1.01,2.44,2.33c0,1.29-0.95,2.32-2.47,2.32H888.09z"/>
					<path class="st8" d="M900.2,441.55c-4.11,0-7.27-2.7-7.27-7.23c0-4.53,2.99-7.43,7.52-7.43c4.28,0,7.15,2.96,7.15,7.2
						c0,5.11-3.65,7.46-7.38,7.46H900.2z M900.28,438.43c1.72,0,2.79-1.69,2.79-4.22c0-2.06-0.8-4.19-2.79-4.19
						c-2.06,0-2.87,2.13-2.87,4.22c0,2.38,1.01,4.19,2.84,4.19H900.28z"/>
					<path class="st8" d="M910.27,437.45c0.81,0.48,2.48,1.03,3.77,1.03c1.32,0,1.87-0.43,1.87-1.15c0-0.75-0.43-1.09-2.04-1.64
						c-2.93-0.95-4.05-2.56-4.02-4.2c0-2.64,2.24-4.62,5.71-4.62c1.64,0,3.07,0.4,3.93,0.83l-0.75,2.99
						c-0.63-0.32-1.86-0.78-3.04-0.78c-1.06,0-1.66,0.43-1.66,1.12c0,0.69,0.54,1.03,2.27,1.64c2.67,0.89,3.76,2.27,3.79,4.3
						c0,2.64-2.04,4.57-6.06,4.57c-1.84,0-3.47-0.43-4.54-1.01L910.27,437.45z"/>
				</g>
				<g>
					<path class="st8" d="M660.39,328.21h16.99l20.05,61.8l-15.21,0l-3.87-13.2l-19.53-0.01l-4.1,13.2L640.65,390L660.39,328.21z
						 M668.89,340.96l-0.16,0l-6.71,24.17l13.04,0L668.89,340.96z"/>
					<path class="st8" d="M741.39,390.01h-12.21v-8.51h-0.16c-2.69,6.64-8.04,9.57-14.15,9.57c-10.59,0-14.84-8.86-14.84-18.42
						v-28.78l13.42,0v22.31c0,8.68,2.53,11.6,6.18,11.61c5.51,0,8.35-4.52,8.35-14.43v-19.48h13.41V390.01z"/>
					<path class="st8" d="M775.3,356.63c-1.5-0.52-2.98-0.52-4.54-0.53c-6.27,0-9.76,5.4-9.77,14.43l0,19.47l-13.42,0.01v-46.13
						h12.22v8.49h0.15c2.31-5.84,5.67-9.55,11.47-9.55c1.57,0.01,3.21,0.27,4.55,0.53L775.3,356.63z"/>
					<path class="st8" d="M806.22,356.63c-1.49-0.53-2.98-0.53-4.55-0.52c-6.26,0-9.76,5.4-9.76,14.43V390H778.5v-46.12h12.22v8.49
						h0.15c2.3-5.84,5.66-9.55,11.48-9.55c1.56,0,3.2,0.27,4.55,0.53L806.22,356.63z"/>
					<path class="st8" d="M819.79,371.59c0.75,6.38,4.84,8.85,11.41,8.85c3.65,0,7.82-0.98,11.83-3.55v11.24
						c-4.31,2.04-9.23,2.93-14.22,2.93c-12.81,0-22.58-8.95-22.58-24.17c0-15.22,8.72-24.08,20.79-24.08
						c14.39-0.01,19.62,12.12,19.6,25.85l0.01,2.92H819.79z M834.54,362.56c0-5.31-2.08-9.64-7.45-9.65c-4.85,0-7.16,4.34-7.45,9.65
						H834.54z"/>
					<path class="st8" d="M879.18,356.64c-1.49-0.53-2.98-0.53-4.55-0.53c-6.26,0-9.76,5.4-9.76,14.42v19.48L851.46,390v-46.13
						h12.22v8.5h0.15c2.3-5.84,5.67-9.56,11.47-9.55c1.58-0.01,3.21,0.26,4.56,0.53L879.18,356.64z"/>
					<path class="st8" d="M907.8,390c-0.07-2.48-0.3-4.87-0.3-7.26l-0.16,0c-3.05,5.76-6.76,8.33-12.29,8.33
						c-7.66,0-14.53-4.53-14.52-14.52c0-14.08,12.89-15.76,20.05-15.76c2.15,0,4.52,0.27,6.25,0.62c-0.07-6.3-4.02-7.98-8.87-7.96
						c-4.32-0.01-8.65,0.97-12.36,3.45l-0.23-10.81c4.77-2.3,9.76-3.27,15.5-3.27c9.91,0,18.48,5.04,18.48,19.12v17.18
						c0,3.63,0.16,7.25,0.76,10.88H907.8z M898.56,380.45c5.06,0,8.27-5.48,8.27-10.89c-1.73-0.09-3.65-0.27-5.66-0.27
						c-4.55,0-8.12,1.68-8.12,6.12C893.03,378.58,895.43,380.45,898.56,380.45"/>
					<path class="st8" d="M413.24,390.37l0-63.3l0-0.87l13.24,0c4.36,0,8.67,0.87,11.95,3.39c3.29,2.52,5.41,6.71,5.4,12.89
						c0.06,7.09-2.52,12.07-7.68,14.27c5.57,2.19,9.28,7.47,9.24,14.96c0.02,6.99-2.41,11.79-6.32,14.7
						c-3.89,2.9-9.09,3.97-14.6,3.97H413.24z M424.62,383.26c3.37,0,6.91-0.56,9.5-2.22c2.59-1.68,4.36-4.33,4.38-9.06
						c-0.02-5.35-1.84-7.98-4.49-9.52c-2.68-1.55-6.44-1.86-10.2-1.85l-3.67-0.01v22.67L424.62,383.26z M425.14,353.47
						c2.64,0.01,5.64-0.42,7.88-1.93c2.24-1.52,3.89-4.05,3.91-8.81c-0.02-4.3-1.58-6.48-3.61-7.79c-2.05-1.3-4.73-1.62-6.85-1.62
						h-6.21v20.15L425.14,353.47z"/>
					<path class="st8" d="M468.44,341.94c6.43-0.02,11.2,3.05,14.21,7.67c3.02,4.62,4.4,10.73,4.41,17.07
						c-0.01,6.34-1.39,12.47-4.41,17.08c-3,4.61-7.76,7.68-14.17,7.68h-0.04c-6.43,0.01-11.2-3.05-14.21-7.68
						c-3.02-4.61-4.4-10.73-4.4-17.08c0-6.34,1.38-12.45,4.4-17.08C457.24,345,462.01,341.93,468.44,341.94z M468.44,384.87
						c3.78-0.01,6.6-1.9,8.63-5.15c2.01-3.25,3.09-7.87,3.09-13.03c0-5.15-1.08-9.77-3.09-13.01c-2.03-3.25-4.85-5.14-8.63-5.15
						c-3.77,0.01-6.6,1.9-8.62,5.15c-2.01,3.25-3.09,7.86-3.09,13.01c0,5.16,1.08,9.78,3.09,13.03
						C461.84,382.97,464.66,384.86,468.44,384.87z"/>
					<path class="st8" d="M506.59,391.45c-5.52,0.01-9.78-2.81-12.49-7.3c-2.73-4.49-4.04-10.59-4.04-17.46
						c0-7.02,1.12-13.13,3.76-17.58c2.62-4.46,6.92-7.19,12.77-7.17c4,0,7.03,1.77,9.08,3.8c0.82,0.81,1.5,1.65,2.04,2.46v-26.64
						h6.44v67.94v0.89l-6.44-0.01v-4.85c-2.6,4.01-6.34,5.94-10.98,5.94H506.59 M507.33,384.86c3.75-0.01,6.25-2.34,7.97-5.9
						c1.68-3.55,2.41-8.22,2.41-12.27c0-4.05-0.73-8.72-2.41-12.26c-1.72-3.55-4.22-5.89-7.97-5.9c-4.1,0.02-6.54,2.23-8.18,5.7
						c-1.61,3.45-2.19,8.12-2.19,12.47c0,4.35,0.58,9.02,2.19,12.48C500.8,382.64,503.23,384.84,507.33,384.86z"/>
					<path class="st8" d="M533.1,384.24c-2.89-4.49-4.06-10.61-4.06-17.55c0-7.1,1.63-13.23,4.55-17.65
						c2.91-4.41,7.22-7.1,12.35-7.09c5.65-0.02,9.8,2.81,12.34,7.14c2.56,4.33,3.66,10.13,3.66,16.37v3.72h-26
						c0.12,4.35,1.16,8.22,3.02,10.99c1.99,2.95,4.79,4.69,8.6,4.7c3.15,0.03,8.15-1.68,10.13-3.22l1.4-1.06v7.48v0.54l-0.49,0.24
						c-3.43,1.69-7.77,2.61-11.42,2.61c0,0-0.05,0-0.07,0.01C540.63,391.45,535.96,388.72,533.1,384.24 M555.03,362.6
						c-0.09-3.57-0.77-7.05-2.11-9.61c-1.48-2.78-3.56-4.45-6.7-4.46c-3.09-0.01-5.61,1.83-7.45,4.69
						c-1.68,2.62-2.68,6.05-2.84,9.38L555.03,362.6z"/>
					<path class="st8" d="M580.43,409.69c-5.18,0-9.83-1.75-11.78-2.47l-0.62-0.22l0.52-7.73l1.24,0.77
						c2.77,1.69,6.81,3.09,10.72,3.08c5.78-0.05,8.56-2.36,10.28-6.35c1.36-3.23,1.81-7.63,1.93-12.58
						c-2.68,4.44-6.57,6.24-10.79,6.19c-6.4,0.03-10.76-3.42-13.33-8.06c-2.6-4.63-3.57-10.45-3.58-15.61
						c0.01-7.03,1.12-13.14,3.76-17.58c2.62-4.47,6.92-7.2,12.78-7.17c4.43-0.07,7.95,0.72,11.12,4.6v-3.53l6.44-0.01l0,42.73
						c0,6.46-1.2,12.38-4.16,16.78c-2.95,4.4-7.74,7.17-14.45,7.16C580.5,409.69,580.46,409.69,580.43,409.69 M582,383.79
						c3.88-0.01,6.43-2.13,8.18-5.41c1.74-3.26,2.5-7.65,2.5-11.68c0-5.44-0.68-10.08-2.31-13.25c-1.67-3.16-4.06-4.89-8.06-4.93
						c-4.11,0.03-6.55,2.24-8.19,5.7c-1.61,3.46-2.2,8.13-2.18,12.48c-0.01,4.37,0.73,8.75,2.38,11.94
						C575.98,381.82,578.37,383.78,582,383.79z"/>
					<path class="st8" d="M606.28,386.15c-1.92-2.92-2.35-6.28-2.35-8.46c-0.05-7.91,3.64-12.38,8.53-14.54
						c4.85-2.19,10.8-2.34,15.74-2.35h0.01v-1.43c0.01-3.82-0.58-6.58-1.79-8.29c-1.2-1.69-2.98-2.55-5.98-2.57
						c-3.79,0.01-7.28,1.01-10.64,3.58l-1.41,1.08v-7.73l0.43-0.25c3.09-1.8,8.03-3.23,11.62-3.25c4.84-0.02,8.52,1.34,10.89,4.37
						c2.35,3.01,3.33,7.46,3.34,13.49v20.11c-0.01,3.68,0,6.4,0.36,9.47l0.12,0.98l-6.48,0.01v-4.97
						c-2.73,3.94-7.23,6.04-11.35,6.05h-0.09C611.65,391.45,608.17,389.07,606.28,386.15 M616.16,369.05
						c-3.21,1.45-5.29,3.75-5.34,8.45c0.01,2.84,0.83,4.6,2.05,5.72c1.22,1.11,2.96,1.65,4.98,1.65c5.18-0.05,7.56-2.57,8.95-5.85
						c1.35-3.29,1.43-7.3,1.43-9.74v-1.89h-0.46c-0.04,0-0.08,0-0.12,0C623.64,367.39,619.33,367.66,616.16,369.05"/>
				</g>
				<polygon class="st9" points="1094.62,236.79 271.73,236.79 271.7,518.92 1094.59,518.92 				"/>
			</g>
		</g>
		<path class="st8" d="M1064.42,525.52H302.04c-21.27,0-38.58-17.31-38.58-38.58V281.24c0-21.27,17.3-38.58,38.58-38.58h762.38
			c21.27,0,38.58,17.31,38.58,38.58v205.69C1103,508.21,1085.69,525.52,1064.42,525.52L1064.42,525.52z M302.04,250.78
			c-16.8,0-30.46,13.66-30.46,30.46v205.69c0,16.8,13.66,30.46,30.46,30.46h762.38c16.8,0,30.46-13.66,30.46-30.46V281.24
			c0-16.8-13.66-30.46-30.46-30.46H302.04L302.04,250.78z"/>
	</g>
	<g>
		<path class="st10" d="M1069.12,291.85c0,2.8-2.25,5.01-5.11,5.01c-2.86,0-5.14-2.22-5.14-5.01c0-2.8,2.28-4.98,5.17-4.98
			C1066.87,286.86,1069.12,289.05,1069.12,291.85z M1060.15,291.85c0,2.22,1.67,3.98,3.89,3.98c2.16,0.03,3.8-1.76,3.8-3.95
			c0-2.22-1.64-4.01-3.86-4.01C1061.82,287.86,1060.15,289.66,1060.15,291.85z M1063.22,294.43h-1.16v-4.98
			c0.46-0.06,1.09-0.15,1.92-0.15c0.94,0,1.37,0.15,1.7,0.4c0.31,0.21,0.52,0.58,0.52,1.07c0,0.61-0.46,1-1.03,1.19V292
			c0.49,0.15,0.73,0.55,0.88,1.22c0.15,0.76,0.27,1.03,0.37,1.22h-1.22c-0.16-0.18-0.24-0.61-0.4-1.22
			c-0.09-0.52-0.4-0.76-1.03-0.76h-0.55V294.43z M1063.25,291.63h0.55c0.64,0,1.16-0.21,1.16-0.73c0-0.46-0.34-0.76-1.07-0.76
			c-0.3,0-0.52,0.03-0.64,0.06V291.63z"/>
	</g>
</g>
</svg>
