<?xml version="1.0" encoding="utf-8"?>
<!-- Generator: Adobe Illustrator 26.5.0, SVG Export Plug-In . SVG Version: 6.00 Build 0)  -->
<svg version="1.1" id="Walmart" xmlns="http://www.w3.org/2000/svg" xmlns:xlink="http://www.w3.org/1999/xlink" x="0px" y="0px"
	 viewBox="0 0 1366 768" style="enable-background:new 0 0 1366 768;" xml:space="preserve">
<style type="text/css">
	.st0{fill:#6EB74C;}
	.st1{fill:#FFFFFF;}
	.st2{fill:#FDC400;}
</style>
<g>
	<path class="st0" d="M1061.11,578.91H323.35c-20.41,0-36.96-16.55-36.96-36.96V248.96c0-20.41,16.55-36.96,36.96-36.96h737.77
		c20.41,0,36.96,16.55,36.96,36.96v292.99C1098.07,562.36,1081.53,578.91,1061.11,578.91z"/>
	<g>
		<g>
			<g>
				<path class="st1" d="M867.44,491.43c0,12.65-10.35,23-23,23l-462.49-0.32c-12.65,0-23-10.35-23-23v-33.81
					c0-12.65,10.35-23,23-23l462.49,0.32c12.65,0,23,10.35,23,23V491.43z"/>
			</g>
		</g>
		<g>
			<path class="st1" d="M748.21,383.29c0,1.33-0.12,2.71-0.5,3.91c-1.5,5-6.73,9.24-13.22,9.24c-5.43,0-9.75-3.07-9.75-9.56
				c0-9.92,10.97-12.66,23.47-12.6V383.29z M767.79,366c0-16.37-7.01-30.77-30.75-30.77c-12.18,0-21.84,3.4-27.13,6.45l3.86,13.14
				c4.83-3.02,12.52-5.53,19.79-5.53c12.03-0.03,14.02,6.8,14.02,11.15v1.04c-26.26-0.05-42.85,8.99-42.85,27.43
				c0,11.26,8.46,21.8,23.14,21.8c9.02,0,16.58-3.58,21.1-9.33h0.46c0,0,2.99,12.48,19.51,7.7c-0.88-5.19-1.16-10.73-1.16-17.4V366z
				"/>
			<path class="st1" d="M358.94,312.94c0,0,17.14,69.96,19.89,81.3c3.19,13.27,8.95,18.15,25.54,14.85l10.72-43.37
				c2.71-10.77,4.53-18.44,6.28-29.41h0.3c1.23,11.08,2.97,18.68,5.22,29.46c0,0,4.35,19.69,6.6,30.02
				c2.22,10.34,8.45,16.85,24.7,13.3l25.52-96.14h-20.6l-8.72,41.57c-2.33,12.1-4.46,21.55-6.11,32.63h-0.29
				c-1.5-10.96-3.38-20.05-5.75-31.82l-9.07-42.37h-21.46l-9.7,41.3c-2.74,12.55-5.32,22.68-6.95,33.37h-0.3
				c-1.67-10.06-3.9-22.79-6.33-34.94c0,0-5.76-29.53-7.78-39.73H358.94z"/>
			<path class="st1" d="M522.64,383.29c0,1.33-0.12,2.71-0.5,3.91c-1.53,5-6.72,9.24-13.23,9.24c-5.43,0-9.74-3.07-9.74-9.56
				c0-9.92,10.97-12.66,23.47-12.6V383.29z M542.22,366c0-16.37-7.02-30.77-30.75-30.77c-12.19,0-21.85,3.4-27.13,6.45l3.86,13.14
				c4.83-3.02,12.52-5.53,19.79-5.53c12.03-0.03,14.02,6.8,14.02,11.15v1.04c-26.26-0.05-42.84,8.99-42.84,27.43
				c0,11.26,8.44,21.8,23.13,21.8c9.03,0,16.59-3.58,21.11-9.33h0.45c0,0,3,12.48,19.51,7.7c-0.87-5.19-1.15-10.73-1.15-17.4V366z"
				/>
			<polygon class="st1" points="574.91,388.67 574.91,312.94 555.3,312.94 555.3,409.08 574.91,409.08 			"/>
			<g>
				<path class="st1" d="M831.49,312.94v70.93c0,9.79,1.85,16.64,5.8,20.81c3.47,3.67,9.17,6.03,15.97,6.03
					c5.8,0,11.5-1.09,14.2-2.08l-0.25-15.27c-2.01,0.49-4.31,0.88-7.45,0.88c-6.69,0-8.92-4.25-8.92-13.03v-27.14h17.07v-18.4
					h-17.07v-22.73H831.49z"/>
				<path class="st1" d="M780.87,336.87v72.21h20.23V372.1c0-1.99,0.13-3.73,0.44-5.33c1.5-7.75,7.44-12.7,15.99-12.7
					c2.35,0,4.03,0.26,5.84,0.52v-18.92c-1.52-0.3-2.58-0.44-4.46-0.44c-7.56,0-16.14,4.85-19.74,15.25h-0.56v-13.61H780.87z"/>
				<path class="st1" d="M588.65,336.87v72.21h19.7v-42.35c0-1.99,0.24-4.09,0.93-5.91c1.63-4.26,5.61-9.26,11.98-9.26
					c7.95,0,11.67,6.68,11.67,16.35v41.17h19.69v-42.87c0-1.9,0.27-4.17,0.84-5.86c1.61-4.84,5.9-8.8,11.82-8.8
					c8.06,0,11.94,6.58,11.94,17.95v39.57h19.71v-42.53c0-22.44-11.44-31.32-24.37-31.32c-5.72,0-10.23,1.42-14.31,3.93
					c-3.43,2.08-6.52,5.06-9.19,9h-0.3c-3.11-7.8-10.44-12.93-19.99-12.93c-12.28,0-17.79,6.19-21.14,11.45h-0.28v-9.81H588.65z"/>
				<path class="st2" d="M954.82,338.97c3.19,0,5.83-1.65,6.18-3.79l3.16-35.53c0-3.51-4.13-6.4-9.33-6.4
					c-5.19,0-9.31,2.89-9.31,6.4l3.16,35.53c0.35,2.14,2.98,3.79,6.17,3.79H954.82z"/>
				<path class="st2" d="M935.53,350.08c1.61-2.75,1.48-5.86-0.2-7.23l-29.35-20.48c-3.04-1.76-7.62,0.35-10.22,4.85
					c-2.6,4.46-2.13,9.47,0.91,11.23l32.47,15.05c2.04,0.76,4.81-0.68,6.4-3.44L935.53,350.08z"/>
				<path class="st2" d="M974.14,350.06c1.59,2.75,4.34,4.19,6.38,3.43l32.48-15.05c3.06-1.76,3.5-6.76,0.92-11.23
					c-2.61-4.49-7.2-6.61-10.24-4.85l-29.33,20.48c-1.66,1.37-1.8,4.47-0.2,7.23L974.14,350.06z"/>
				<path class="st2" d="M954.82,383.36c3.19,0,5.83,1.65,6.18,3.78l3.16,35.53c0,3.51-4.13,6.4-9.33,6.4
					c-5.19,0-9.31-2.89-9.31-6.4l3.16-35.53c0.35-2.13,2.98-3.78,6.17-3.78H954.82z"/>
				<path class="st2" d="M974.14,372.26c1.59-2.76,4.34-4.2,6.38-3.43l32.48,15.03c3.06,1.77,3.5,6.77,0.92,11.25
					c-2.61,4.47-7.2,6.59-10.24,4.85l-29.33-20.47C972.68,378.11,972.54,375.01,974.14,372.26L974.14,372.26z"/>
				<path class="st2" d="M935.53,372.26c1.61,2.75,1.48,5.85-0.2,7.24l-29.35,20.47c-3.04,1.75-7.62-0.37-10.22-4.84
					c-2.6-4.48-2.13-9.48,0.91-11.25l32.47-15.03c2.04-0.76,4.81,0.67,6.4,3.43L935.53,372.26z"/>
				<path class="st2" d="M1022.28,396.88h0.4c0.44,0,0.81-0.15,0.81-0.52c0-0.32-0.23-0.54-0.75-0.54c-0.22,0-0.36,0.02-0.46,0.06
					V396.88z M1022.27,398.86h-0.82v-3.5c0.33-0.06,0.78-0.12,1.36-0.12c0.67,0,0.97,0.1,1.24,0.27c0.19,0.15,0.34,0.43,0.34,0.76
					c0,0.4-0.29,0.7-0.73,0.84v0.04c0.34,0.1,0.54,0.38,0.64,0.87c0.11,0.53,0.17,0.75,0.25,0.85h-0.88
					c-0.11-0.15-0.17-0.43-0.29-0.85c-0.05-0.37-0.28-0.55-0.73-0.55h-0.38V398.86z M1022.8,394.22c-1.55,0-2.71,1.26-2.71,2.81
					s1.15,2.8,2.76,2.8c1.55,0.04,2.69-1.25,2.69-2.8s-1.14-2.81-2.73-2.81H1022.8z M1022.85,393.51c2.02,0,3.59,1.55,3.59,3.52
					c0,1.99-1.57,3.53-3.63,3.53c-2.01,0-3.65-1.54-3.65-3.53c0-1.96,1.63-3.52,3.65-3.52H1022.85z"/>
			</g>
		</g>
	</g>
	<g>
		<path class="st0" d="M510.82,448.39c0-0.58,0.46-1.1,1.1-1.1h23.49c0.63,0,1.1,0.52,1.1,1.1v4.73c0,0.58-0.46,1.1-1.1,1.1h-17.08
			v9.46h14.25c0.58,0,1.1,0.52,1.1,1.1v4.79c0,0.63-0.52,1.1-1.1,1.1h-14.25v10.1h17.08c0.63,0,1.1,0.52,1.1,1.1v4.73
			c0,0.58-0.46,1.1-1.1,1.1h-23.49c-0.63,0-1.1-0.52-1.1-1.1V448.39z"/>
		<path class="st0" d="M543.54,485.73l8.48-11.6l-8.14-11.14c-0.69-0.87-0.17-1.96,0.92-1.96h5.25c0.87,0,1.56,0.06,2.19,0.92
			l4.44,6.98h0.12l4.56-6.98c0.52-0.75,1.1-0.92,2.02-0.92h5.66c1.15,0,1.44,1.1,0.75,1.96l-8.19,11.02l8.25,11.71
			c0.63,0.87,0.35,1.96-0.75,1.96h-5.54c-0.87,0-1.38-0.4-1.85-1.1l-4.91-7.33h-0.12l-5.19,7.91c-0.23,0.29-0.69,0.52-1.1,0.52h-6
			C543.25,487.69,542.96,486.59,543.54,485.73z"/>
		<path class="st0" d="M591.84,488.32c-2.65,0-5.19-0.63-6.41-1.1v12.93c0,0.63-0.63,1.27-1.27,1.27h-4.67
			c-0.69,0-1.27-0.63-1.27-1.27v-38.14c0-0.63,0.46-1.21,1.38-1.21c2.42,0,3.75,1.44,4.15,3.4c1.56-1.67,4.39-3.75,8.54-3.75
			c7.27,0,12.75,5.89,12.75,13.96C605.05,482.21,599.8,488.32,591.84,488.32z M585.43,480.25c0,0,2.19,1.5,5.54,1.5
			c4.39,0,6.64-3.58,6.64-7.33c0-3.75-2.14-7.39-6.29-7.39c-3.46,0-5.31,2.19-5.89,3.69V480.25z"/>
		<path class="st0" d="M613.77,462.01c0-0.63,0.46-1.21,1.38-1.21c2.48,0,3.87,1.62,4.21,3.64c0.98-1.33,3.4-3.98,7.44-3.98
			c3.17,0,5.77,0.87,5.02,2.6l-1.73,3.92c-0.29,0.63-0.92,0.87-1.56,0.58c-0.63-0.29-1.27-0.52-2.48-0.52
			c-2.89,0-4.62,1.85-5.08,2.77v16.62c0,0.98-0.63,1.27-1.5,1.27h-4.44c-0.63,0-1.27-0.58-1.27-1.27V462.01z"/>
		<path class="st0" d="M650.12,460.45c6.92,0,12.23,5.14,12.23,12.35c0,0.4-0.06,1.33-0.12,1.73c-0.06,0.69-0.69,1.21-1.27,1.21
			h-17.08c0.06,3.29,2.77,6.17,6.64,6.17c2.65,0,4.5-0.98,5.71-1.96c0.63-0.52,1.33-0.58,1.73,0l2.25,3
			c0.46,0.52,0.52,1.15-0.12,1.73c-2.31,1.96-5.6,3.64-9.93,3.64c-7.96,0-13.5-6.35-13.5-13.96
			C636.68,466.86,642.22,460.45,650.12,460.45z M655.08,471.01c-0.12-2.6-2.19-4.62-5.14-4.62c-3.23,0-5.31,1.96-5.66,4.62H655.08z"
			/>
		<path class="st0" d="M669.86,485.9c-0.35-0.23-0.63-0.87-0.35-1.44l1.73-3.46c0.29-0.63,0.92-0.87,1.56-0.46
			c1.21,0.75,3.12,1.73,5.89,1.73c2.02,0,2.94-0.75,2.94-1.9c0-1.21-1.5-2.31-5.02-3.69c-5.14-1.96-7.44-4.39-7.44-8.43
			c0-4.04,3.06-7.79,9.58-7.79c3.92,0,6.46,1.04,7.91,1.96c0.58,0.46,0.92,1.15,0.58,1.85l-1.5,3.06c-0.4,0.63-1.1,0.75-1.67,0.52
			c-1.27-0.58-3.12-1.33-5.31-1.33c-1.79,0-2.54,0.87-2.54,1.73c0,1.21,1.33,1.85,3.81,2.89c5.14,2.08,8.83,3.92,8.83,9.23
			c0,4.21-3.58,7.96-10.27,7.96C674.13,488.32,671.36,486.94,669.86,485.9z"/>
		<path class="st0" d="M696.57,485.9c-0.35-0.23-0.63-0.87-0.35-1.44l1.73-3.46c0.29-0.63,0.92-0.87,1.56-0.46
			c1.21,0.75,3.12,1.73,5.89,1.73c2.02,0,2.94-0.75,2.94-1.9c0-1.21-1.5-2.31-5.02-3.69c-5.14-1.96-7.44-4.39-7.44-8.43
			c0-4.04,3.06-7.79,9.58-7.79c3.92,0,6.46,1.04,7.91,1.96c0.58,0.46,0.92,1.15,0.58,1.85l-1.5,3.06c-0.4,0.63-1.1,0.75-1.67,0.52
			c-1.27-0.58-3.12-1.33-5.31-1.33c-1.79,0-2.54,0.87-2.54,1.73c0,1.21,1.33,1.85,3.81,2.89c5.14,2.08,8.83,3.92,8.83,9.23
			c0,4.21-3.58,7.96-10.27,7.96C700.84,488.32,698.07,486.94,696.57,485.9z"/>
	</g>
</g>
</svg>
