<?xml version="1.0" encoding="utf-8"?>
<!-- Generator: Adobe Illustrator 26.5.0, SVG Export Plug-In . SVG Version: 6.00 Build 0)  -->
<svg version="1.1" id="Waldos" xmlns="http://www.w3.org/2000/svg" xmlns:xlink="http://www.w3.org/1999/xlink" x="0px" y="0px"
	 viewBox="0 0 1366 768" style="enable-background:new 0 0 1366 768;" xml:space="preserve">
<style type="text/css">
	.st0{fill:#272525;}
	.st1{fill-rule:evenodd;clip-rule:evenodd;fill:#359444;}
	.st2{fill-rule:evenodd;clip-rule:evenodd;fill:#FFFFFF;}
	.st3{fill-rule:evenodd;clip-rule:evenodd;fill:url(#SVGID_1_);}
	.st4{fill-rule:evenodd;clip-rule:evenodd;fill:#F4E200;}
	.st5{fill-rule:evenodd;clip-rule:evenodd;fill:#359444;stroke:#359444;stroke-width:13.5735;stroke-miterlimit:2.6131;}
	.st6{fill-rule:evenodd;clip-rule:evenodd;fill:#FFFFFF;stroke:#FFFFFF;stroke-width:0.4242;stroke-miterlimit:2.6131;}
	.st7{fill-rule:evenodd;clip-rule:evenodd;fill:url(#SVGID_00000175310515792052272600000017636909167743424678_);}
</style>
<g>
	<path class="st0" d="M1047.03,384.85c-5.85-18.83-16.74-28.29-36.44-31.64c-11.88-2.02-23-0.04-32.56,5.65
		c-0.85-5.99-1.87-11.93-3.08-17.8l5.38-22.5c0.11-0.48,0.3-0.99,0.51-1.59c5.08-14.37-7.7-18.91-14.56-21.36
		c-1.9-0.68-3.69-1.26-5.4-1.77C919.1,188,816.49,113,696.82,113c-131.71,0-242.75,90.85-274.77,213.67
		c-0.53-0.64-1.1-1.26-1.73-1.86c-6.7-6.33-20.82-9.64-31.29-9.64c-9.95,0-17.4,2.84-21.54,8.21c-3.11,4.02-4.13,9.17-2.9,14.56
		l17.8,133.71c0.85,11.15,7.5,19.68,18.77,24.06c8.59,3.33,18.33,3.77,24.91,3.81l0.43,0c1.43,0,2.79-0.05,4.11-0.14
		c40.3,108.82,144.43,186.53,266.23,186.53c129.59,0,239.18-87.95,273.18-207.76c7.29,5.33,14.13,8.03,25.77,8.55
		c0.95,0.04,1.91,0.06,2.88,0.06c4.58,0,9.25-0.49,13.89-1.46l1.05-0.22l0.98-0.44c5-2.24,9.71-5.21,14-8.83
		c2.31-1.94,4.75-4.52,7.46-7.87c4.95-6.11,7.91-11.37,8.36-20.12c0.84-16.2-12.99-25.47-24.94-32.81c2.12,0.58,4.37,0.87,6.7,0.87
		h0c8.48,0,15.21-3.71,17.72-5.3l4.52-2.88l0.06-5.36c0.01-0.68,0.02-1.38,0.04-2.09C1048.59,395.82,1048.72,390.3,1047.03,384.85z
		 M992.87,448.31c-2.06-1.17-4.75-3.25-7-5.42c1.9,1.12,3.69,2.27,5.24,3.46C992.17,447.16,992.71,447.71,992.87,448.31z
		 M1002.97,389.83c0.05-0.01,0.11-0.01,0.18-0.01c0.91,0,1.6,0.35,1.7,0.43c0.55,1.03,1.15,4.43,0.43,9.14l-0.65,4.29l2.7,3.38
		c0.09,0.12,0.19,0.23,0.28,0.35c-4.28-3.12-7.62-6.37-8.19-9.59C999.01,395.49,1000.36,392.47,1002.97,389.83z"/>
</g>
<path class="st1" d="M696.8,113.2c156.76,0,283.88,128.18,283.88,286.25c0,158.07-127.12,286.25-283.88,286.25
	c-156.75,0-283.88-128.19-283.88-286.25C412.93,241.38,540.05,113.2,696.8,113.2L696.8,113.2z M696.8,140.67
	c141.71,0,256.64,115.89,256.64,258.79c0,142.9-114.92,258.78-256.64,258.78c-141.71,0-256.63-115.89-256.63-258.78
	C440.17,256.55,555.09,140.67,696.8,140.67L696.8,140.67z"/>
<path class="st2" d="M698.24,130.63c147.99,0,268.01,121.02,268.01,270.26c0,149.23-120.02,270.25-268.01,270.25
	c-147.99,0-268.01-121.02-268.01-270.25C430.23,251.65,550.25,130.63,698.24,130.63L698.24,130.63z M698.24,142.1
	c141.71,0,256.63,115.89,256.63,258.79c0,142.9-114.92,258.78-256.63,258.78c-141.71,0-256.64-115.89-256.64-258.78
	C441.6,257.99,556.53,142.1,698.24,142.1L698.24,142.1z"/>
<linearGradient id="SVGID_1_" gradientUnits="userSpaceOnUse" x1="696.8057" y1="658.2378" x2="696.8057" y2="140.6662">
	<stop  offset="0" style="stop-color:#3F1917"/>
	<stop  offset="0.0825" style="stop-color:#5D1B1B"/>
	<stop  offset="0.1951" style="stop-color:#7F1D1F"/>
	<stop  offset="0.3159" style="stop-color:#9A1F23"/>
	<stop  offset="0.4457" style="stop-color:#B02026"/>
	<stop  offset="0.5886" style="stop-color:#BF2127"/>
	<stop  offset="0.7549" style="stop-color:#C82229"/>
	<stop  offset="1" style="stop-color:#CB2229"/>
</linearGradient>
<path class="st3" d="M696.8,140.67c141.71,0,256.64,115.89,256.64,258.79c0,142.9-114.92,258.78-256.64,258.78
	c-141.71,0-256.63-115.89-256.63-258.78C440.17,256.55,555.1,140.67,696.8,140.67L696.8,140.67z"/>
<path class="st4" d="M532.25,281.59l3.37,24.73c14.36-3.6,28.58-6.51,40.53-2.99c24.7,7.27,27.41,38.03,31.79,59.35l35.7,174.06
	c3.94,19.22,16.66,48.1-7.98,57.35l-23.61,8.99l2.25,15.74l251.8-67.45L859.36,539c-16.16,3.23-30.32,0.88-39.15-15.12
	c-2.94-5.34-5.3-12.19-6.94-20.85c-3.14-13.54-6.25-27.07-9.31-40.61c-21.43-94.75-40.63-189.5-54.76-284.25
	C686.71,221.08,615.71,256.67,532.25,281.59L532.25,281.59z"/>
<path class="st5" d="M373.83,336.02c-4.28-16.35,31.13-11.79,39.26-4.12c1.45,1.37,2.26,2.75,2.42,4.12l2.35,76.63
	c0.82,10.03,11.61,6.86,12.11-0.85c0.18-2.76,0.66-5.49,0.98-8.24c2.05-17.47,5.41-34.83,9.09-52.02c0.92-4.27,2.39-8.25,5.41-11.1
	c4.43-4.18,9.98-2.58,15.5-1.49c3.63,0.71,7.34,1.72,11.11,2.92c9.7,3.07,8.87,10.06,9.07,18.28l2.07,52.35
	c0.36,9.16,9.76,11.82,12.07,0.9l14.6-68.99c1.62-7.65,2.74-16.05,9.85-20.84c2.62-1.77,5.79-2.57,9.68-2.08l10.22,2.96
	c5.47,1.59,9.02,3.47,9.58,10.02c0.76,8.85-5.12,22.2-7.25,31.13l-26.5,111.25c-1.14,4.76-1.45,10.27-7.15,11.73
	c-5.04,1.28-10.59-0.68-15.49-1.9l-17.2-4.3c-5.37-1.45-9.41-4.25-10.48-10l-1.45-41.9c-0.16-5.2,0.32-11.64-7.11-11.65
	c-6.28-0.01-6.65,6.57-7.49,11.06l-10.79,57.82c-3.1,1.43-7.35,2.07-12.58,2.03c-12.96-0.08-32.85-1.97-33.94-18.99L373.83,336.02
	L373.83,336.02z"/>
<path class="st5" d="M556.57,417.2c5.8,1.66,12.19,1.59,19.15-0.23c1.49-4.65,3.25-9.25,6.32-13.58c3.7-5.23,8.31-11.54,15.16-8.11
	c2.11,1.05,3.65,4.21,4.63,6.95l-0.42,21.06c-11.81,1.42-22.17,3.51-30.11,6.71c-9.34,3.76-20.64,14.4-22.32,24.82
	c-2.41,14.95,11.89,30.88,25.58,34.84c5.11,1.48,11.06,0.37,17.16-2.36c10.83-2.4,11.52,0.69,12.21,5.05l26.11,0.84
	c2.46-1.19,4.21-2.67,5.26-4.42c3.22-5.37,1.11-18.5,1.14-24.64l0.26-53.06c0.09-18.73-2.38-23.4-19.65-32.86
	c-13.69-7.49-30.4-11.85-43.86-3.14c-4.16,2.69-6.87,6.89-8.83,11.58l-8.73,16.9C551.75,411.11,546.62,414.35,556.57,417.2
	L556.57,417.2z M600.99,451.51c-1.23-8.74-12.79-6.99-23.3-0.24c-3.15,2.02-4.44,2.74-5.24,6.39c-1.2,5.41,0.75,8.59,5.29,11.16
	c4.89,2.76,10.84,3.52,18.2,1.65c2.02-0.27,3.91-0.73,4.88-2.58L600.99,451.51L600.99,451.51z"/>
<path class="st5" d="M669.15,325.72l-4.44,137.79c-0.31,9.53-2.5,15.23,5.15,21.95c6.21,5.46,12.73,5.72,19.55,0.78
	c2.28-1.64,4.59-3.87,6.93-6.67l0.85-16.67l6.17-121.12c0.75-14.61,4.05-18.75-8.9-26.74C680.83,306.62,670.62,306.41,669.15,325.72
	L669.15,325.72z"/>
<path class="st5" d="M781.59,324.49L780,373.9c-2.9,1.77-6.17,3.33-11.73-1.65c-7.09-3.54-14.18-3.61-21.27-0.19
	c-12.48,8.94-20.98,20.49-26.21,34.17c-6.76,17.67-9.45,38.1-1.3,55.74c0.89,1.92,1.89,3.79,3.02,5.59
	c6.94,11.12,15.24,17.66,28.68,17.36c9.72-0.22,11.49-3.46,17.45-9.67c2.87-2.99,5.58-4.91,8.05-5.29
	c-0.26,5.36,0.27,9.56,5.62,14.26c6.21,5.46,12.73,5.72,19.55,0.77c2.27-1.65,4.58-3.87,6.93-6.67l0.85-16.67l6.17-121.12
	c0.75-14.61,4.05-18.75-8.9-26.75C793.28,305.38,783.07,305.18,781.59,324.49L781.59,324.49z M751.64,407.3
	c-4.37,9.32-7.38,18.78-9.31,28.34c-1.67,8.31-4.14,20.94,3.3,27.22c6.91,5.84,16.48,1.71,22.37-3.28
	c4.05-3.44,7.51-7.69,10.35-12.78c7.52-13.52,10.49-29.59,5.93-44.53c-2.48-8.14-7.94-15.43-17.63-13.34
	C758.79,390.63,754.69,400.78,751.64,407.3L751.64,407.3z"/>
<path class="st5" d="M845.23,383.8c3.47-5.73,7.75-10.45,13.44-13.41c3.41-1.77,7.33-2.92,11.89-3.27
	c12,2.37,22.58,6.02,30.89,11.74c8.31,5.72,14.36,13.49,17.3,24.1c1.85,8.65,2.47,17.51,1.85,26.56c-0.62,9.06-2.47,18.33-5.56,27.8
	c-3.82,7.41-8.43,13.52-13.81,18.33c-4.19,3.74-8.85,6.69-13.99,8.85c-6.8,0.31-13.59-0.21-20.39-1.55
	c-13.41-2.64-23.63-6.14-30.58-18.54c-4.63-8.24-4.21-16.58-3.86-25.67C833.25,416.99,837.15,398.31,845.23,383.8L845.23,383.8z
	 M859.48,417.78c-3.52,12.19-9.39,46.55,8.38,51.73c7.22,2.11,13.22-3.83,16.87-9.23c3.02-4.47,5.41-9.99,7.14-16.56
	c4.13-15.61,7.3-36.22-1.66-50.58c-2.89-4.63-5.9-6.74-9.04-6.34C871.57,388.04,861.7,410.09,859.48,417.78L859.48,417.78z"/>
<path class="st5" d="M937.73,306.31l-5.23,47.03l-0.8,7.17c-0.97,5.1,1.88,13.41,19.59,10.35c2.33-0.4,4.72-1.02,7.16-1.87
	l1.53-6.39l11.11-46.46c1.34-5.61,4.8-6.87-7.76-11.34C950.14,300.1,939.99,298.95,937.73,306.31L937.73,306.31z"/>
<path class="st5" d="M1015.53,400.89c6.41,8.02,17.67,5.06,23.51,1.34c0.06-4.63,0.46-9.84-0.97-14.47
	c-4.71-15.15-12.62-22.12-28.68-24.85c-14.05-2.39-26.13,1.89-35.55,12.52c-1.3,1.47-2.47,3.04-3.49,4.75
	c-5.84,9.84-6.95,33.05,0.86,41.41c5.82,6.22,17.91,10.5,26.35,16.96c5.22,3.99,7.35,9.26,4.28,16.24
	c-5.22,11.83-21.42-2.87-25.87-8.42c-4.82-0.06-8.49,0.84-10.99,2.72c-7.23,5.41-3.17,9.24,1.66,13.31l4.99,4.21
	c8.41,7.09,13.43,9.8,24.99,10.31c4.52,0.2,9.27-0.14,14.33-1.2c4.19-1.88,8.09-4.34,11.69-7.38c2.03-1.71,4.15-4.06,6.16-6.54
	c3.84-4.74,5.85-8.11,6.18-14.43c1.11-21.39-41.21-27.02-44.88-47.82c-1.08-6.13,1.78-12.6,7.17-17.58
	c3.79-3.51,13.4-2.75,16.79,3.62C1015.93,389.14,1016.44,394.86,1015.53,400.89L1015.53,400.89z"/>
<path class="st6" d="M373.83,336.02c-4.28-16.35,31.13-11.79,39.26-4.12c1.45,1.37,2.26,2.75,2.42,4.12l2.35,76.63
	c0.82,10.03,11.61,6.86,12.11-0.85c0.18-2.76,0.66-5.49,0.98-8.24c2.05-17.47,5.41-34.83,9.09-52.02c0.92-4.27,2.39-8.25,5.41-11.1
	c4.43-4.18,9.98-2.58,15.5-1.49c3.63,0.71,7.34,1.72,11.11,2.92c9.7,3.07,8.87,10.06,9.07,18.28l2.07,52.35
	c0.36,9.16,9.76,11.82,12.07,0.9l14.6-68.99c1.62-7.65,2.74-16.05,9.85-20.84c2.62-1.77,5.79-2.57,9.68-2.08l10.22,2.96
	c5.47,1.59,9.02,3.47,9.58,10.02c0.76,8.85-5.12,22.2-7.25,31.13l-26.5,111.25c-1.14,4.76-1.45,10.27-7.15,11.73
	c-5.04,1.28-10.59-0.68-15.49-1.9l-17.2-4.3c-5.37-1.45-9.41-4.25-10.48-10l-1.45-41.9c-0.16-5.2,0.32-11.64-7.11-11.65
	c-6.28-0.01-6.65,6.57-7.49,11.06l-10.79,57.82c-3.1,1.43-7.35,2.07-12.58,2.03c-12.96-0.08-32.85-1.97-33.94-18.99L373.83,336.02
	L373.83,336.02z"/>
<path class="st6" d="M556.57,417.2c5.8,1.66,12.19,1.59,19.15-0.23c1.49-4.65,3.25-9.25,6.32-13.58c3.7-5.23,8.31-11.54,15.16-8.11
	c2.11,1.05,3.65,4.21,4.63,6.95l-0.42,21.06c-11.81,1.42-22.17,3.51-30.11,6.71c-9.34,3.76-20.64,14.4-22.32,24.82
	c-2.41,14.95,11.89,30.88,25.58,34.84c5.11,1.48,11.06,0.37,17.16-2.36c10.83-2.4,11.52,0.69,12.21,5.05l26.11,0.84
	c2.46-1.19,4.21-2.67,5.26-4.42c3.22-5.37,1.11-18.5,1.14-24.64l0.26-53.06c0.09-18.73-2.38-23.4-19.65-32.86
	c-13.69-7.49-30.4-11.85-43.86-3.14c-4.16,2.69-6.87,6.89-8.83,11.58l-8.73,16.9C551.75,411.11,546.62,414.35,556.57,417.2
	L556.57,417.2z M600.99,451.51c-1.23-8.74-12.79-6.99-23.3-0.24c-3.15,2.02-4.44,2.74-5.24,6.39c-1.2,5.41,0.75,8.59,5.29,11.16
	c4.89,2.76,10.84,3.52,18.2,1.65c2.02-0.27,3.91-0.73,4.88-2.58L600.99,451.51L600.99,451.51z"/>
<path class="st6" d="M669.15,325.72l-4.44,137.79c-0.31,9.53-2.5,15.23,5.15,21.95c6.21,5.46,12.73,5.72,19.55,0.78
	c2.28-1.64,4.59-3.87,6.93-6.67l0.85-16.67l6.17-121.12c0.75-14.61,4.05-18.75-8.9-26.74C680.83,306.62,670.62,306.41,669.15,325.72
	L669.15,325.72z"/>
<path class="st6" d="M781.59,324.49L780,373.9c-2.9,1.77-6.17,3.33-11.73-1.65c-7.09-3.54-14.18-3.61-21.27-0.19
	c-12.48,8.94-20.98,20.49-26.21,34.17c-6.76,17.67-9.45,38.1-1.3,55.74c0.89,1.92,1.89,3.79,3.02,5.59
	c6.94,11.12,15.24,17.66,28.68,17.36c9.72-0.22,11.49-3.46,17.45-9.67c2.87-2.99,5.58-4.91,8.05-5.29
	c-0.26,5.36,0.27,9.56,5.62,14.26c6.21,5.46,12.73,5.72,19.55,0.77c2.27-1.65,4.58-3.87,6.93-6.67l0.85-16.67l6.17-121.12
	c0.75-14.61,4.05-18.75-8.9-26.75C793.28,305.38,783.07,305.18,781.59,324.49L781.59,324.49z M751.64,407.3
	c-4.37,9.32-7.38,18.78-9.31,28.34c-1.67,8.31-4.14,20.94,3.3,27.22c6.91,5.84,16.48,1.71,22.37-3.28
	c4.05-3.44,7.51-7.69,10.35-12.78c7.52-13.52,10.49-29.59,5.93-44.53c-2.48-8.14-7.94-15.43-17.63-13.34
	C758.79,390.63,754.69,400.78,751.64,407.3L751.64,407.3z"/>
<path class="st6" d="M845.23,383.8c3.47-5.73,7.75-10.45,13.44-13.41c3.41-1.77,7.33-2.92,11.89-3.27
	c12,2.37,22.58,6.02,30.89,11.74c8.31,5.72,14.36,13.49,17.3,24.1c1.85,8.65,2.47,17.51,1.85,26.56c-0.62,9.06-2.47,18.33-5.56,27.8
	c-3.82,7.41-8.43,13.52-13.81,18.33c-4.19,3.74-8.85,6.69-13.99,8.85c-6.8,0.31-13.59-0.21-20.39-1.55
	c-13.41-2.64-23.63-6.14-30.58-18.54c-4.63-8.24-4.21-16.58-3.86-25.67C833.25,416.99,837.15,398.31,845.23,383.8L845.23,383.8z
	 M859.48,417.78c-3.52,12.19-9.39,46.55,8.38,51.73c7.22,2.11,13.22-3.83,16.87-9.23c3.02-4.47,5.41-9.99,7.14-16.56
	c4.13-15.61,7.3-36.22-1.66-50.58c-2.89-4.63-5.9-6.74-9.04-6.34C871.57,388.04,861.7,410.09,859.48,417.78L859.48,417.78z"/>
<path class="st6" d="M937.73,306.31l-5.23,47.03l-0.8,7.17c-0.97,5.1,1.88,13.41,19.59,10.35c2.33-0.4,4.72-1.02,7.16-1.87
	l1.53-6.39l11.11-46.46c1.34-5.61,4.8-6.87-7.76-11.34C950.14,300.1,939.99,298.95,937.73,306.31L937.73,306.31z"/>
<path class="st6" d="M1015.53,400.89c6.41,8.02,17.67,5.06,23.51,1.34c0.06-4.63,0.46-9.84-0.97-14.47
	c-4.71-15.15-12.62-22.12-28.68-24.85c-14.05-2.39-26.13,1.89-35.55,12.52c-1.3,1.47-2.47,3.04-3.49,4.75
	c-5.84,9.84-6.95,33.05,0.86,41.41c5.82,6.22,17.91,10.5,26.35,16.96c5.22,3.99,7.35,9.26,4.28,16.24
	c-5.22,11.83-21.42-2.87-25.87-8.42c-4.82-0.06-8.49,0.84-10.99,2.72c-7.23,5.41-3.17,9.24,1.66,13.31l4.99,4.21
	c8.41,7.09,13.43,9.8,24.99,10.31c4.52,0.2,9.27-0.14,14.33-1.2c4.19-1.88,8.09-4.34,11.69-7.38c2.03-1.71,4.15-4.06,6.16-6.54
	c3.84-4.74,5.85-8.11,6.18-14.43c1.11-21.39-41.21-27.02-44.88-47.82c-1.08-6.13,1.78-12.6,7.17-17.58
	c3.79-3.51,13.4-2.75,16.79,3.62C1015.93,389.14,1016.44,394.86,1015.53,400.89L1015.53,400.89z"/>
<linearGradient id="SVGID_00000170971184036641867240000008939449242165998746_" gradientUnits="userSpaceOnUse" x1="701.8305" y1="158.0938" x2="701.8305" y2="324.4174">
	<stop  offset="0" style="stop-color:#FFFFFF"/>
	<stop  offset="0.124" style="stop-color:#FFFFFF;stop-opacity:0.876"/>
	<stop  offset="1" style="stop-color:#FFFFFF;stop-opacity:0"/>
</linearGradient>
<path style="fill-rule:evenodd;clip-rule:evenodd;fill:url(#SVGID_00000170971184036641867240000008939449242165998746_);" d="
	M844.65,212.27c0-33.14-63.94-60-142.82-60c-78.88,0-142.82,26.86-142.82,60c0,33.14,63.94,60,142.82,60
	C780.71,272.27,844.65,245.41,844.65,212.27z"/>
</svg>
