<?xml version="1.0" encoding="utf-8"?>
<!-- Generator: Adobe Illustrator 26.5.0, SVG Export Plug-In . SVG Version: 6.00 Build 0)  -->
<svg version="1.1" id="Circle_K" xmlns="http://www.w3.org/2000/svg" xmlns:xlink="http://www.w3.org/1999/xlink" x="0px" y="0px"
	 viewBox="0 0 1366 768" style="enable-background:new 0 0 1366 768;" xml:space="preserve">
<style type="text/css">
	.st0{fill:#E12526;}
	.st1{fill:#FFFFFF;}
</style>
<g>
	<g>
		<path class="st0" d="M1171.94,198.15c0,103.12,0,205.67,0,308.48c-313.09,0.52-626.12,1.04-939.58,1.57
			c0-102.94,0-205.18,0-308.36C545.37,199.27,858.34,198.71,1171.94,198.15z M981.74,307.43c0,17.32,0,34.44,0,51.55
			c11.46-14.32,22.19-28.54,31.93-43.41c4.26-6.51,8.84-9.09,16.54-8.54c9.69,0.7,19.48,0.17,30.08,0.17
			c-1.53,2.25-2.48,3.74-3.53,5.17c-11.24,15.31-22.4,30.67-33.83,45.84c-2.28,3.03-2.06,4.94,0.23,7.69
			c6.29,7.55,12.31,15.32,18.44,23.01c10.58,13.27,21.15,26.55,31.76,39.86c25.32-27.49,34.16-89.93-2.13-133.02
			c-36.43-43.26-106.14-48.53-149.7-11.01c-43.13,37.16-47.5,106.62-9.44,149.71c39.01,44.17,103.77,40.84,135.46,17.93
			c-21.59-27.73-43.17-55.44-64.75-83.16c-0.38,0.18-0.76,0.36-1.14,0.55c0,17.06,0,34.12,0,51.41c-12.01,0-23.59,0-35.69,0
			c0-38.08,0-75.82,0-113.77C957.71,307.43,969.3,307.43,981.74,307.43z M539.88,379.66c4.17-3.4,8.22-5.91,11.27-9.31
			c18.76-20.88,8.75-53.18-18.82-60.38c-18.79-4.91-38.1-2.44-57.19-2.69c-1-0.01-2.92,2.52-2.93,3.87
			c-0.16,35.98-0.11,71.97-0.17,107.95c-0.01,3.01,1.07,4.1,4.1,4.04c7.49-0.15,15-0.18,22.49,0.01c3.29,0.08,4.38-1.11,4.33-4.33
			c-0.13-10.16-0.04-20.32-0.04-30.49c0-3.37,0-6.73,0-10.1c2.02,1.39,3.05,2.86,4.02,4.37c7.82,12.19,15.73,24.32,23.38,36.61
			c1.81,2.91,3.83,4.03,7.24,3.94c8.66-0.23,17.32-0.06,25.99-0.1c1.38-0.01,2.75-0.28,5.01-0.53
			C558.64,407.73,549.24,393.67,539.88,379.66z M840.87,307.13c-26.03,0-51.09,0-76.16,0c0,38.51,0,76.68,0,114.99
			c25.68,0,50.73,0,76.06,0c0-8.88,0-17.43,0-26.56c-2.13,0-3.92,0-5.71,0c-11.82,0-23.65,0.08-35.47-0.11
			c-1.55-0.02-4.32-1.35-4.4-2.25c-0.42-5.23-0.21-10.5-0.21-16.27c2.53,0,4.33,0,6.12,0c10.99,0,21.98-0.12,32.97,0.06
			c3.67,0.06,5.07-1.13,4.91-4.86c-0.24-5.32-0.19-10.66-0.02-15.98c0.11-3.24-1.08-4.35-4.35-4.31
			c-11.32,0.15-22.65,0.06-33.97,0.06c-1.76,0-3.52,0-5.32,0c0-6.33,0-11.89,0-17.96c2.36,0,4.33,0.02,6.29,0
			c11.65-0.15,23.29-0.22,34.93-0.59c1.46-0.05,4.09-1.62,4.13-2.57C841.01,322.99,840.87,315.2,840.87,307.13z M678.02,333.91
			c-8.98-20.5-38.21-32.98-64.41-27.81c-28.18,5.56-47.41,28.85-48.17,56.97c-0.78,28.77,17.56,53.67,45.53,60.06
			c27.32,6.24,56.81-5.8,66.88-27.49c-7.52-4.91-15.1-9.87-22.61-14.78c-18.21,18.36-35.94,20.93-49.63,7.47
			c-12.67-12.45-12.74-34.56-0.04-46.82c6.17-5.96,13.66-8.59,22.25-8.41c11.96,0.24,20.14,6.72,26.71,16.32
			C662.59,344.08,670.34,338.97,678.02,333.91z M421.38,334.3c-11.07-21.91-40.64-33.6-67.4-27.14
			c-27.27,6.58-45.58,30.1-45.38,58.3c0.21,28.89,18.29,51.78,46.01,58.24c26.55,6.18,55.75-5.76,66.55-27.57
			c-7.56-4.92-15.17-9.87-23.1-15.04c-6.07,8.42-13.32,14.54-23.62,15.75c-10.17,1.2-19.2-1.31-26.43-8.86
			c-12.37-12.91-11.61-34.6,1.59-46.79c13.83-12.78,31.64-9.83,48.43,8.43C405.67,344.6,413.41,339.53,421.38,334.3z M715.92,395.75
			c0-2.61,0-4.59,0-6.56c0-25.65-0.08-51.31,0.07-76.96c0.02-4.04-1.01-5.63-5.29-5.43c-6.98,0.33-14,0.26-20.98,0.02
			c-3.62-0.12-4.93,0.88-4.91,4.72c0.13,35.48,0.15,70.97-0.01,106.45c-0.02,4.15,1.47,5.06,5.22,4.99
			c16.65-0.3,33.3-0.38,49.95-0.53c4.16-0.04,8.34,0.13,12.49-0.11c1.15-0.07,3.19-1.26,3.21-1.99c0.23-8.09,0.15-16.2,0.15-24.6
			C742.32,395.75,729.54,395.75,715.92,395.75z M459.05,423.09c0-38.82,0-76.87,0-115.2c-10.11,0-19.82,0-30.16,0
			c0,2.27,0,4.22,0,6.17c0,34.13,0,68.27,0,102.4c0,1.33-0.34,2.81,0.14,3.95c0.45,1.08,1.74,2.55,2.69,2.57
			C440.67,423.17,449.63,423.09,459.05,423.09z"/>
		<path class="st0" d="M1172.55,522.34c0,5.75,0,11.21,0,16.67c0,8-0.24,16.01,0.09,24c0.18,4.39-1.14,5.67-5.59,5.65
			c-37.33-0.17-74.67-0.13-112-0.09c-98.49,0.09-196.99,0.21-295.48,0.33c-47.33,0.06-94.66,0.09-141.99,0.2
			c-49.49,0.11-98.98,0.36-148.47,0.46c-77.16,0.15-154.32,0.23-231.49,0.33c-1.63,0-3.25-0.14-5.14-0.23c0-15.06,0-29.84,0-45.58
			C545.56,523.49,858.72,522.92,1172.55,522.34z"/>
		<path class="st0" d="M1194.63,562.76c-7.4-0.13-13.53-6.5-13.41-13.94c0.12-7.37,6.61-13.74,13.83-13.58
			c7.38,0.17,13.6,6.63,13.43,13.96C1208.31,556.66,1201.94,562.9,1194.63,562.76z M1207.1,549.11c0.11-6.8-5.35-12.44-12.11-12.51
			c-6.77-0.07-12.27,5.38-12.39,12.26c-0.11,6.91,5.23,12.41,12.09,12.45C1201.55,561.36,1206.99,556,1207.1,549.11z"/>
		<path class="st1" d="M981.74,307.43c-12.44,0-24.03,0-35.77,0c0,37.95,0,75.69,0,113.77c12.1,0,23.68,0,35.69,0
			c0-17.29,0-34.35,0-51.41c0.38-0.18,0.76-0.36,1.14-0.55c21.58,27.71,43.16,55.43,64.75,83.16
			c-31.69,22.91-96.45,26.23-135.46-17.93c-38.06-43.1-33.69-112.56,9.44-149.71c43.56-37.53,113.27-32.26,149.7,11.01
			c36.28,43.09,27.45,105.53,2.13,133.02c-10.61-13.31-21.18-26.59-31.76-39.86c-6.13-7.69-12.15-15.46-18.44-23.01
			c-2.3-2.75-2.51-4.67-0.23-7.69c11.43-15.17,22.59-30.53,33.83-45.84c1.05-1.43,2-2.92,3.53-5.17c-10.6,0-20.38,0.53-30.08-0.17
			c-7.7-0.56-12.27,2.03-16.54,8.54c-9.74,14.87-20.47,29.1-31.93,43.41C981.74,341.87,981.74,324.75,981.74,307.43z"/>
		<path class="st1" d="M539.88,379.66c9.36,14,18.76,28.06,28.68,42.9c-2.25,0.25-3.63,0.52-5.01,0.53
			c-8.66,0.04-17.33-0.13-25.99,0.1c-3.41,0.09-5.42-1.03-7.24-3.94c-7.65-12.29-15.56-24.43-23.38-36.61
			c-0.97-1.51-2-2.98-4.02-4.37c0,3.37,0,6.73,0,10.1c0,10.16-0.09,20.33,0.04,30.49c0.04,3.22-1.04,4.41-4.33,4.33
			c-7.49-0.19-14.99-0.16-22.49-0.01c-3.03,0.06-4.1-1.03-4.1-4.04c0.06-35.98,0.01-71.97,0.17-107.95
			c0.01-1.35,1.92-3.89,2.93-3.87c19.09,0.25,38.4-2.22,57.19,2.69c27.57,7.21,37.58,39.5,18.82,60.38
			C548.1,373.76,544.05,376.27,539.88,379.66z M502.46,365.78c5.06,0,9.41,0.47,13.63-0.1c8.29-1.11,13.39-6.97,13.87-15.09
			c0.53-8.99-3.27-15.23-11.15-17.01c-4.31-0.98-8.88-0.97-13.33-0.97c-1.01,0-2.86,1.81-2.89,2.83
			C502.38,345.36,502.46,355.29,502.46,365.78z"/>
		<path class="st1" d="M840.87,307.13c0,8.08,0.15,15.87-0.19,23.63c-0.04,0.95-2.66,2.52-4.13,2.57
			c-11.64,0.37-23.29,0.44-34.93,0.59c-1.96,0.03-3.93,0-6.29,0c0,6.07,0,11.63,0,17.96c1.8,0,3.56,0,5.32,0
			c11.32,0,22.65,0.1,33.97-0.06c3.27-0.04,4.45,1.07,4.35,4.31c-0.17,5.32-0.22,10.66,0.02,15.98c0.17,3.73-1.23,4.92-4.91,4.86
			c-10.99-0.18-21.98-0.06-32.97-0.06c-1.8,0-3.59,0-6.12,0c0,5.77-0.22,11.05,0.21,16.27c0.07,0.9,2.85,2.23,4.4,2.25
			c11.82,0.19,23.64,0.1,35.47,0.11c1.79,0,3.58,0,5.71,0c0,9.13,0,17.68,0,26.56c-25.33,0-50.38,0-76.06,0
			c0-38.31,0-76.48,0-114.99C789.77,307.13,814.84,307.13,840.87,307.13z"/>
		<path class="st1" d="M678.02,333.91c-7.69,5.07-15.43,10.18-23.51,15.5c-6.57-9.59-14.75-16.08-26.71-16.32
			c-8.59-0.17-16.08,2.45-22.25,8.41c-12.69,12.26-12.62,34.37,0.04,46.82c13.69,13.46,31.42,10.89,49.63-7.47
			c7.51,4.91,15.09,9.87,22.61,14.78c-10.07,21.69-39.56,33.74-66.88,27.49c-27.97-6.39-46.31-31.29-45.53-60.06
			c0.76-28.12,20-51.41,48.17-56.97C639.82,300.93,669.04,313.41,678.02,333.91z"/>
		<path class="st1" d="M421.38,334.3c-7.97,5.23-15.7,10.3-23.35,15.32c-16.79-18.26-34.59-21.22-48.43-8.43
			c-13.19,12.19-13.96,33.89-1.59,46.79c7.24,7.55,16.26,10.06,26.43,8.86c10.3-1.21,17.55-7.32,23.62-15.75
			c7.93,5.16,15.54,10.11,23.1,15.04c-10.8,21.81-40,33.75-66.55,27.57c-27.72-6.46-45.81-29.35-46.01-58.24
			c-0.2-28.2,18.1-51.71,45.38-58.3C380.73,300.7,410.31,312.39,421.38,334.3z"/>
		<path class="st1" d="M715.92,395.75c13.62,0,26.4,0,39.89,0c0,8.4,0.09,16.5-0.15,24.6c-0.02,0.72-2.06,1.92-3.21,1.99
			c-4.15,0.25-8.32,0.08-12.49,0.11c-16.65,0.15-33.3,0.23-49.95,0.53c-3.75,0.07-5.24-0.84-5.22-4.99
			c0.16-35.48,0.15-70.97,0.01-106.45c-0.01-3.84,1.29-4.85,4.91-4.72c6.99,0.24,14,0.31,20.98-0.02c4.28-0.2,5.32,1.4,5.29,5.43
			c-0.15,25.65-0.08,51.31-0.07,76.96C715.92,391.17,715.92,393.14,715.92,395.75z"/>
		<path class="st1" d="M459.05,423.09c-9.42,0-18.38,0.08-27.34-0.12c-0.95-0.02-2.24-1.49-2.69-2.57
			c-0.47-1.14-0.14-2.62-0.14-3.95c0-34.13,0-68.27,0-102.4c0-1.95,0-3.89,0-6.17c10.35,0,20.06,0,30.16,0
			C459.05,346.22,459.05,384.27,459.05,423.09z"/>
		<path class="st0" d="M502.46,365.78c0-10.5-0.09-20.42,0.13-30.35c0.02-1.01,1.88-2.83,2.89-2.83c4.45,0,9.02-0.01,13.33,0.97
			c7.88,1.78,11.68,8.03,11.15,17.01c-0.48,8.12-5.58,13.98-13.87,15.09C511.88,366.25,507.53,365.78,502.46,365.78z"/>
	</g>
	<g>
		<path class="st0" d="M1189.02,555.92V542.7h5.62c1.41,0,2.44,0.12,3.08,0.36c0.64,0.24,1.15,0.66,1.54,1.27
			c0.38,0.61,0.58,1.3,0.58,2.08c0,0.99-0.29,1.81-0.88,2.46c-0.58,0.65-1.45,1.05-2.61,1.22c0.58,0.34,1.05,0.71,1.43,1.11
			c0.38,0.4,0.88,1.12,1.52,2.15l1.61,2.58h-3.19l-1.93-2.88c-0.68-1.03-1.15-1.67-1.41-1.94s-0.52-0.45-0.8-0.55
			c-0.28-0.1-0.73-0.15-1.34-0.15h-0.54v5.52H1189.02z M1191.69,548.29h1.97c1.28,0,2.08-0.05,2.4-0.16s0.57-0.29,0.75-0.56
			c0.18-0.26,0.27-0.59,0.27-0.99c0-0.44-0.12-0.8-0.36-1.08s-0.57-0.45-1.01-0.52c-0.22-0.03-0.87-0.05-1.95-0.05h-2.08V548.29z"/>
	</g>
</g>
</svg>
