<?xml version="1.0" encoding="utf-8"?>
<!-- Generator: Adobe Illustrator 26.5.0, SVG Export Plug-In . SVG Version: 6.00 Build 0)  -->
<svg version="1.1" id="SuperFarmcia" xmlns="http://www.w3.org/2000/svg" xmlns:xlink="http://www.w3.org/1999/xlink" x="0px"
	 y="0px" viewBox="0 0 1366 768" style="enable-background:new 0 0 1366 768;" xml:space="preserve">
<style type="text/css">
	.st0{fill:#FFFFFF;}
	.st1{fill:#009CDF;}
	.st2{fill:#C10E1A;}
</style>
<g>
	<g>
		<g>
			<g>
				<g>
					<path class="st0" d="M845.6,413.83l3.72-10.42l-30.71,1.81c-7.48-2.08-10.96-5.36-13.88-9.81
						c-4.52,2.97-13.32,8.88-19.74,10.68c-15.19,7.74-44.01,2.98-59.24-6.23l11.47-28.82l12.8-19.89c3.48,1.79,11.2,5.36,15.76,5.94
						c-12.28-8.03-16.54-21.99-5.87-39.51c8.8-11.85,24.04-25.82,51.5-25.82l3.72-5.04l30.99,13.94l-4.82,11.87l84.87-4.75
						c10.67,2.07,13.62,5.06,17.05,11.58c16.02-18.71,41.38-19.9,53.4-6.52l7.72-9.52l52.85-3.56l-16.29,41.3l-8.79,10.38
						l-9.61,0.31l-12.83,32.67l-7.21,10.07l-45.63,2.97c-12.25,0.9-27.74-5.34-28-18.41c-4,15.44-20.81,22.9-34.93,21.1l-1.88,5.05
						l-5.6,6.24L845.6,413.83z"/>
					<path class="st0" d="M837.56,419.85l3.72-10.41l-23.26,1.37l-0.89-0.25c-5.88-1.63-10.11-3.99-13.63-7.73
						c-4.85,3.11-11.1,6.81-16.48,8.44c-5.77,2.82-13.08,4.24-21.75,4.24c-14.79,0-31.43-4.28-42.39-10.91l-4.02-2.43l13.7-34.13
						l15.51-24.12l1.41,0.72c-2.59-8.93-0.77-19.35,5.68-29.95l0.29-0.42c13.26-17.86,31.12-27.27,53.12-28.01l4.75-6.43
						l39.94,17.97l-3.54,8.71l76.82-4.29l0.68,0.13c8.75,1.69,13.44,4.22,16.87,8.23c8.81-7.84,19.75-12.22,30.87-12.22
						c7.98,0,15.25,2.27,21.01,6.48l5.57-6.88l64.01-4.32l-19.85,50.3l-10.97,12.95l-8.42,0.28l-11.75,29.92l-9.13,12.77
						l-48.26,3.14c-0.86,0.06-1.78,0.1-2.71,0.1c-9.9,0-20.3-3.71-26.24-10.77c-7.6,9.43-19.94,13.82-30.59,13.63l-0.81,2.17
						l-7.82,8.72L837.56,419.85L837.56,419.85z M857.37,397.38l-3.73,10.43l30.17-1.76l3.37-3.76l3.05-8.19l4.36,0.56
						c1.15,0.15,2.33,0.22,3.51,0.22c10.07,0,22.29-5.39,25.35-17.21l10.91,1.28c0.19,9.01,11.88,13.07,20.11,13.07
						c0.65,0,1.31-0.02,1.94-0.07l43.06-2.81l5.28-7.38l13.91-35.43l10.8-0.35l6.61-7.8l12.74-32.29l-41.7,2.81l-10.29,12.69
						l-4.34-4.83c-4.11-4.58-10.34-7.11-17.53-7.11c-10.13,0-20.17,4.93-27.53,13.53l-5.32,6.2l-3.8-7.23
						c-2.51-4.76-3.91-6.83-12.53-8.59l-92.92,5.19l6.11-15.03l-22.04-9.92l-2.73,3.69h-2.8c-19.79,0-35.13,7.65-46.89,23.38
						c-8.07,13.4-6.55,24.68,4.3,31.77l-3.74,10.14c-3.95-0.51-9.23-2.62-13.03-4.33l-9.86,15.32l-9.44,23.72
						c9.12,4.33,21.58,7.11,32.54,7.11c7.05,0,12.99-1.13,17.2-3.27l1.02-0.4c5.3-1.49,13.28-6.74,17.56-9.56l5.27-3.46l3.04,4.64
						c2.18,3.33,4.55,5.62,9.88,7.26L857.37,397.38L857.37,397.38z"/>
				</g>
				<g>
					<path class="st0" d="M603.28,532.91l31.48-80.18l-14.14,0.91l42.72-50.81l61.09-3.54l-11.21,28.82
						c7.21-3.87,7.21-4.48,18.68-5.36l163.58-9.52c10.68-0.85,17.34,3.27,17.88,9.22c4.54-6.54,14.67-11.29,22.68-11.59l51.75-3.25
						l-2.64,6.23c13.6-7.74,24.53-8.05,38.15-8.05l5.6-14.84l10.7-13.96l39.21-2.35l-13.34,33.86c5.87-4.48,12.28-6.28,19.76-6.53
						l49.09-2.99l-20.57,52.26l10.96-0.29l-28.03,42.77l-7.45,10.08l-32.31,2.09c-8.56-0.9-18.68-4.48-21.33-16.04l-3.73,5.35
						l-8.57,12.16l-46.42,3.26c-10.43-1.18-17.87-6.83-21.61-16.92c0.28-0.6-1.33,2.95-4.29,7.7l-7.74,11.01l-28.25,2.38
						c-9.62,0-20.56-9.5-23.23-18.43l-12.81,19.6l-101.42,6.54l21.09-55.53h-4.28l-16.81,43.04l-8.51,12.8l-66.2,3.85
						c-21.64,0.28-32.29-21.99-30.16-37.42l-10.94,27.93l-10.14,12.76L603.28,532.91z"/>
					<path class="st0" d="M594.94,538.97l31.47-80.16l-18.38,1.18l52.6-62.57l72.09-4.18l-9.68,24.88c2.13-0.36,4.77-0.64,8.43-0.91
						l163.68-9.53c0.98-0.08,2.03-0.12,3.05-0.12c7.11,0,12.89,2.06,16.52,5.62c5.86-4.53,13.76-7.6,21.11-7.87l60.57-3.81
						l-0.75,1.75c8.45-2.57,16.24-2.95,23.8-3l4.55-12.03l12.74-16.62l50.42-3.02l-11.45,29.05c2.89-0.69,5.99-1.08,9.34-1.19
						l57.62-3.52l-20.69,52.56l13.18-0.35l-34.02,51.89l-8.98,12.16l-35.35,2.29l-0.47-0.05c-9.68-1.02-17.08-4.69-21.65-10.6
						l-8.38,11.9l-49.55,3.49l-0.51-0.06c-8.91-1.01-16.04-4.81-21.03-11.13l-8.94,12.72l-31.29,2.62c-9.15,0-18.1-5.95-23.65-13.19
						l-9.26,14.17l-112.78,7.27l0.09-0.24l-0.04,0l-66.93,3.87c0,0,0,0-0.01,0c-9.97,0-18.75-4.02-25.39-11.65
						c-2.68-3.07-4.89-6.66-6.56-10.49l-3.88,9.9l-12.19,15.34L594.94,538.97L594.94,538.97z M643.1,446.63l-31.49,80.21l37.15-2.29
						l8.08-10.17l10.64-27.15l10.65,2.78c-1.07,7.74,1.83,17.09,7.22,23.27c3.12,3.58,8.61,7.85,17.04,7.85l0.23,0l63.3-3.69
						l6.65-10l17.97-46.01h16.1l-20.89,54.99l90.05-5.8l17.84-27.29l3.41,11.46c2.07,6.96,11.11,14.32,17.71,14.47l25.41-2.14
						l6.16-8.76c2.45-3.95,3.87-6.94,3.93-7.07l1.5-3.17l6.57-0.01l3.27,5.16l-0.28,0.6c3.07,6.56,8.23,10.23,15.69,11.2l43.26-3.04
						l17.93-25.6l2.79,12.2c0.57,2.51,2.31,10.11,16.05,11.71l29.25-1.9l5.83-7.89l22.14-33.78l-8.75,0.23l20.45-51.96l-40.41,2.46
						c-7.03,0.23-12.15,1.9-16.74,5.4l-15.81,12.07l17.45-44.28l-28.01,1.68l-8.66,11.3l-6.67,17.66h-3.83
						c-14.03,0-23.41,0.49-35.4,7.32l-14.25,8.11l5.54-13.07l-42.8,2.69c-6.9,0.26-15.13,4.39-18.48,9.22l-8.69,12.52l-1.38-15.18
						c-0.26-2.86-5.28-4.72-11.92-4.2l-163.7,9.53c-9.02,0.69-9.52,0.96-14.35,3.61l-15.27,8.21l13.54-34.78l-50.09,2.9
						l-32.83,39.05L643.1,446.63L643.1,446.63z"/>
				</g>
			</g>
			<g>
				<g>
					<g>
						<path class="st1" d="M928.68,463.48c-0.26,1.19,1.07,2.69,2.95,2.37l6.91-17.81C937.5,447.74,927.62,453.67,928.68,463.48z"/>
					</g>
					<g>
						<path class="st1" d="M717.6,477.13c-0.26,1.19,1.08,2.1,2.69,2.1l7.48-18.12C724.81,461.11,716.8,467.93,717.6,477.13z"/>
					</g>
					<g>
						<path class="st1" d="M759.24,458.75l-7.47,19.57h1.86l7.75-19.57C760.84,459.32,758.97,458.75,759.24,458.75z"/>
					</g>
					<g>
						<polygon class="st1" points="1041.04,459.91 1042.38,459.91 1044.5,452.5 1043.95,452.5 						"/>
					</g>
					<g>
						<path class="st1" d="M1134.44,398.73l-49.12,2.97c-7.44,0.31-13.87,2.1-19.77,6.53l13.38-33.85l-39.23,2.39l-10.68,13.96
							l-5.6,14.84c-13.61,0-24.57,0.28-38.18,8l2.67-6.23l-51.79,3.26c-7.99,0.3-18.12,5.06-22.68,11.57
							c-0.51-5.92-7.18-10.09-17.88-9.2l-163.56,9.51c-11.46,0.89-11.46,1.5-18.69,5.36l11.22-28.81l-61.12,3.57l-42.68,50.76
							l14.13-0.86l-31.47,80.17l48.29-2.96l10.13-12.77l10.95-27.92c-2.14,15.43,8.56,37.69,30.13,37.42l66.19-3.87l8.56-12.77
							l16.79-43.04h4.28l-21.07,55.52l101.38-6.52l12.82-19.61c2.65,8.92,13.61,18.42,23.21,18.42l28.3-2.37l7.74-11.01
							c2.94-4.73,4.53-8.31,4.25-7.71c3.77,10.11,11.21,15.76,21.65,16.94l46.43-3.29l8.54-12.18l3.73-5.33
							c2.67,11.56,12.8,15.14,21.34,16.02l32.27-2.06l7.48-10.11l28.01-42.77l-10.92,0.3L1134.44,398.73z M1041.56,380.61l31.5-2.06
							l-9.87,26.14l-31.22,1.17L1041.56,380.61z M1114.14,456.95l-20.25,30.88l-33.66,2.06c-12.28,0-16.81-12.46-18.16-17.22
							l-13.31,18.74l-30.15,1.79l17.87-45.46v-1.5c-7.75-0.87-20.26,0-22.4,11.01c-1.33,9.51,9.08,7.42,13.61,6.51l-11.73,29.72
							c-10.4,0.9-24.84,2.09-30.7-11.88c-1.07-2.38-1.85-5.35-2.38-8.03l-14.7,22.57l-32.8,1.79c-5.65,0.3-12.58-6.25-14.7-11.01
							c-2.15-2.36-2.42-5.03-2.69-5.32l-12.53,18.13l-29.37,1.76l18.16-47.82h-1.87l-18.65,47.82l-29.36,1.78l18.94-48.7l-1.86,0.3
							l-18.95,48.7l-30.67,1.77l17.89-48.7l-15.77,0.59l-18.7,48.7l-72.32,4.15c-5.34-0.31-12.52-5.94-14.39-12.46
							c-3.18-8.62-1.87-17.23-1.6-19.9c-5.57,0.57-9.87,0.88-15.48,1.19l-13.32,33.84l-35.79,2.07l29.66-76.6l-8.55,0.29
							l22.13-30.89l52.03-3.26l-12.26,32.06l-18.97,1.22l-3.46,8.87l17.65-0.88l-1.87,4.75c8-13.06,16.53-20.49,29.34-21.96
							l43.21-2.39l-3.98,10.67l8.79-11.27l46.69-2.38c-0.8,3.56-1.06,4.76-0.8,4.15l3.48-4.75l27.74-1.51l-1.08,3.89l3.2-3.89
							l15.8-1.19c3.44-0.31,7.69,0,8.52,5.96l6.12-6.54c7.74-0.56,20.02-3.86,23.49,5.36c0.83,4.16,1.34,4.75,0.52,9.78
							c0,0,10.68-19,33.08-18.39l38.19-2.09l-6.14,18.15c0.27-0.93,9.66-25.1,53.68-20.35l-3.01,6.4l6.45-7.46l29.62-1.77
							l-5.62,13.65c7.22-7.14,14.13-12.77,24.55-14.85l45.92-2.97l-21.35,52.88L1114.14,456.95z M1006.63,452.5l-2.97,7.71
							c-1.06,0.58-5.86,2.37-5.86-2.37C998.34,452.19,1005.01,451.61,1006.63,452.5z"/>
					</g>
					<g>
						<path class="st1" d="M1071.97,455.46c0,1.2,1.09,2.68,2.71,2.39l7.18-17.83C1079.45,440.02,1071.71,446.24,1071.97,455.46z"/>
					</g>
				</g>
				<g>
					<g>
						<path class="st1" d="M910.04,342.32l-3.66,10.01c3.49-1.1,6.57-6.66,5.83-9.95C911.93,341.77,910.62,341.45,910.04,342.32z"/>
					</g>
					<g>
						<polygon class="st1" points="875.33,359.25 876.64,359.55 882.25,344.68 881.19,344.68 						"/>
					</g>
					<g>
						<path class="st1" d="M822.48,353.29l2.38-5.62l-4-0.3C821.68,349.16,822.48,350.34,822.48,353.29z"/>
					</g>
					<g>
						<path class="st1" d="M804.06,328.37c-2.65,0-2.41,3.25,0.26,4.74c4.81,2.96,12.82,7.7,15.21,11.88l9.61-16.06
							C816.35,325.68,805.13,327.15,804.06,328.37z M817.14,335.49c2.13,0,2.68,0,5.34,1.18l-2.95,3.26l-5.07-4.45H817.14z"/>
					</g>
					<g>
						<path class="st1" d="M967.11,353c4.82,0,6.93-1.19,10.69-2.97l-15.19,0.92C963.66,353.6,965.79,353,967.11,353z"/>
					</g>
					<g>
						<path class="st1" d="M1004.47,303.12l-7.74,9.5c-12-13.38-37.34-12.19-53.37,6.53c-3.47-6.53-6.39-9.51-17.06-11.57
							l-84.87,4.74l4.79-11.89l-30.96-13.95l-3.72,5.06c-27.48,0-42.7,13.97-51.5,25.83c-10.66,17.51-6.41,31.48,5.86,39.5
							c-4.52-0.62-12.27-4.14-15.73-5.92l-12.84,19.87l-11.43,28.81c15.2,9.22,44.03,13.94,59.24,6.22
							c6.4-1.76,15.21-7.71,19.74-10.67c2.93,4.45,6.4,7.74,13.88,9.78l30.69-1.77l-3.74,10.38l40.85-2.34l5.57-6.27l1.88-5.03
							c14.15,1.77,30.96-5.65,34.95-21.09c0.25,13.04,15.74,19.3,28.06,18.41l45.6-2.97l7.22-10.09l12.82-32.67l9.59-0.32l8.81-10.4
							l16.3-41.27L1004.47,303.12z M1038.89,335.79l-16.25,0.87l-16.57,41.58L977,380.34l10.12-27.61h-0.8l-9.59,24.94
							c-5.62,3.25-11.2,3.85-17.6,4.43c-24.84,2.1-24.84-17.52-25.64-17.21c-4.55,8-18.68,21.66-37.38,18.4l-6.12,16.33l-30.14,1.79
							l5.31-14.56L827,389.24c-12.54,1.19-10.93-12.75-11.18-12.75c-15.77,27.32-53.64,25.82-76.59,12.44l13.32-32.06
							c9.35,4.15,21.65,7.13,31.25,4.74l0.8-0.59c4.54-2.38,0.53-6.24-3.49-8.29c0.28,0-15.73-5.36-17.34-16.66
							c-1.58-11.57,5.61-21.97,17.62-29.99c9.34-6.54,16.81-9.19,30.69-9.49l4.27-4.76l24.53,11.28l-9.03,21.67l5.59-7.42l25.33-1.5
							l-17.34,44.26c-0.27,0.59,0,0.89,0.26,0.89l1.87-0.3l17.61-45.14l27.21-1.48l-2.39,8.31l5.34-8.31l27.74-1.79
							c13.37,0.3,17.89,9.2,18.96,17.52c10.15-23.16,43.52-29.7,53.64-9.2l10.4-13.06l45.11-2.38L1038.89,335.79z"/>
					</g>
				</g>
			</g>
			<g>
				<g>
					<polygon class="st2" points="1039.08,401.45 1044.98,385.71 1065.28,384.8 1059.14,400.25 					"/>
				</g>
				<g>
					<polygon class="st2" points="632.43,507.76 660.46,433.81 653.22,434.41 668.72,413.03 709.82,410.95 702.33,431.44 
						682.33,432.62 674.03,453.41 693.79,452.21 685.78,472.42 666.82,473.61 654.57,506.59 					"/>
				</g>
				<g>
					<path class="st2" d="M751.18,500.93l18.13-46.33l-7.47,0.29l16.8-22.56l18.43-1.17L792,444.5
						c1.34-1.49,10.69-12.17,11.99-13.66l13.33-0.88l-8.52,22.24l-20.32,1.2l-18.12,46.62L751.18,500.93z"/>
				</g>
				<g>
					<path class="st2" d="M818.43,451.33l-6.67,0.58l15.2-22.57l20.56-1.47l-6.13,15.44l14.39-15.76l11.21-0.58
						c10.39,0.9,8.01,9.81,6.17,14.85l16.27-16.35l8.79-0.59c4.26,0.29,9.34,4.16,6.67,11.89l-15.2,39.79l5.86-0.6l-12.27,17.23
						l-19.76,1.19l18.39-46.94l-11.18,1.18l-18.13,46.04l-20.3,1.21l17.88-46.34l-11.48,0.89l-18.13,46.04l-19.76,1.2L818.43,451.33
						z"/>
				</g>
				<g>
					<path class="st2" d="M967.31,463.49c3.21-28.52,25.6-47.2,53.64-45.11l-8.01,21.07c-22.66-5.36-39.2,34.74-12,30.89
						l-7.21,18.11C989.2,488.46,967.31,491.41,967.31,463.49z"/>
				</g>
				<g>
					<polygon class="st2" points="1006.55,486.67 1025.21,438.26 1016.42,438.85 1033.24,417.19 1052.97,416.01 1032.97,467.96 
						1039.63,467.66 1027.11,485.2 					"/>
				</g>
				<g>
					<path class="st2" d="M762.1,433.18l-18.69,0.91l-1.32,3.58c-0.26,0.29-2.94-4.76-15.21-1.48
						c-20.55,4.44-33.64,27.91-33.64,46.03c-0.26,9.78,2.69,17.53,10.95,21.09c2.65,1.17,5.06,0.56,6.64,0.88l11.49-15.15
						l-5.85,13.97l19.99-1.2l13.37-16.91l-7.23,0.3L762.1,433.18z M723.15,486.37c-2.14,0.3-6.66,1.47-9.33-1.78
						c-4.28-6.54,0.78-17.24,3.18-20.8c5.63-8.91,15.48-10.39,18.16-8.61L723.15,486.37z"/>
				</g>
				<g>
					<path class="st2" d="M972.72,420.28l-18.68,1.17l-0.79,3.27c0,0.3-7.22-4.45-17.61-1.49c-21.62,6.84-31.76,28.51-32.56,47.23
						c1.05,19.3,13.88,21.67,17.06,20.8l13.07-16.66l-6.41,15.45l19.49-0.89l11.75-17.21l-5.33,0.28L972.72,420.28z M933.76,473.42
						c-5.87,1.18-15.47-0.58-9.58-18.11c5.86-15.74,22.13-14.27,21.33-12.17L933.76,473.42z"/>
				</g>
				<g>
					<path class="st2" d="M746.6,385.71l8.59-21.68c7.72,2.37,16.27,5.93,27.73,3.56c4.29-0.9,7.19-3.24,9.09-8.03
						c1.87-8.88-15.73-11.58-20.55-17.81c-6.93-10.4,1.32-21.99,10.15-29.39c3.71-2.99,10.93-6.26,15.75-8.05
						c5.34-1.77,12.26-2.38,17.33-2.66l2.13-3.54l18.16,8.31l-7.48,18.4c-5.33-0.88-5.88-1.48-14.67-2.06
						c-4.82,0.57-17.9,0.87-17.37,8.6c-0.78,3.25,8.03,8.03,14.42,12.19c8.04,8.61,8.04,20.18,0.55,30.58
						C799.21,390.75,775.19,397.29,746.6,385.71z"/>
				</g>
				<g>
					<polygon class="st2" points="1001.21,331.95 993.73,332.54 1008.99,313.23 1026.03,312.07 1021.49,322.76 1030.86,312.07 
						1043.63,311.16 1036.69,329.86 1018.55,331.05 1003.08,372.64 985.18,373.84 					"/>
				</g>
				<g>
					<path class="st2" d="M823.22,380.63c-3.74-2.63-2.95-7.71-1.61-12.75l10.42-25.84l-6.38,0.59l13.6-19.6l16.78-0.88l-15.21,40.4
						c-0.79,4.13,6.94,3.56,10.17,2.66l16.79-43.94l18.42-0.91l-16.81,44.54l5.87-0.57l-12.01,16.01l-18.69,1.2l5.34-13.07
						c-0.52,0.28-13.08,15.16-11.21,13.37C835.25,382.14,825.91,383.63,823.22,380.63z"/>
				</g>
				<g>
					<path class="st2" d="M922.49,318.6l-12,11.86l4.79-11.86l-18.4,1.17l-12.82,19.28l6.14-0.28l-21.61,56.16l18.14-1.2l9.33-25.24
						h0.27l1.05,8.02C932.63,380.93,948.9,322.76,922.49,318.6z M917.43,344.11c-1.61,8.62-7.2,16.04-17.88,14.87l8.27-21.38
						C912.1,337.3,918.48,335.51,917.43,344.11z"/>
				</g>
				<g>
					<path class="st2" d="M987.61,345.62c2.66-5.65,3.99-9.81,3.72-16.64c0-5.65-4.55-11.87-9.87-13.66
						c-17.35-4.16-26.16,5.96-32.29,13.35c-5.87,8.92-10.41,17.83-10.68,28.82c0.27,4.15,0.55,5.36,2.14,9.48
						c1.06,2.99,2.67,5.08,5.34,6.56c2.39,1.47,4.53,2.4,7.73,2.4h0.26c6.69,0.57,13.63-1.21,19.49-4.21l7.47-16.31
						c-8.26,2.98-31.22,8.62-23.22-8.31L987.61,345.62z M970.95,328.67l0.42-0.03c2.89-0.06,6.05-0.13,5.35,6.41l-13.46,0.44
						C964.06,333.12,968.39,328.5,970.95,328.67z"/>
				</g>
				<g>
					<path class="st2" d="M1115.67,412.43l-18.62,1.17l-0.82,2.69c-0.29,0.59-3.74-4.16-15.2-1.49
						c-18.17,3.86-33.09,23.46-33.92,46.61c-0.56,10.72,4.52,22.29,17.61,21.69c0,0,10.18-13.12,12.24-15.8
						c0.06-0.11-6.63,15.22-6.63,15.22l18.42-0.88l13.35-17.84l-6.69,0.31L1115.67,412.43z M1077.35,466.36
						c-5.83,1.15-15.47-0.62-9.6-18.14c5.89-15.75,22.19-14.24,21.37-12.17L1077.35,466.36z"/>
				</g>
			</g>
		</g>
		<g>
			<g>
				<path class="st0" d="M447.56,204c97.89,0,177.76,92.37,177.76,205.59c0,113.08-79.88,205.32-177.76,205.32
					c-97.89,0-177.76-92.24-177.76-205.32C269.8,296.37,349.68,204,447.56,204z"/>
			</g>
			<g>
				<g>
					<path class="st1" d="M618.16,398.15c-1.59-23.07-4.13-36-8.77-52.19c-6.08-19.31-10.83-30.12-20.43-47.56
						c-4.85-8.16-8.77-13.17-14.72-21.46c-11.42-13.93-15.81-18.43-25.53-26.84c-15.2-13.32-29.8-21.09-45.86-27.88
						c-14.58-5.5-22.5-8.02-41.36-10.02c-16.05-1.14-22.25-1.14-40.5,1.64c-25.18,4.62-39.67,12.17-60.71,24.95
						c-15.55,10.91-25.91,20.96-39.05,37.16c-6.92,9.55-12.89,17.69-18.36,27.1c-11.31,21.45-13.74,29.48-17.51,41.78
						c-3.9,15.56-7.06,29.24-8.26,45.16c-1.46,18.58-1.46,22.36-0.13,39.79c3.05,22.46,2.69,22.35,7.18,39.4
						c7.9,25.86,9.12,27.1,17.64,44.44c10.45,18.19,14.59,23.45,28.58,40.52c15.58,15.81,30.04,27.22,49.99,37.52
						c23.22,10.43,34.43,13.95,61.31,15.68h0.86c19.46,0.26,30.28-1.5,45.74-5.52c25.04-8.15,39.52-15.56,61.54-34.01
						c25.42-23.45,31.15-34.01,41.72-51.95c5.48-11.16,6.57-11.66,13.14-28.61c5.23-15.29,6.17-18.5,10.28-37.04
						C618.19,426.85,618.89,421.89,618.16,398.15z M603.92,453.55c-2.28,12.62-6.77,26.15-10.67,35.66
						c-3.45,8.77-5,11.15-9.25,19.76c-6.14,11.01-7.48,12.89-12.9,20.89c-12.04,15.69-18.72,23.91-38.24,39.05
						c-14.35,10.56-28.2,17.04-44.5,22.49c-5.59,1.73-18,5.15-34.52,6.01c-29.38,0.76-49.31-6.08-54.9-8.41
						c-12.2-4.72-23.48-9.41-39.29-21.39c-12.57-9.63-27.66-26.02-27.66-26.02c-11.15-13.17-21.55-29.62-29.31-47.71
						c-6.53-16.56-8.6-25.39-8.6-25.39s-2.34-12.12-2.78-21.77c-0.36-7.67-0.82-14.37-0.21-23.6c2.51,17.41-0.81,10.94,8.96,49.19
						c5.61,17.83,7.78,20.37,10.39,25.88c6.1,12.37,9.82,19.97,22.03,35.61c16.66,20.58,28.74,30.29,49.28,41.7
						c27.27,15.2,56.97,19.18,87.38,15.04c19.49-4.4,34.22-9.7,52.21-20.74c17.89-11.12,33.69-27.03,45.13-43.43
						c7.41-12.41,14.71-23.96,19.82-37.36c7.16-17.34,10.83-31.52,13.38-49.59c2.19-18.33,3.29-26.1,1.46-45.41
						c-1.11-14.2-1.19-16.73-3.73-28.04c8.64,23.22,8,24.23,9.7,35.52C608.38,423.18,607.54,435.25,603.92,453.55z M294.37,410.31
						c1.21-35.64,5.47-52.21,16.29-80.45c13.27-27.61,22.4-41.29,46.23-63.25c20.81-18.57,46.83-31.12,74.33-34.26
						c11.56-1.24,25.41-1.76,42.69,1.65c20.8,5.9,22.87,6.4,41.36,16.68c15.2,8.67,20.18,13.57,34.43,27.86
						c15.08,18.45,24.19,29.35,34.42,54.34c8.39,22.46,10.32,30.37,13.27,50.81c2.66,28.99,2.3,40.79-1.11,60.75
						c-3.28,22.85-8.39,33.5-14.1,47.17c-9.73,20.46-12.66,25.73-27.62,45.06c-20.61,22.33-28.58,27.61-48.65,38.53
						c-17.16,6.63-34.49,17.1-75.05,12.95c-33.79-5.54-54.11-16.37-75.49-34.6c-29.92-26.73-41.88-53-52.35-83.41
						C297.11,445.25,295.6,438.68,294.37,410.31z M615.51,419.07c-0.62,8.28-0.89,16.37-2.28,23.49
						c-0.69-22.81-0.83-26.17-3.75-50.27c-1.67-16.38-3.75-26.61-6.67-38.38c-2.39-9.55-5.19-15.67-8.46-24.8
						c-4.18-9.54-6.16-13.22-11.8-23.93c-10.93-17.22-22.21-33.81-44.71-51.53c-14.47-11.05-27.63-17.81-40.83-22.94
						c-12.36-4.67-28.32-8.86-50.26-8.99c-17.75,0-34.51,3.76-50.69,9.41c-25.91,9.65-49.82,28.43-64.5,46.27
						c-12.17,14.07-21.17,28.49-26.32,39.27c-5.69,11.62-7.71,17.72-11.25,28.3c-3.62,11.92-5.27,18.18-7.92,34.44
						c-1.94,15.39-1.94,19.88-2.23,36.13c0.98,16.53,1.4,18.76,2.51,28.7c0,0.06,3.61,21.83,6.57,35.56l3.53,17.44l-3.26-8.53
						c-3.89-11.22-5.01-16.52-8.83-29.71c-3.2-16.09-4.96-26.65-5.67-45.6c0.13-25.71,3.4-46.28,10.21-70.39
						c7.3-22.83,18.61-44.8,33.94-64c9.85-11.91,17.26-19.56,30.17-30.49c18.12-12.42,25.54-17.31,43.67-24.22
						c13.62-4.62,22.13-7.02,39.29-8.78c15.94-0.88,27.12-0.38,42.56,3.02c27.62,6.64,42.35,15.43,58.65,27.09
						c14.71,11.17,16.4,13.31,25.42,22.7c12.64,14.45,19.22,23.74,28.58,40.8c10.34,21.34,12.28,27.23,18,47.19
						c3.17,15.19,3.85,18.88,5.31,32.19C615.47,402.05,616,402.13,615.51,419.07z"/>
				</g>
				<g>
					<path class="st1" d="M374.23,563.11c18.03,10.9,27.13,14.29,44.81,19.27c18.75,3.6,33.53,4.05,55.89,0.5
						c33.54-10.4,41.38-16.74,64.86-35.99c14.36-14.7,23.2-24.32,34.5-46.87c11.17-24.21,14.74-30.18,20.4-66.78
						c2-28.24,1.36-32.65-2.59-61.59c-6.92-32.98-18.31-55.93-35.61-79.57c-19.17-24.09-32.79-32.32-53.55-43.6
						c-17.06-7.46-24.68-10.12-46.19-12.91c-24.68,0-35.74,2.42-48.38,5.94c-24.2,9.52-28.99,11.8-46.19,25.5
						c-10.8,9.47-11.05,9.86-21.97,21.9c-11.3,14.31-10.94,13.92-18.81,27.49c-9.7,20.4-11.05,24.21-16.45,41.81
						c-4.8,19.27-5.04,25.47-6.64,42.46c0,24.57,0.38,26.98,3.33,47.64c5.89,31.04,15.22,52.07,36.35,81.1
						C348.55,543.35,360.83,553.48,374.23,563.11z M359.98,533.2c-0.12,2.13-2.19,4.02-5.1,3.91l-6.44-0.13
						c-2.91-0.12-3.52-2.67-3.64-5.58c0-13.81,0.38-33.82,0.12-36.74c0-2.02,1.1-4.17,3.39-3.92h11.07v8.1h-8.02v11.3l5.82,0.12
						c1.97,0.25,2.8,2.14,2.8,3.67V533.2z M379.8,533.55c-0.38,3.8-2.93,4.58-4.88,4.58l-9.1-0.38c-1.83-0.4-3.04-1.79-3.04-4.2
						l0.12-42.7l6.82,0.15l0.13,39.16h3.26V491l6.7,0.12V533.55z M392.41,539.02h-0.12v-5.33h-3.52l-0.36,4.94l-6.57-0.12
						l4.25-47.51l10.58,0.12c0.72,16.09,1.93,32.06,2.79,48.01L392.41,539.02z M418.04,498.97v33.7c-0.61,3.93-2.3,6.72-6.07,7.1
						l-9.72-0.14v-48.02h10.45C417.08,491.88,418.29,495.3,418.04,498.97z M429.95,540.92l-0.36-5.35h-3.41l-0.12,4.95l-6.68,0.13
						c0.86-12.79,2.07-31.42,3.52-48.66h10.2l3.4,48.92H429.95z M453.03,533.3v7.49l-13.59,0.13v-48.67h7.16v41.05H453.03z
						 M448.51,567.06c-2.71,0-4.92-2.17-4.92-5.08c0-2.66,2.21-4.94,4.92-4.94c2.7,0,4.9,2.29,4.9,4.94
						C453.4,564.89,451.2,567.06,448.51,567.06z M465.54,540.8l-0.36-5.33h-3.77l-0.25,5.33h-6.42l3.03-48.41h10.21l3.88,48.27
						L465.54,540.8z M490.08,534.32c-0.11,4.81-2.06,6.08-5.7,6.08h-5.72c-3.16,0-4.97-0.76-5.46-3.8v-11.9h6.67v7.85
						c0,0.66,0.25,1.15,0.86,1.15h1.21c0.73,0,0.98-0.39,0.98-1.02v-41.31h7.41L490.08,534.32z M502.84,539.13l-0.24-5.18h-4.02
						l0.11,5.55l-6.92,0.26l2.67-48.41l11.42-0.24l3.77,47.76L502.84,539.13z M522.57,538.39l-2.43-16.37l-0.93,0.06v16.45
						l-7.09,0.24v-47.91l10.93-0.1c3.6,0.13,5.84,3.09,5.84,7.59c0,0,0.02,18.23-0.01,18.25c-0.01,0.01,0.32,3.01-2.29,4.17
						l3.64,17.1L522.57,538.39z M541.59,536.6l-0.25-5.95l-3.39,0.14v6.2l-6.81,0.63l2.79-47.25l10.94-0.12l3.28,45.73L541.59,536.6
						z M496.22,269.58h8.96v-8.22h10.44v8.22h8.97v9h-8.97v8.23l-10.48-0.03l0.04-8.08h-8.96V269.58z M433.32,248.09
						c9.12,0,19.49,0,28.75,0v5.07h-19.9v2.77l19.46-0.02l0.02,5.48h-19.61v4.31h-8.72V248.09z M441.69,271.14l12.03-0.02
						l9.43,17.78h-9.28l-1.13-3.05h-10.04l-1.13,3.05h-9.14L441.69,271.14z M462.65,310.94h-10.44l-2.59-5.06h-7.44v5.06h-8.99
						v-17.34h25.55c2.22,0.13,3.14,0.89,3.14,3.03l0.12,5.58c0,1.78-1.83,2.77-3.91,2.77L462.65,310.94z M431.69,316.39h10.86
						l4.92,9.5l5.42-9.5h10.61v17.6h-8.45v-8.99l-4.63,9.04l-6.23-0.05l-4.41-8.99v9.12l-8.07,0.13V316.39z M458.89,451.72h-25.86
						v-5.18h22.45c0.23-0.14,0.61-0.14,0.71-0.65v-1.38c0-0.52-0.48-0.91-0.96-0.91h-19.14c-2.52,0-3-1.24-3.08-2.95l0.02-6.65
						c0-1.53,1.25-2.83,2.85-2.83l26.91,0.03v4.94h-20.23c-0.5,0-1.04,0.49-1.04,0.86v1.05c0.05,0.66,0.69,1.02,1.21,0.98h16.63
						c2.3,0.15,3.55,1.12,3.58,3.03l-0.02,6.61C463.15,450.46,461.44,451.72,458.89,451.72z M454.15,426.62l-1.26-3.03h-9.83
						l-1.25,3.03h-8.96l9.2-17.62h12.09l9.21,17.62H454.15z M443.25,375.47h19.16v5.96h-25.06c-1.47-0.13-3.68-0.88-3.92-3.66
						v-12.42c0-1.78,1.22-3.03,3.81-3.68h25.06v6.24h-19.04c-1.11,0-1.72,0.6-1.72,1.88v3.78
						C441.54,374.72,442.14,375.47,443.25,375.47z M452.21,386.43v17.98h-8.47v-17.98H452.21z M454.21,356.81l-1.26-3.05h-9.82
						l-1.26,3.05h-8.98l9.1-17.72l12.21,0.11l9.22,17.6H454.21z M370.88,269.57h8.96v-8.36h10.19l-0.12,8.36H399v8.86h-9.09v8.5
						h-9.95h-0.12v-8.37h-8.96V269.57z M348.4,445.51l4.54,26.61l24.94-177.92l14.6,0.12l24.93,175.89
						c13.81-13.56,49.53-14.07,63.06,0.3l22.43-176.43h14.98l24.44,178.04l4.69-26.61h9.44l-6.75,34.73h-16.32l-22.14-160.18h-1.22
						l-19.89,160.18h-14.5c-10.81-12.81-43.1-12.81-54.52,0h-13.88l-21.62-160.18h-1.22l-21.37,160.18h-17.43h-0.63l-6.74-34.79
						L348.4,445.51z"/>
				</g>
				<g>
					<path class="st1" d="M410.03,499.35c0,0-0.67,0-1.15,0c0,0-0.04,32.53,0,32.51c0.02-0.04,0.92,0.06,0.92,0.06
						c2.24-0.15,2.01-3.01,2.01-3.01v-26.27C411.81,502.64,412.12,499.46,410.03,499.35z"/>
				</g>
				<g>
					<polygon class="st1" points="427.52,507.2 426.43,529.26 429.1,529.26 429.47,529.26 428.63,507.2 					"/>
				</g>
				<g>
					<path class="st1" d="M353.91,517.98c0-0.88-0.13-1.27-2.55-1.14v12.55l1.58,0.11c0.85-0.24,1.09-0.75,0.97-2.14V517.98z"/>
				</g>
				<g>
					<polygon class="st1" points="462.63,505.81 461.54,528.99 464.7,528.99 463.36,505.81 					"/>
				</g>
				<g>
					<polygon class="st1" points="390.47,505.81 389.14,527.87 392.17,527.87 391.56,505.81 					"/>
				</g>
				<g>
					<polygon class="st1" points="499.92,505.3 499.07,527.48 502.35,527.48 501.02,505.3 					"/>
				</g>
				<g>
					<path class="st1" d="M539.04,503.78l-0.73,21.29l2.68-0.14l-0.97-21.41C539.17,503.28,539.17,503.66,539.04,503.78z"/>
				</g>
				<g>
					<path class="st1" d="M520.7,498.84l-1.58,0.09l0.02,15.43l1.42-0.09c0.92-0.27,1.36-1.02,1.44-2.86v-9.33
						C522.01,500.62,521.8,499.08,520.7,498.84z"/>
				</g>
				<g>
					<path class="st1" d="M452.68,298.9h-9.95v2.15l9.7-0.11c0.49,0,0.62-0.38,0.62-0.52v-0.88
						C453.04,299.54,453.17,298.9,452.68,298.9z"/>
				</g>
				<g>
					<polygon class="st1" points="446.85,344.4 444.74,349.09 451.33,349.09 449.22,344.4 					"/>
				</g>
				<g>
					<polygon class="st1" points="448.97,276.47 446.58,276.47 444.46,281.17 450.98,281.17 					"/>
				</g>
				<g>
					<polygon class="st1" points="446.8,414.23 444.81,418.91 451.29,418.91 449.3,414.23 					"/>
				</g>
			</g>
		</g>
	</g>
</g>
</svg>
