<?xml version="1.0" encoding="utf-8"?>
<!-- Generator: Adobe Illustrator 26.5.0, SVG Export Plug-In . SVG Version: 6.00 Build 0)  -->
<svg version="1.1" id="F_Ahorro" xmlns="http://www.w3.org/2000/svg" xmlns:xlink="http://www.w3.org/1999/xlink" x="0px" y="0px"
	 viewBox="0 0 1366 768" style="enable-background:new 0 0 1366 768;" xml:space="preserve">
<style type="text/css">
	.st0{fill:#FF0212;}
	.st1{fill:#002892;}
	.st2{fill:#FFFFFF;}
</style>
<g>
	<path class="st0" d="M497.24,171c4.3,0.74,8.22,1.3,12.1,2.09c20.21,4.15,37.64,13.5,52.25,28.08
		c16.73,16.72,26.99,36.68,30.22,60.18c2.98,21.76-0.24,42.85-6.89,63.54c-7.87,24.47-20.13,46.73-34.66,67.81
		c-0.21,0.31-0.48,0.58-0.97,1.15C531.93,319.54,514.64,245.51,497.24,171z"/>
	<path class="st0" d="M417.81,409.29c19.11,0,38.22,0.02,57.33-0.03c1.57,0,2.22,0.3,2.49,2.04c2.14,14.21,4.4,28.4,6.69,42.59
		c0.17,1.07-0.16,1.51-0.99,2c-20.95,12.49-43.27,21.43-67.21,26.26c-11.9,2.4-23.91,3.69-36.05,3.41
		c-17.33-0.41-34.03-3.51-49.35-12.15c-2.25-1.27-2.26-1.28-1.13-3.65c9.31-19.58,18.63-39.16,27.91-58.76
		c0.62-1.31,1.35-1.75,2.81-1.75C379.46,409.31,398.64,409.29,417.81,409.29z"/>
	<path class="st0" d="M403.65,188.59c-39.75,77.59-79.3,154.77-118.85,231.96c-0.2,0.01-0.39,0.02-0.59,0.04
		c-1.58-4.52-3.33-9-4.72-13.58c-4.77-15.72-5.96-31.8-4.39-48.11c2.61-27.17,12.12-52.02,25.61-75.5
		c10.18-17.71,22.11-34.13,36.56-48.63c19.02-19.08,40.76-34.32,65.17-45.74C402.68,188.92,402.93,188.85,403.65,188.59z"/>
	<path class="st1" d="M679.3,328.06c1.52,41.45,3.04,82.71,4.56,124.16c-9.98,0-19.87,0-29.93,0c0-8.55,0-17.03,0-25.73
		c-0.78-0.05-1.41-0.12-2.03-0.12c-9.03-0.01-18.06,0.02-27.09-0.03c-1.28-0.01-1.96,0.37-2.57,1.53
		c-3.99,7.72-8.04,15.4-12.16,23.05c-0.34,0.64-1.31,1.33-1.99,1.34c-9.16,0.09-18.32,0.06-27.48,0.05c-0.31,0-0.61-0.06-1.18-0.12
		c1.71-3.42,3.32-6.68,4.96-9.93c10.76-21.42,21.51-42.84,32.27-64.26c8.13-16.17,16.27-32.33,24.4-48.49
		c0.44-0.88,0.78-1.59,2.1-1.58c11.65,0.08,23.3,0.04,34.94,0.05C678.42,327.98,678.74,328.02,679.3,328.06z M638.1,400.84
		c4.41,0,8.54,0,12.85,0c-0.4-8.48-0.8-16.8-1.19-25.11c-0.19-0.01-0.39-0.02-0.58-0.03C645.5,384.03,641.83,392.36,638.1,400.84z"
		/>
	<path class="st1" d="M695.16,452.17c4.97-41.42,9.93-82.73,14.9-124.1c9.78,0,19.37,0,29.18,0c-1.18,12.44-2.34,24.76-3.54,37.35
		c2.76-0.68,5.17-1.56,7.64-1.81c4.27-0.44,8.61-0.97,12.85-0.59c7.06,0.63,12.36,4.67,16.4,10.32c2.2,3.07,2.14,6.72,1.68,10.23
		c-1.81,13.86-3.77,27.7-5.68,41.55c-1.21,8.8-2.43,17.6-3.64,26.4c-0.03,0.19-0.09,0.37-0.16,0.67c-10.04,0-20.09,0-30.31,0
		c0.7-5.36,1.38-10.65,2.07-15.94c1.51-11.46,3.02-22.93,4.53-34.39c0.46-3.5,0.94-6.99,1.34-10.5c0.12-1.03,0.13-2.1-0.04-3.11
		c-0.59-3.52-3.79-4.77-6.29-2.23c-1.38,1.4-2.6,3.44-2.89,5.34c-3.01,19.76-5.82,39.55-8.65,59.34c-0.14,1.01-0.23,1.71-1.54,1.71
		c-9.03-0.05-18.06-0.04-27.1-0.05C695.74,452.37,695.55,452.28,695.16,452.17z"/>
	<path class="st0" d="M382.44,355.88c21.46-43.52,42.8-86.8,64.39-130.59c9.27,43.82,18.42,87.11,27.62,130.59
		C443.74,355.88,413.24,355.88,382.44,355.88z"/>
	<path class="st1" d="M1019.36,455.72c-5.18-0.04-10.2-0.76-15.09-2.37c-12.83-4.24-20.97-16.69-19.6-29.68
		c0.98-9.29,1.81-18.6,3.13-27.84c1.77-12.45,7.93-22.31,19.22-28.19c10.65-5.55,22.21-6.99,33.94-4.58
		c10.92,2.25,16.56,9.99,18.93,20.44c1.19,5.21,1.22,10.48,0.82,15.79c-0.73,9.85-1.71,19.66-4.36,29.22
		c-1.68,6.05-4.62,11.53-8.42,16.48c-4.47,5.83-10.82,8.49-17.85,9.63C1026.53,455.19,1022.93,455.37,1019.36,455.72z
		 M1031.91,395.37c-0.11-1.49-0.08-2.62-0.3-3.7c-0.47-2.28-1.46-4.22-3.93-4.92c-2.61-0.73-4.81,0.23-6.18,2.3
		c-1.38,2.08-2.75,4.42-3.19,6.82c-1.43,7.7-2.52,15.47-3.55,23.23c-0.4,3.01-0.6,6.11-0.33,9.11c0.25,2.76,2.08,4.01,4.85,4.21
		c4.07,0.29,5.81-0.78,7.24-5.03C1030.04,416.89,1030.34,405.84,1031.91,395.37z"/>
	<path class="st1" d="M856.36,392.73c-0.83,13.85-1.46,26.05-5.44,37.64c-1.71,4.99-4.5,9.73-7.45,14.14
		c-3.92,5.85-10.05,8.59-16.82,9.84c-9.24,1.7-18.5,2.03-27.49-1.22c-11.49-4.16-17.91-12.57-19.25-24.63
		c-0.39-3.46,0.09-7.05,0.5-10.54c1.01-8.56,1.63-17.22,3.46-25.6c3.4-15.53,13.47-24.97,28.88-28.62
		c7.17-1.69,14.49-2.4,21.81-1.11c10.99,1.94,17.55,8.8,20.21,19.38C855.78,386.04,856.01,390.25,856.36,392.73z M827.4,394.59
		c-0.07-0.02-0.14-0.03-0.2-0.05c-0.1-0.97-0.11-1.96-0.3-2.91c-0.49-2.37-1.57-4.3-4.15-4.93c-2.65-0.65-4.84,0.42-6.1,2.53
		c-1.44,2.42-2.73,5.1-3.28,7.83c-1.17,5.75-1.87,11.6-2.66,17.42c-0.54,3.94-1.14,7.89-1.3,11.86c-0.13,3.37,1.7,5.58,4.23,6.02
		c4.04,0.7,6.45-0.35,7.71-3.93c1.18-3.37,2.18-6.86,2.75-10.37C825.35,410.26,826.31,402.42,827.4,394.59z"/>
	<path class="st1" d="M924.6,452.17c1.22-9.6,2.41-19.06,3.61-28.51c1.51-11.86,3.02-23.71,4.53-35.57
		c0.92-7.26,1.82-14.52,2.81-21.77c0.07-0.5,0.79-1.29,1.21-1.29c9.02-0.08,18.04-0.06,27.31-0.06c-0.1,0.73-0.24,1.28-0.23,1.82
		c0.01,0.46,0.07,1.15,0.35,1.31c0.32,0.18,1.04,0.05,1.36-0.22c6-5.14,12.66-5.15,19.69-2.66c1.25,0.44,1.66,1.03,1.46,2.45
		c-0.95,6.99-1.82,13.99-2.58,21c-0.19,1.79-0.59,2.58-2.66,2.58c-2.65-0.01-5.36,0.35-7.94,0.96c-9.15,2.19-13.25,7.26-14.2,16.56
		c-1.48,14.42-3.17,28.83-4.79,43.39C944.64,452.17,934.74,452.17,924.6,452.17z"/>
	<path class="st1" d="M894.82,452.23c-10.05,0-19.91,0-29.93,0c0.82-6.51,1.62-12.91,2.44-19.3c1.51-11.92,3.03-23.85,4.55-35.77
		c1.31-10.3,2.61-20.61,3.98-30.9c0.06-0.48,0.83-1.23,1.27-1.23c8.9-0.06,17.8-0.03,26.7-0.01c0.12,0,0.24,0.09,0.54,0.22
		c-0.09,0.51-0.27,1.07-0.25,1.62c0.01,0.45,0.14,1.14,0.43,1.28c0.34,0.16,1.03-0.02,1.35-0.3c6.16-5.23,12.94-5.13,20.06-2.43
		c0.98,0.37,1.2,0.93,1.07,1.94c-0.93,7.26-1.84,14.52-2.67,21.79c-0.17,1.52-0.7,2.02-2.29,2.09c-2.79,0.12-5.63,0.36-8.34,1.01
		c-9.06,2.16-13.15,7.2-14.11,16.42C898.13,423.14,896.45,437.61,894.82,452.23z"/>
	<path class="st1" d="M783.55,294.11c-3.18,0-6.18,0-9.49,0c0-0.82,0-1.58,0-2.33c0-11.45,0.02-22.9-0.03-34.35
		c-0.01-1.34-0.16-2.85-0.8-3.95c-0.53-0.91-1.87-1.83-2.88-1.86c-1.01-0.03-2.57,0.8-2.97,1.68c-0.74,1.59-1.08,3.5-1.1,5.28
		c-0.09,10.99-0.05,21.98-0.05,32.98c0,0.77,0,1.55,0,2.49c-3.28,0-6.37,0-9.72,0c0-0.84,0-1.61,0-2.38c0-11.52,0-23.03-0.01-34.55
		c0-0.98-0.01-1.98-0.22-2.92c-0.38-1.62-1.43-2.71-3.17-2.69c-1.74,0.02-2.75,1.12-3.07,2.77c-0.2,1.02-0.29,2.07-0.29,3.11
		c-0.02,11.38-0.01,22.77-0.01,34.15c0,0.77,0,1.55,0,2.49c-3.59,0-7.01,0-10.66,0c0-17.69,0-35.31,0-53.07c3.25,0,6.53,0,9.93,0
		c0.09,1.19,0.18,2.31,0.31,4.03c2.31-3.13,4.65-5.41,8.27-5.22c3.47,0.18,5.75,2.56,8.19,5.03c0.51-0.59,0.97-1.09,1.4-1.61
		c3.91-4.76,9.76-4.69,13.56,0.17c1.98,2.52,2.91,5.43,2.92,8.57c0.06,13.67,0.02,27.35,0.02,41.02
		C783.68,293.25,783.61,293.57,783.55,294.11z"/>
	<path class="st1" d="M667.92,223.53c0,4.7,0,9.25,0,14.14c-1.71,0-3.38,0-5.05,0c-2.49,0-4.98-0.07-7.46,0.06
		c-0.54,0.03-1.49,0.71-1.51,1.13c-0.13,3.19-0.07,6.38-0.07,9.86c4.76,0,9.35,0,14.08,0c0,5.29,0,10.29,0,15.62
		c-4.42,0-8.82,0-13.42,0c0,10.17,0,20.02,0,30c-5.06,0-9.92,0-14.92,0c-0.03-0.69-0.09-1.33-0.09-1.97
		c0-22.23,0.02-44.47-0.05-66.7c-0.01-1.85,0.56-2.29,2.32-2.27c7.98,0.08,15.96,0.03,23.94,0.04
		C666.4,223.43,667.1,223.49,667.92,223.53z"/>
	<path class="st1" d="M994.67,223.78c3.33,0,6.44,0,9.71,0c0,23.47,0,46.9,0,70.47c-2.74,0-5.46,0-8.27,0
		c-0.1-0.66-0.19-1.29-0.28-1.88c-2.18,0.73-4.27,1.68-6.47,2.13c-7.46,1.55-12.45-2.3-12.57-9.9c-0.16-10.27-0.18-20.54,0.06-30.81
		c0.07-2.93,0.8-6.02,1.99-8.7c2.97-6.73,10.18-7.28,14.47-1.32c0.32,0.44,0.66,0.87,1.36,1.8
		C994.67,237.95,994.67,230.93,994.67,223.78z M994.36,268.61C994.37,268.61,994.37,268.61,994.36,268.61
		c0.01-3.2-0.04-6.4,0.02-9.59c0.06-3.16-1.02-4.93-3.16-4.94c-2.15-0.02-3.42,1.71-3.49,4.77c-0.01,0.39,0,0.78,0,1.17
		c0,5.61,0,11.23,0,16.84c0,0.85-0.01,1.7,0.12,2.54c0.39,2.5,1.64,3.62,3.68,3.41c1.83-0.18,2.84-1.64,2.83-4.02
		C994.35,275.4,994.36,272.01,994.36,268.61z"/>
	<path class="st1" d="M822.77,294.45c-3.76,0-7.35,0-11.12,0c-0.09-0.98-0.17-1.93-0.27-3.06c-0.62,0.3-1.12,0.57-1.63,0.79
		c-2.04,0.84-4.04,1.89-6.16,2.45c-5.45,1.44-9.68-0.59-12.18-5.61c-4.08-8.17-2.64-16.52,4.57-22.62
		c3.59-3.04,7.91-5.24,11.99-7.66c1.7-1.01,2.23-2.02,1.71-4.91c-0.3-1.7-1.45-2.13-2.99-2.18c-2.04-0.06-2.97,1.06-3.31,2.88
		c-0.17,0.89-0.25,1.79-0.41,2.93c-3.53,0-7.04,0.04-10.55-0.06c-0.33-0.01-0.91-0.88-0.9-1.34c0.19-8.31,4.08-15.52,14.29-16.06
		c3-0.16,6.2,0.09,9.04,0.99c5.44,1.71,7.99,6.09,8.06,11.56c0.17,13.66,0.05,27.32,0.04,40.98
		C822.94,293.78,822.85,294.03,822.77,294.45z M810.67,269.94c-4.1-0.33-11.18,5.4-10.3,11.31c0.13,0.87,0.77,1.86,1.47,2.42
		c3.13,2.46,8.42,0.36,8.76-3.59C810.9,276.79,810.67,273.45,810.67,269.94z"/>
	<path class="st1" d="M685.79,257.35c-3.76,0-7.46,0-11.15,0c-1.83-6.62,2.89-14.63,9.91-16.71c4.17-1.23,8.39-1.22,12.55,0.09
		c5.2,1.64,8.31,5.44,8.42,10.67c0.3,14.25,0.1,28.51,0.1,42.93c-3.74,0-7.42,0-11.24,0c-0.08-0.91-0.16-1.8-0.26-3.01
		c-0.67,0.35-1.19,0.69-1.76,0.89c-2.63,0.93-5.21,2.26-7.92,2.63c-4.9,0.68-8.2-1.47-10.39-5.96c-3.72-7.61-2.55-15.19,3.32-21.32
		c3.82-3.98,8.47-6.73,13.46-8.97c1.54-0.7,2.03-2.23,1.51-5c-0.29-1.51-1.39-1.91-2.76-1.94c-2-0.04-3.06,0.73-3.48,2.7
		C685.91,255.3,685.9,256.28,685.79,257.35z M692.34,269.68c-3.15,0.55-5.69,1.95-7.63,4.23c-1.03,1.21-1.89,2.69-2.43,4.19
		c-1.13,3.15,0.07,5.71,2.67,6.28c3.82,0.84,7.05-0.84,7.33-4.18C692.56,276.78,692.34,273.31,692.34,269.68z"/>
	<path class="st1" d="M916.65,294.42c-3.96,0-7.54,0-11.26,0c-0.07-1.01-0.14-1.95-0.22-3.02c-1.8,0.85-3.44,1.76-5.19,2.41
		c-1.45,0.54-3,0.92-4.54,1.1c-4.65,0.56-7.92-1.52-10.1-5.55c-3.81-7.08-3.04-14.69,2.19-20.8c3.82-4.47,8.73-7.42,14.02-9.8
		c1.88-0.84,2.39-2.27,1.79-5.21c-0.34-1.65-1.58-1.9-2.98-1.9c-1.93,0-2.91,0.9-3.33,3.13c-0.14,0.76-0.13,1.55-0.2,2.51
		c-3.77,0-7.51,0-11.25,0c-1.12-6.51,2.41-14.25,9.23-16.43c4.34-1.39,8.75-1.51,13.11-0.2c5.66,1.69,8.86,6.43,8.83,12.67
		c-0.06,12.81-0.07,25.62-0.1,38.44C916.65,292.6,916.65,293.43,916.65,294.42z M904.45,269.83c-4.54,0.44-8.94,4.2-10.13,8.54
		c-0.83,2.99,0.27,5.44,2.69,6c3.78,0.88,7.14-0.82,7.39-4.06C904.65,276.88,904.45,273.42,904.45,269.83z"/>
	<path class="st1" d="M1031.65,276.43c3.29,0,6.23,0.03,9.17-0.01c1.08-0.01,1.31,0.52,1.3,1.46c-0.03,3.01,0.06,6.02-0.04,9.02
		c-0.08,2.47-1.35,4.46-3.47,5.59c-6.29,3.32-12.8,3.59-19.15,0.34c-3.58-1.84-5.26-5.22-5.29-9.23c-0.07-9.35-0.1-18.7,0.04-28.04
		c0.03-2.17,0.54-4.43,1.25-6.49c2.96-8.54,10.63-10.63,17.7-8.53c5.2,1.54,7.33,5.75,8.27,10.71c0.19,1.02,0.35,2.07,0.36,3.11
		c0.03,5.68,0.02,11.37,0.02,17.27c-5.47,0-10.86,0-16.58,0c0,2.6,0,4.98,0,7.37c0,1.31,0,2.61-0.02,3.92
		c-0.04,2.19,0.96,3.3,3.09,3.42c2.01,0.12,3.27-1.04,3.34-3.22C1031.71,280.96,1031.65,278.82,1031.65,276.43z M1032.63,262.73
		c0.06-0.66,0.15-1.17,0.15-1.68c0-1.57,0.09-3.15-0.08-4.7c-0.26-2.39-1.87-3.86-3.95-3.84c-2.07,0.01-3.62,1.49-3.81,3.95
		c-0.15,2.05-0.03,4.13-0.03,6.27C1027.46,262.73,1029.93,262.73,1032.63,262.73z"/>
	<path class="st1" d="M856.94,261.52c-3.29,0-6.22,0-9.44,0c0-1.49,0.1-2.91-0.03-4.31c-0.13-1.41-0.25-2.92-0.83-4.17
		c-0.4-0.85-1.55-1.81-2.42-1.86c-0.87-0.05-2.17,0.75-2.62,1.55c-0.71,1.25-1.18,2.81-1.21,4.25c-0.12,7.06-0.05,14.12-0.05,21.18
		c0,0.33,0.01,0.66,0.05,0.98c0.39,2.66,1.88,4.25,3.88,4.14c1.9-0.1,3.03-1.71,3.13-4.49c0.05-1.37,0.05-2.74,0.09-4.11
		c0-0.12,0.1-0.23,0.28-0.6c2.73,0,5.59-0.04,8.44,0.05c0.32,0.01,0.87,0.75,0.87,1.16c0.06,3.59,0.23,7.21-0.04,10.78
		c-0.25,3.4-2.36,5.81-5.4,7.18c-4.99,2.23-10.18,2.39-15.25,0.37c-4.3-1.71-6.5-5.11-6.51-9.78c-0.03-10.07-0.02-20.14,0-30.21
		c0.01-8.93,5.88-14.37,14.83-13.74c1.43,0.1,2.88,0.22,4.26,0.56c4.87,1.21,7.83,4.87,7.96,9.87
		C857.02,253.99,856.94,257.64,856.94,261.52z"/>
	<path class="st1" d="M949.12,259.03c-2.87,0-5.54,0.05-8.21-0.06c-0.35-0.01-0.9-0.82-0.94-1.3c-0.16-1.62-0.04-3.27-0.2-4.89
		c-0.22-2.3-1.33-3.38-3.27-3.43c-2.13-0.06-3.29,0.93-3.72,3.22c-0.48,2.58-0.2,4.99,1.9,6.83c2.71,2.36,5.26,5,8.28,6.87
		c4.62,2.86,6.57,6.96,6.81,12.06c0.13,2.93,0.09,5.9-0.31,8.8c-0.45,3.25-2.7,5.37-5.67,6.49c-5.19,1.95-10.51,2.09-15.71,0.06
		c-3.41-1.33-5.3-3.89-5.15-7.74c0.09-2.47,0.02-4.95,0.02-7.57c2.98,0,5.83,0,8.87,0c0,1.51-0.18,3.01,0.04,4.45
		c0.39,2.63,2.15,3.87,4.7,3.58c2.16-0.25,3.41-1.99,3.21-4.59c-0.15-1.85-0.58-3.56-2.17-4.84c-2.64-2.14-5.04-4.59-7.81-6.54
		c-3.44-2.42-5.55-5.58-6.11-9.63c-0.47-3.41-0.88-6.92-0.59-10.32c0.61-6.99,5.82-10.94,13.27-10.62c3.72,0.16,7.3,0.67,10.11,3.49
		c1.75,1.76,2.64,3.85,2.65,6.33C949.12,252.66,949.12,255.67,949.12,259.03z"/>
	<path d="M661.91,574.71c-1.85,0-3.41,0-5.21,0c-0.03-0.7-0.09-1.39-0.09-2.07c-0.01-7.32,0.05-14.65-0.04-21.97
		c-0.02-2.07-0.27-4.18-0.7-6.21c-1.04-4.92-4.18-7.6-9.16-8.33c-7.25-1.07-13.37,2.76-14.71,9.45c-0.39,1.97-0.5,4.03-0.51,6.04
		c-0.06,6.93-0.02,13.86-0.02,20.8c0,0.71,0,1.41,0,2.24c-1.84,0-3.51,0-5.34,0c0-14.26,0-28.53,0-42.9c1.76,0,3.48,0,5.41,0
		c0,1.36,0,2.62,0,4.42c4.29-4.39,9.21-5.82,14.72-5.45c5.57,0.38,10.21,2.57,13.67,7.3c0.6-0.65,1.14-1.26,1.7-1.86
		c6.82-7.32,20.13-7.45,26.17-0.25c2.82,3.36,3.95,7.41,4.04,11.64c0.18,8.82,0.09,17.66,0.1,26.48c0,0.18-0.1,0.36-0.18,0.63
		c-1.68,0-3.35,0-5.29,0c0-0.74,0-1.43,0-2.12c0-7.65,0.03-15.3-0.02-22.96c-0.01-1.56-0.16-3.14-0.47-4.67
		c-1.28-6.21-5.71-9.38-12.32-8.91c-6.63,0.47-11.26,4.94-11.48,11.63c-0.27,8.17-0.18,16.34-0.25,24.51
		C661.9,572.93,661.91,573.71,661.91,574.71z"/>
	<path d="M880.79,567.13c0,2.77,0,5.08,0,7.52c-1.77,0-3.44,0-5.28,0c0-18.9,0-37.82,0-56.91c1.71,0,3.49,0,5.4,0
		c0,7.06,0,14.09,0,21.56c4.38-5.84,9.95-8.8,17.03-8.64c7.06,0.16,12.74,3.02,17.02,8.64c5.85,7.68,7.35,22.81-3.96,31.94
		C903.86,577.02,889.26,578.89,880.79,567.13z M897.08,571c2.24-0.61,4.61-0.94,6.7-1.89c7.05-3.22,10.7-10.56,9.65-18.86
		c-1.22-9.58-10.94-16.22-20.26-13.85c-6.22,1.58-11.19,7.65-12.18,14.89C879.65,561.16,887.44,570.58,897.08,571z"/>
	<path d="M432.53,539.64c0-2.88,0-5.27,0-7.79c1.75,0,3.42,0,5.23,0c0,18.89,0,37.75,0,56.77c-1.76,0-3.53,0-5.37,0
		c0-7.05,0-14.03,0-21.48c-4.35,5.83-9.81,8.82-16.85,8.71c-6.91-0.1-12.52-2.76-16.87-8.13c-7.27-8.97-6.25-23.21,2.28-31.22
		c4.65-4.36,10.2-6.18,16.52-5.76C423.84,531.15,428.69,534.25,432.53,539.64z M399.69,553.5c-0.04,11.25,10.06,19.42,20.53,16.62
		c8.09-2.17,13.64-11.57,11.94-20.23c-1.63-8.29-8.71-14.27-16.51-13.96C406.67,536.28,399.72,543.94,399.69,553.5z"/>
	<path class="st1" d="M1062.61,294.38c-3.89,0-7.59,0-11.55,0c0-0.79,0-1.49,0-2.19c0-22.1,0.02-44.19-0.04-66.28
		c0-1.78,0.44-2.4,2.28-2.31c3.05,0.15,6.11,0.04,9.3,0.04C1062.61,247.31,1062.61,270.75,1062.61,294.38z"/>
	<path d="M987.95,554.93c-12.85,0-25.58,0-38.51,0c0.14,4.59,1.84,8.24,5,11.25c7.42,7.08,19.95,5.38,25.01-3.5
		c0.79-1.39,1.64-1.78,3.07-1.68c1.29,0.1,2.6,0.02,3.94,0.02c-2.31,7.97-10.92,16.54-24.51,14.56
		c-10.7-1.56-20.31-11.53-18.28-26.49c1.6-11.78,12.76-20.03,25.18-18.55C983.39,532.3,988.85,545.47,987.95,554.93z M981.69,550.07
		c-0.97-8.78-8.27-14.8-17.2-14.28c-7.98,0.47-14.84,7.1-14.71,14.28C960.4,550.07,971.04,550.07,981.69,550.07z"/>
	<path d="M617.53,554.95c-12.93,0-25.73,0-38.54,0c-0.11,7.98,6.67,15.04,14.85,15.54c6.75,0.41,11.96-2.22,15.37-8.13
		c0.56-0.97,1.15-1.42,2.29-1.35c1.49,0.1,3,0.02,4.54,0.02c-2.62,8.39-11.26,16.69-24.96,14.49c-11.86-1.9-19.85-13.48-17.93-25.86
		c1.98-12.76,12.77-20.73,25.47-19.09C611.96,532.3,618.27,544.32,617.53,554.95z M579.31,550.08c10.63,0,21.26,0,31.9,0
		c-1.02-8.9-8.37-14.91-17.36-14.27C585.9,536.37,579.11,542.99,579.31,550.08z"/>
	<path d="M363.58,554.87c-12.85,0-25.58,0-38.69,0c0.22,1.4,0.28,2.62,0.62,3.76c1.93,6.59,6.28,10.61,13.08,11.67
		c6.57,1.02,12.13-1.05,15.81-6.69c1.34-2.05,2.63-2.94,4.96-2.58c0.88,0.13,1.8,0.02,2.76,0.02c-2.83,8.54-11.42,16.81-25.08,14.46
		c-12.3-2.12-19.6-13.15-17.77-26.46c1.61-11.74,12.4-19.77,24.83-18.48C356.09,531.79,364.41,542.04,363.58,554.87z M357.24,550.07
		c-1.04-8.88-8.45-14.92-17.39-14.26c-7.9,0.58-14.67,7.21-14.52,14.26C335.96,550.07,346.59,550.07,357.24,550.07z"/>
	<path d="M502.75,554.81c0.12,7.1,4.7,13.04,11.29,15.02c7.01,2.1,14.34-0.25,18.11-6.25c1.31-2.09,2.65-2.92,4.97-2.57
		c0.88,0.13,1.79,0.02,2.74,0.02c-3.06,9.03-11.99,16.93-25.48,14.37c-11.81-2.25-19.31-13.42-17.47-25.63
		c1.9-12.64,11.84-20.36,24.78-19.24c11.94,1.03,20.15,11.04,19.73,24.27C528.58,554.81,515.73,554.81,502.75,554.81z
		 M534.97,550.07c-1-8.91-8.59-15.03-17.57-14.26c-7.83,0.67-14.61,7.4-14.29,14.26C513.72,550.07,524.34,550.07,534.97,550.07z"/>
	<path class="st1" d="M724.47,294.1c-4,0-7.7,0-11.55,0c0-17.72,0-35.34,0-53.12c3.62,0,7.24,0,11.09,0c0,1.4,0,2.86,0,4.32
		c0.13,0.04,0.26,0.08,0.39,0.12c0.31-0.44,0.57-0.93,0.95-1.31c1-1,1.91-2.21,3.12-2.87c2.64-1.46,3.76-0.7,3.77,2.24
		c0,4.24,0,8.47,0,12.71c-1.08,0.2-1.99,0.29-2.85,0.53c-3.27,0.91-4.9,3.04-4.91,6.43c-0.02,9.54-0.01,19.09-0.01,28.63
		C724.47,292.48,724.47,293.18,724.47,294.1z"/>
	<path d="M745,552.69c-0.05,13.31-9.64,23.18-22.49,23.13c-12.35-0.05-22.05-10.13-21.99-22.83c0.07-12.57,10.08-22.9,22.13-22.85
		C735.1,530.21,745.04,540.23,745,552.69z M739.24,552.41c-0.02-0.3-0.08-1.14-0.15-1.99c-0.91-10.72-12.68-17.8-22.6-13.59
		c-6.52,2.76-10.42,9.51-9.98,17.76c0.34,6.33,3.3,11.33,9,14.2c5.52,2.78,11.19,2.55,16.37-1
		C737.03,564.27,739.12,559.06,739.24,552.41z"/>
	<path class="st1" d="M876.3,294.36c-3.87,0-7.71,0-11.73,0c0-17.77,0-35.56,0-53.47c3.89,0,7.73,0,11.73,0
		C876.3,258.67,876.3,276.46,876.3,294.36z"/>
	<path d="M486.72,574.67c-1.77,0-3.45,0-5.29,0c0-1.59,0-3.19,0-4.79c-0.17-0.15-0.33-0.29-0.5-0.44c-0.19,0.4-0.31,0.84-0.57,1.18
		c-5.69,7.46-19.98,6.55-25.42-0.05c-2.36-2.87-3.99-6.15-4.07-9.8c-0.2-9.6-0.07-19.2-0.07-28.96c1.51,0,3.24,0,5.31,0
		c0,0.69,0,1.43,0,2.18c0.06,8.5-0.07,17.01,0.25,25.5c0.25,6.58,4.01,10.35,10.1,10.97c6.79,0.69,12.38-2.46,13.93-8.21
		c0.67-2.48,0.77-5.16,0.81-7.76c0.11-6.87,0.04-13.74,0.04-20.61c0-0.7,0-1.41,0-2.17c1.94,0,3.63,0,5.48,0
		C486.72,545.98,486.72,560.2,486.72,574.67z"/>
	<path d="M1003.85,574.69c-1.95,0-3.62,0-5.43,0c0-14.29,0-28.51,0-42.88c1.67,0,3.39,0,5.32,0c0,1.3,0,2.63,0,4.42
		c2.84-2.74,5.7-4.55,9.21-5.16c3.46-0.6,6.9-0.6,10.29,0.38c6.13,1.77,10.24,6.85,10.74,13.99c0.42,5.99,0.29,12.01,0.37,18.02
		c0.04,3.66,0.01,7.31,0.01,11.14c-1.82,0-3.54,0-5.5,0c0-0.79,0.01-1.55,0-2.31c-0.09-8.5,0.07-17-0.36-25.48
		c-0.37-7.37-4.62-10.91-11.94-10.83c-7.05,0.07-12.09,4.41-12.37,11.26c-0.35,8.22-0.24,16.47-0.33,24.7
		C1003.84,572.78,1003.85,573.62,1003.85,574.69z"/>
	<path d="M777.32,542.24c-2.1,0-3.98,0-5.96,0c-0.45-3.22-1.88-5.58-5.32-6.17c-2.95-0.51-5.83,0.97-6.92,3.59
		c-1.25,2.99-0.51,6.19,2.11,7.83c1.52,0.96,3.3,1.52,4.99,2.18c1.46,0.57,3,0.93,4.43,1.55c5.75,2.51,8.16,7.17,7.3,13.91
		c-0.67,5.19-5.29,9.7-10.76,10.47c-9.77,1.39-16.31-4.21-16.59-14.37c1.85,0,3.69,0,5.6,0c0.19,1.06,0.32,2.15,0.6,3.2
		c1.25,4.63,5.75,7.13,10.22,5.66c2.71-0.89,4.44-2.74,4.85-5.6c0.39-2.77-0.26-5.29-2.7-6.9c-1.67-1.11-3.56-1.9-5.38-2.76
		c-1.71-0.81-3.52-1.42-5.19-2.29c-5.99-3.1-7.93-10.18-4.45-16.01c4.14-6.93,14.59-8.35,20.04-2.72
		C776.4,536.12,777.28,538.91,777.32,542.24z"/>
	<path d="M295.41,523.36c-3.96,0-7.6,0-11.38,0c0-1.94,0-3.73,0-5.64c9.46,0,18.91,0,28.47,0c0,1.86,0,3.65,0,5.57
		c-3.76,0-7.41,0-11.31,0c0,17.16,0,34.18,0,51.34c-2.03,0-3.82,0-5.79,0C295.41,557.59,295.41,540.62,295.41,523.36z"/>
	<path d="M557.04,574.68c-1.91,0-3.58,0-5.38,0c0-14.31,0-28.53,0-42.89c1.57,0,3.1,0,4.86,0c0.07,1.27,0.14,2.59,0.24,4.34
		c2.7-3.21,5.65-5.27,9.82-5.15c0,1.98,0,3.91,0,5.97c-0.48,0.09-0.98,0.19-1.47,0.29c-5.18,1-7.72,3.66-7.88,8.96
		c-0.22,7.25-0.16,14.51-0.2,21.76C557.03,570.17,557.04,572.37,557.04,574.68z"/>
	<path d="M934.45,574.67c-1.83,0-3.57,0-5.46,0c0-14.25,0-28.47,0-42.85c1.73,0,3.52,0,5.46,0
		C934.45,545.98,934.45,560.2,934.45,574.67z"/>
	<path class="st1" d="M864.78,236.87c0-0.83,0-1.47,0-2.12c0-3.65,0-7.29,0-11.13c3.9,0,7.69,0,11.6,0c0,4.38,0,8.72,0,13.26
		C872.6,236.87,868.81,236.87,864.78,236.87z"/>
	<path d="M1048.57,574.84c-5.79,0.01-10.5-4.64-10.55-10.41c-0.05-5.78,4.59-10.44,10.44-10.46c6.01-0.03,10.67,4.55,10.63,10.45
		C1059.05,570.2,1054.37,574.83,1048.57,574.84z M1048.5,572.94c4.82,0.03,8.65-3.7,8.7-8.46c0.04-4.78-3.96-8.84-8.68-8.79
		c-4.68,0.04-8.61,3.99-8.6,8.67C1039.91,569.13,1043.69,572.91,1048.5,572.94z"/>
	<path d="M816.27,574.69c-1.86,0-3.54,0-5.37,0c0-3.47,0-6.89,0-10.41c1.8,0,3.53,0,5.37,0
		C816.27,567.75,816.27,571.11,816.27,574.69z"/>
	<path d="M794.01,564.3c0,3.54,0,6.9,0,10.36c-1.79,0-3.46,0-5.29,0c0-3.41,0-6.82,0-10.36C790.42,564.3,792.14,564.3,794.01,564.3z
		"/>
	<path d="M833.03,574.62c0-3.48,0-6.85,0-10.33c1.81,0,3.53,0,5.36,0c0,3.44,0,6.8,0,10.33
		C836.67,574.62,834.95,574.62,833.03,574.62z"/>
	<path d="M934.44,526.61c-1.88,0-3.67,0-5.53,0c0-2.99,0-5.84,0-8.85c1.82,0,3.59,0,5.53,0
		C934.44,520.62,934.44,523.52,934.44,526.61z"/>
	<path class="st2" d="M1050.15,565.12c1.6-0.49,2.83-1.57,2.44-3.37c-0.21-0.97-1.16-2.29-2-2.47c-2.1-0.49-4.32-0.41-6.68-0.57
		c0,3.59,0.05,6.78-0.02,9.95c-0.03,1.52,0.56,1.8,2.03,1.26v-4.37c2.75-0.57,3.41,1.49,4.31,3.06c0.67,1.23,1.41,2,3.19,1.33
		C1052.26,568.23,1051.21,566.69,1050.15,565.12z M1045.97,564.32v-3.96c1.49,0.26,2.9,0.44,4.24,0.82
		c0.23,0.08,0.39,1.46,0.28,1.51C1049.16,563.25,1047.75,563.7,1045.97,564.32z"/>
	<path d="M1050.15,565.12c1.6-0.49,2.83-1.57,2.44-3.37c-0.21-0.97-1.16-2.29-2-2.47c-2.1-0.49-4.32-0.41-6.68-0.57
		c0,3.59,0.05,6.78-0.02,9.95c-0.03,1.52,0.56,1.8,2.03,1.26v-4.37c2.75-0.57,3.41,1.49,4.31,3.06c0.67,1.23,1.41,2,3.19,1.33
		C1052.26,568.23,1051.21,566.69,1050.15,565.12z M1045.97,564.32v-3.96c1.49,0.26,2.9,0.44,4.24,0.82
		c0.23,0.08,0.39,1.46,0.28,1.51C1049.16,563.25,1047.75,563.7,1045.97,564.32z"/>
</g>
</svg>
