<?xml version="1.0" encoding="utf-8"?>
<!-- Generator: Adobe Illustrator 26.5.0, SVG Export Plug-In . SVG Version: 6.00 Build 0)  -->
<svg version="1.1" id="Sams_Club" xmlns="http://www.w3.org/2000/svg" xmlns:xlink="http://www.w3.org/1999/xlink" x="0px" y="0px"
	 viewBox="0 0 1366 768" style="enable-background:new 0 0 1366 768;" xml:space="preserve">
<style type="text/css">
	.st0{fill:#376199;}
	.st1{fill:#FFFFFF;}
</style>
<rect x="245.19" y="269" class="st0" width="894.09" height="318.91"/>
<g>
	<path class="st1" d="M308.36,464.24l6.31-12.75c4.62,3.36,12.89,7.15,19.2,7.15c7.85,0,10.93-3.78,10.93-7.85
		c0.14-4.77-3.78-6.59-12.05-9.25c-13.87-4.2-21.72-9.11-21.72-22c0-11.77,8.97-20.18,25.23-20.18c8.41,0,16.12,2.66,22.28,7.01
		l-6.31,11.63c-3.64-2.24-9.81-5.61-16.68-5.61c-6.03,0-9.67,2.38-9.67,7.01c0,3.78,2.66,6.31,11.49,8.97
		c15,4.48,22.42,10.09,22.42,21.86c0,13.31-10.79,21.44-25.79,21.44C323.77,471.67,313.96,468.3,308.36,464.24z"/>
	<path class="st1" d="M422.3,456.25c-4.77,10.23-13.88,15.56-24.67,15.56c-18.08,0-32.52-13.88-32.52-36.3
		c0-22.28,14.44-36.16,32.52-36.16c10.79,0,19.9,5.33,24.67,15.56v-14.44h14.02v70.08H422.3V456.25z M401.14,412.52
		c-12.47,0-21.02,9.95-21.02,23.12c0,13.04,8.55,22.99,21.02,22.99c12.33,0,20.88-10.23,20.88-23.27
		C422.02,422.47,413.47,412.52,401.14,412.52z"/>
	<path class="st1" d="M508.88,470.54h-14.02v-42.61c0-8.83-4.63-15.56-14.02-15.56c-10.23,0-17.38,8.97-17.38,20.46v37.7h-14.02
		v-70.08h14.02v12.47c4.2-8.83,11.91-13.73,20.88-13.73c9.39,0,17.1,4.9,21.3,13.31c5.89-9.25,13.73-13.31,23.13-13.31
		c14.72,0,25.51,11.07,25.51,28.87v42.47h-14.02v-42.61c0-8.83-4.62-15.56-14.02-15.56c-10.23,0-17.38,8.97-17.38,20.46V470.54z"/>
	<path class="st1" d="M561.6,380.29h15.14l-8.83,27.61h-11.63L561.6,380.29z"/>
	<path class="st1" d="M571.7,464.24l6.31-12.75c4.62,3.36,12.89,7.15,19.2,7.15c7.85,0,10.93-3.78,10.93-7.85
		c0.14-4.77-3.78-6.59-12.05-9.25c-13.87-4.2-21.72-9.11-21.72-22c0-11.77,8.97-20.18,25.23-20.18c8.41,0,16.12,2.66,22.28,7.01
		l-6.31,11.63c-3.64-2.24-9.81-5.61-16.68-5.61c-6.03,0-9.67,2.38-9.67,7.01c0,3.78,2.66,6.31,11.49,8.97
		c15,4.48,22.42,10.09,22.42,21.86c0,13.31-10.79,21.44-25.79,21.44C587.12,471.67,577.31,468.3,571.7,464.24z"/>
	<path class="st1" d="M654.95,435.51c0-22.28,15.42-36.16,36.86-36.16c10.09,0,19.06,3.22,25.93,10.09l-8.55,10.51
		c-5.33-5.33-11.63-7.43-17.24-7.43c-12.89,0-22,7.71-22,22.85s9.11,23.12,22,23.12c5.61,0,11.91-2.24,17.38-7.85l8.55,10.37
		c-6.87,6.87-15.7,10.65-26.07,10.65C670.5,471.67,654.95,457.79,654.95,435.51z"/>
	<path class="st1" d="M746.76,471.67c-14.44,0.56-22.43-7.01-22.43-23.97v-72.46l14.02-2.8v75.26c0,6.73,3.64,9.81,8.69,9.81h3.64
		v13.73C749.42,471.52,748.02,471.67,746.76,471.67z"/>
	<path class="st1" d="M756.58,441.67v-41.2h14.01v42.33c0,9.25,5.89,15.56,15.7,15.56c9.81,0,15.7-6.31,15.7-15.56v-42.33h14.01
		v41.2c0,19.2-11.91,29.99-29.71,29.99C768.5,471.67,756.58,460.87,756.58,441.67z"/>
	<path class="st1" d="M867.95,471.81c-10.79,0-19.9-5.33-24.67-15.56v14.44h-14.02v-95.44l14.02-2.8v42.47
		c4.77-10.23,13.87-15.56,24.67-15.56c18.08,0,32.52,13.88,32.52,36.3C900.47,457.93,886.03,471.81,867.95,471.81z M864.45,458.63
		c12.47,0,21.02-9.95,21.02-23.12c0-13.03-8.55-22.99-21.02-22.99c-12.33,0-20.88,10.23-20.88,23.27
		C843.56,448.68,852.11,458.63,864.45,458.63z"/>
	<g>
		<path class="st1" d="M995.36,373.84l-9.84-9.84l-59.24,59.25c-2.88,2.88-2.88,7.55,0,10.43l59.25,59.24l9.83-9.84
			c3-3.01,3-7.88,0-10.88l-43.75-43.74l43.75-43.76C998.36,381.7,998.36,376.84,995.36,373.84z"/>
		<path class="st1" d="M1074.07,423.53l-59.55-59.54l-9.89,9.89c-2.97,2.97-2.97,7.8,0,10.77l43.81,43.79l-44.18,44.2
			c-2.76,2.76-2.76,7.23,0,9.99l10.28,10.28l59.54-59.55C1076.78,430.64,1076.78,426.24,1074.07,423.53z"/>
	</g>
</g>
</svg>
